<svg xmlns="http://www.w3.org/2000/svg" width="178.087" height="103.645" viewBox="0 0 178.087 103.645">
  <g id="ауди" transform="translate(-54.613 -349)">
    <g id="Сгруппировать_8" data-name="Сгруппировать 8">
      <path id="Контур_247" data-name="Контур 247" d="M232.7,383.8a7.58,7.58,0,0,0-.6,1.6,30.9,30.9,0,0,1-48.9,19.2c-.2-.2-.5-.3-.7-.5q-19.5,13.5-38.8.1c-12.9,8.9-25.8,8.9-38.9-.1A31.782,31.782,0,0,1,93,409.9c-17.2,4.2-34.5-6.7-37.8-23.8-3.4-17.8,8.3-34.1,26.3-36.7.5-.1,1-.3,1.4-.4h4.6c.2.1.4.3.6.3a31.751,31.751,0,0,1,15.9,6.1,1.97,1.97,0,0,0,1.8-.2,30.773,30.773,0,0,1,13.9-5.6,12.665,12.665,0,0,0,1.8-.6h5c.2.1.4.3.6.3a29.875,29.875,0,0,1,15.7,6.1c.9.7,1.3.2,2-.2a29.933,29.933,0,0,1,13.5-5.6,16.553,16.553,0,0,0,2.1-.6h5c.4.1.7.3,1.1.4a30.406,30.406,0,0,1,14.7,5.8,1.721,1.721,0,0,0,2.4,0,28.721,28.721,0,0,1,13.5-5.5,16.553,16.553,0,0,0,2.1-.6h4.6c.4.1.7.3,1.1.4a30.887,30.887,0,0,1,27.2,25.3,12.663,12.663,0,0,0,.6,1.8C232.7,378.8,232.7,381.3,232.7,383.8ZM100.1,360.5c-9.1-7.8-24.4-6.2-32.9,3.4a24.43,24.43,0,0,0,1.8,34c10.2,9.4,24.7,7.3,31,1.5C91.1,386.3,91.1,373.4,100.1,360.5Zm87.1,38.9c8.9,7.5,23.8,6.3,32.3-2.8a24.4,24.4,0,0,0,.1-33.3c-8.6-9.1-23.4-10.4-32.5-2.9C196.2,373.4,196.3,386.3,187.2,399.4Zm-77.5-38.9c9,13.1,9,26,0,38.9,8.6,7,22.2,6,29.1-.1a31.11,31.11,0,0,1,.1-38.7C131.5,354,117.2,354,109.7,360.5Zm38.8,38.9c8.2,6.8,21.8,6.3,29-.1q-13.5-19.5,0-38.8c-8.3-7-22.3-6.2-29,.1Q162,379.95,148.5,399.4Zm33.9-4.8c7.6-9.2,5.8-23.2-.1-29.2C175.7,373.2,175.7,387.2,182.4,394.6ZM105,365.3c-7.1,8.4-6.4,22.2,0,29.3C111.6,387.2,111.6,373.3,105,365.3Zm38.7-.1c-6.8,7.2-6.7,22.7,0,29.3C149.5,387.9,151.2,374.7,143.7,365.2Z" fill="#6f7173"/>
      <path id="Контур_248" data-name="Контур 248" d="M93.7,423.1c-1.1-1.3-2.1-2.5-3.3-4h11.5a1.644,1.644,0,0,1,1.2.8c7.1,10.5,14.1,21.1,21.3,31.9h-11c-.4,0-.9-.6-1.1-1-1.4-3.8-4.1-4.8-8-4.5-4.6.4-9.3.1-13.9.1-1.2,0-2.1.2-2.5,1.4-1.3,3.3-3.5,4.7-7.1,4.1a44.562,44.562,0,0,0-6.4-.1C81,442.2,87.3,432.7,93.7,423.1Zm-1.4,17.1h14c-2.4-3.9-4.7-7.7-7.1-11.6C96.8,432.6,94.6,436.3,92.3,440.2Z" fill="#da2746"/>
      <path id="Контур_249" data-name="Контур 249" d="M176.9,428c-2.7-3.1-5.1-5.8-7.8-8.9h11a1.012,1.012,0,0,1,.7.4c3.4,4.5,7.1,8.7,10.1,13.4,4.5,7,2,14.6-5.8,17.6a27.968,27.968,0,0,1-23-.7,10.868,10.868,0,0,1-6.4-9.9c-.1-4.5,2.2-7.8,6.1-9.9A22.138,22.138,0,0,1,176.9,428Zm-2.5,5a42.55,42.55,0,0,0-5.1,1.4,5.936,5.936,0,0,0-4,5.4,5.571,5.571,0,0,0,3.4,5.2,12.411,12.411,0,0,0,12.1-.3c3.4-2,3.7-6,1-8.7C179.8,433.9,177.3,433.4,174.4,433Z" fill="#da2645"/>
      <path id="Контур_250" data-name="Контур 250" d="M122.9,428.1h9.6v12.8c.1,4.3,2.9,6.4,7.1,5.5,3-.7,4-1.9,4.1-4.9.1-4.4,0-8.8,0-13.3h9.6c0,.4.1.9.1,1.3,0,3.8-.2,7.6,0,11.4.3,6.2-3.4,9.9-8.7,11a27.663,27.663,0,0,1-15.6-.8c-3.4-1.2-5.9-3.6-6.1-7.3C122.7,438.7,122.9,433.4,122.9,428.1Z" fill="#db2746"/>
      <path id="Контур_251" data-name="Контур 251" d="M196,428.1h9.7v23.7H196Z" fill="#da2745"/>
    </g>
  </g>
</svg>
