<svg xmlns="http://www.w3.org/2000/svg" width="104.623" height="104.445" viewBox="0 0 104.623 104.445">
  <g id="бмв" transform="translate(-253.3 -343.4)">
    <g id="Сгруппировать_9" data-name="Сгруппировать 9">
      <path id="Контур_252" data-name="Контур 252" d="M253.3,391.6c.2-1,.4-1.9.6-2.9,2.4-16.1,10.6-28.5,24.3-37.3a49.952,49.952,0,0,1,21.8-7.6,2.843,2.843,0,0,0,1.2-.4h8.6c1.1.2,2.3.4,3.4.6a52.966,52.966,0,0,1,26.5,12.2,51.59,51.59,0,0,1,17.1,29,47.908,47.908,0,0,1,.6,17.3c-3.6,21.7-16,36.1-36.7,43.1a48.313,48.313,0,0,1-21.4,1.8,51.58,51.58,0,0,1-27.4-12,51.032,51.032,0,0,1-17.7-30.8c-.2-1-.3-2.1-.5-3.1a5.639,5.639,0,0,0-.4-1.2v-5.5C253.3,393.8,253.3,392.7,253.3,391.6Zm53,55.4A51.32,51.32,0,0,0,357,395.5a51.466,51.466,0,0,0-53.9-51.1A51.333,51.333,0,0,0,306.3,447Z" fill="#121313"/>
      <path id="Контур_253" data-name="Контур 253" d="M253.3,394.9v0Z" fill="#4b4e4d"/>
      <path id="Контур_254" data-name="Контур 254" d="M308.1,343.5h0Z" fill="#636666"/>
      <path id="Контур_255" data-name="Контур 255" d="M306.6,347.3a48.42,48.42,0,1,1-49.5,48.2A48.517,48.517,0,0,1,306.6,347.3Zm-4.2,18.3c0,.2.1.4.1.6-.2.2-.3.6-.6.6-2.5.7-5,1.3-7.4,2-.4.1-.7.5-1,.8-.3.2-.5.3-.8.5a28.13,28.13,0,0,0-9.9,8.2c-6,8.1-7.6,17.2-4.3,26.8,6.1,17.9,27.8,25.1,43.1,14.5,15.6-10.8,17.2-32.6,3.2-45.1a52.858,52.858,0,0,0-6.7-4.6c-.4-.3-.7-.7-1.1-.8a28.939,28.939,0,0,0-9.2-2.3c-.3,0-.6-.3-.9-.5v-.1a3.915,3.915,0,0,0,.8-1c.9-2,1.7-4,2.6-6.1a8.468,8.468,0,0,0,.4-1.7c.2-.6.5-1.2.7-1.9.1,0,.1,0,.2.1v10.8h3.3V352.5h-5.5c-1.5,3.4-3,6.9-4.5,10.4-1.5-3.6-3-7-4.4-10.5h-6.1c-.2.2-.5.5-.5.7v12.5c0,.2.3.5.5.7h3.4c.2-.3.5-.6.5-.9V359c0-.3.1-.6.1-1.1.3.5.5.7.6.9.6,1.5,1.2,2.9,1.8,4.4A20.024,20.024,0,0,1,302.4,365.6Zm34.6,6.6.2.2c-2,2.7-3.9,5.4-5.9,8.1.9,1.3,1.8,2.5,2.7,3.7.1.2.6.2.9.1,2.4-.9,4.8-1.8,7.2-2.8,1.9-.7,3.8-1.5,5.7-2.3-.8-1.1-1.5-2-2.2-3-3.3,1.4-6.5,2.8-9.7,4.1,0-.1-.1-.1-.1-.2,2.1-2.9,4.3-5.8,6.4-8.7-.9-1.3-1.8-2.5-2.7-3.7-3.2,1.2-6.4,2.3-9.6,3.5l-.2-.2c2.1-2.7,4.1-5.5,6.2-8.2-.8-1.1-1.6-2.2-2.5-3.4-2.9,4.1-5.7,8-8.6,12,1,1.3,2,2.7,2.9,4C330.9,374.5,334,373.3,337,372.2Zm-60,12a4.235,4.235,0,0,1,.5-.7c2-3.2,4.1-6.4,6.1-9.6a4.988,4.988,0,0,0,.7-3.8,4.7,4.7,0,0,0-3-3.4,3.213,3.213,0,0,0-3.6.8,3.327,3.327,0,0,1-.6.3c.6-2.3.3-3.6-1.1-4.7a3.823,3.823,0,0,0-5.7.9c-2.3,3.2-4.5,6.5-6.8,9.8C267.9,377.3,272.4,380.7,277,384.2Z" fill="#070909"/>
      <path id="Контур_256" data-name="Контур 256" d="M302.4,366.2H307c.3.2.6.5.9.5a29.618,29.618,0,0,1,9.2,2.3c.4.2.7.6,1.1.8a29.739,29.739,0,0,0-9.8-2.7,28.357,28.357,0,0,0-14.1,2.2c-.3.1-.5.2-.8.3.3-.3.6-.7,1-.8,2.5-.7,5-1.3,7.4-2C302.1,366.8,302.2,366.5,302.4,366.2Z" fill="#0d0e0e"/>
      <path id="Контур_257" data-name="Контур 257" d="M298,366.2V355.4h.2l4.2,10.2c-.5-.9-1-1.7-1.4-2.6-.7-1.4-1.2-2.9-1.8-4.4a6.78,6.78,0,0,0-.6-.9,5.939,5.939,0,0,0-.1,1.1v6.4A9.3,9.3,0,0,1,298,366.2Z" fill="#0d0e0e"/>
      <path id="Контур_258" data-name="Контур 258" d="M294.6,352.3v14c-.2-.2-.5-.5-.5-.7V353.1C294.1,352.8,294.4,352.5,294.6,352.3Z"/>
      <path id="Контур_259" data-name="Контур 259" d="M307,366.1c.9-2.2,1.9-4.4,2.8-6.6.3-.7.6-1.4,1-2.2a8.471,8.471,0,0,1-.4,1.7c-.8,2-1.7,4.1-2.6,6.1C307.7,365.4,307.3,365.7,307,366.1Z" fill="#0d0e0e"/>
      <path id="Контур_260" data-name="Контур 260" d="M305.9,422.4V397.5h-27c.2-2,.3-4,.5-5.9a29.4,29.4,0,0,1,4.6-12,20.249,20.249,0,0,1,5.8-5.5c5-3.4,10.7-4.5,16.7-5.2v27.3h24.8c-.1,1.5-.2,2.9-.3,4.3-.6,4.4-1.8,8.6-4.5,12.2-3.4,4.5-8,6.9-13.3,8.3C310.9,421.5,308.5,421.9,305.9,422.4Z" fill="#02affe"/>
      <path id="Контур_261" data-name="Контур 261" d="M276.9,378.3c-1.1-.8-2-1.6-3.2-2.4,1.1-1.5,2.2-3.1,3.3-4.5a1.354,1.354,0,0,1,2-.4c.8.5,1.3,1.1,1,2.1a7.5,7.5,0,0,1-1,2A29.213,29.213,0,0,1,276.9,378.3Z" fill="#0a0b0b"/>
      <path id="Контур_262" data-name="Контур 262" d="M271.5,374.2c-1.1-.8-2-1.5-3-2.3.9-1.3,1.8-2.6,2.7-3.8a1.58,1.58,0,0,1,2.1-.6,1.529,1.529,0,0,1,.8,2.2C273.4,371.2,272.4,372.7,271.5,374.2Z" fill="#0a0c0c"/>
      <path id="Контур_263" data-name="Контур 263" d="M329.9,371.3a.367.367,0,0,0-.3.1.349.349,0,0,1,.1-.2C329.8,371.2,329.8,371.3,329.9,371.3Z" fill="#070909"/>
      <path id="Контур_264" data-name="Контур 264" d="M337,372.2h.3l-.2.2C337.1,372.3,337.1,372.3,337,372.2Z" fill="#070909"/>
    </g>
  </g>
</svg>
