<svg xmlns="http://www.w3.org/2000/svg" width="232.6" height="103.8" viewBox="0 0 232.6 103.8">
  <g id="Шевролет" transform="translate(-189.2 -344.6)">
    <g id="Сгруппировать_7" data-name="Сгруппировать 7">
      <path id="Контур_228" data-name="Контур 228" d="M325.1,448.3c-2.6-1.7-3-4.3-2.9-7.2.1-6.9,0-13.8.1-20.7,0-4.1,1.5-5.6,5.6-5.6h14.4c4.2,0,5.7,1.5,5.7,5.5v22.5c0,3.1-1,4.4-3.7,5-5.8,0-11.7-.1-17.5-.1a3.08,3.08,0,0,0-1.2.5A1.087,1.087,0,0,1,325.1,448.3Zm4-16.9v9.3c0,1.7.7,2.4,2.3,2.4h7.2a2.02,2.02,0,0,0,2.3-2.3V422.2c0-1.5-.7-2.3-2.2-2.3h-7.2c-1.6,0-2.4.7-2.4,2.4C329.2,425.3,329.1,428.4,329.1,431.4Z" fill="#050505"/>
      <path id="Контур_229" data-name="Контур 229" d="M293.8,448V414.9c6.9,0,13.8-.1,20.7.1a3.654,3.654,0,0,1,3.7,3.8c.1,3.8.2,7.6,0,11.4-.1,2.3-1.6,3.6-3.9,3.9-.7.1-1.5.1-2.6.2,2.6,4,5.1,7.8,7.5,11.6a10.434,10.434,0,0,1,.8,2.5h-7.9c-2.9-5.1-5.9-10.2-8.8-15.3-1.3-2.4-.4-4,2.3-3.9,6.4.1,5.8.1,5.8-6a3.21,3.21,0,0,0-.1-1.4c-.5-.7-1.1-1.7-1.7-1.7-2.9-.2-5.8-.1-8.9-.1v3c0,8.4-.1,16.7-.1,25.1C298.3,448,296,448,293.8,448Z" fill="#030303"/>
      <path id="Контур_230" data-name="Контур 230" d="M212.5,448.3c.1-1.8.2-3.7.2-5.5V415h6.9v13h10V415h7.1v33.3h-.9c-2-.2-4-.3-6-.5V433.4H219.6v14.5c-2,.1-4.1.3-6.1.4Z" fill="#020202"/>
      <path id="Контур_231" data-name="Контур 231" d="M273,448.3c-.8-1.5-2-2.9-2.4-4.5q-3.9-13.5-7.5-27c-.2-.6-.2-1.2-.4-1.9h8l7.5,28.2a4.1,4.1,0,0,1,1.1.1c2.5-9.4,4.9-18.7,7.4-28.3h6.1c-1.6,6.1-3.3,12.2-4.9,18.2-1,3.8-2.1,7.6-3.1,11.4a4.91,4.91,0,0,1-3,3.8Z" fill="#050505"/>
      <path id="Контур_232" data-name="Контур 232" d="M376.7,448.3c-2.7-1.4-3.4-3.6-3.3-6.5.1-7.1,0-14.3.1-21.4,0-4.1,1.5-5.6,5.6-5.6h15.2v5.1c-3.7,0-7.3.1-10.9,0-2.1-.1-3.1.7-2.9,2.8.1,1.8,0,3.5,0,5.5h13.7v5H380.5V441c0,1.8,1.2,2.1,2.7,2.1h12.6v4.7H379.4a15.524,15.524,0,0,0-2.1.4A1.76,1.76,0,0,1,376.7,448.3Z" fill="#050505"/>
      <path id="Контур_233" data-name="Контур 233" d="M244.1,448.3c-2.7-1.3-3.4-3.6-3.4-6.5.1-7.1,0-14.3.1-21.4,0-4.2,1.5-5.6,5.6-5.7h15.2v5.1c-3.6,0-7.3.1-10.9,0-2.2-.1-3.1.8-3,3,.1,1.7,0,3.4,0,5.2h13.7v5H247.7v8.1c0,1.7,1.3,1.9,2.6,1.9H263v4.7c-5.5,0-10.9,0-16.4.1a15.525,15.525,0,0,0-2.1.4C244.5,448.3,244.3,448.3,244.1,448.3Z" fill="#050505"/>
      <path id="Контур_234" data-name="Контур 234" d="M192.5,448.3c-2.7-1.4-3.3-3.7-3.3-6.5.1-7,0-14.1,0-21.2,0-4.4,1.4-5.8,5.9-5.8h14.7v5.1c-3.6,0-7.2.1-10.7,0-2.2-.1-3,.8-3,3,.1,5.7.1,11.5,0,17.2,0,2.2.8,3.1,3,3,3.5-.1,7.1,0,11,0v5.2h-.9a2.842,2.842,0,0,0-1.2-.4H194.1a5.637,5.637,0,0,0-1.2.4Z" fill="#040504"/>
      <path id="Контур_235" data-name="Контур 235" d="M405.5,447.9c0-8.4-.1-16.9-.1-25.3v-2.7H396v-5.1h25.8v5.1h-9.5v10.3c0,6,.1,12.1.2,18.1h-.9C409.5,448.2,407.5,448.1,405.5,447.9Z" fill="#030303"/>
      <path id="Контур_236" data-name="Контур 236" d="M352,448.3V415h7v28.1h13v4.8H355.4a10.266,10.266,0,0,0-2.4.5A3.4,3.4,0,0,0,352,448.3Z" fill="#010101"/>
      <path id="Контур_237" data-name="Контур 237" d="M353,448.3a10.266,10.266,0,0,1,2.4-.5H372a.9.9,0,0,0,.1.5Z" fill="#454545"/>
      <path id="Контур_238" data-name="Контур 238" d="M244.6,448.3a7.789,7.789,0,0,1,2.1-.4c5.5,0,10.9,0,16.4-.1a.9.9,0,0,0,.1.5Z" fill="#4d4d4d"/>
      <path id="Контур_239" data-name="Контур 239" d="M325.5,448.3a3.08,3.08,0,0,1,1.2-.5c5.8,0,11.7,0,17.5.1a.6.6,0,0,1-.1.4Z" fill="#4f4f4f"/>
      <path id="Контур_240" data-name="Контур 240" d="M377.2,448.3a7.789,7.789,0,0,1,2.1-.4h16.4v.5C389.6,448.3,383.4,448.3,377.2,448.3Z" fill="#4d4d4d"/>
      <path id="Контур_241" data-name="Контур 241" d="M193,448.3a2.842,2.842,0,0,1,1.2-.4h13.9a5.637,5.637,0,0,1,1.2.4Z" fill="#4f4f4f"/>
      <path id="Контур_242" data-name="Контур 242" d="M300.5,448l.1.2-.2.1h-6.5l-.2-.1.1-.2Z" fill="#787878"/>
      <path id="Контур_243" data-name="Контур 243" d="M219.6,447.9a.6.6,0,0,1-.1.4h-6C215.5,448.2,217.5,448.1,219.6,447.9Z" fill="#707070"/>
      <path id="Контур_244" data-name="Контур 244" d="M229.7,448.3a.9.9,0,0,1,.1-.5c2,.2,4,.3,6,.5Z" fill="#383838"/>
      <path id="Контур_245" data-name="Контур 245" d="M405.5,447.9c2,.1,4.1.3,6.1.4h-6c0-.1-.1-.2-.1-.3C405.4,448,405.4,448,405.5,447.9Z" fill="#696969"/>
      <path id="Контур_246" data-name="Контур 246" d="M304.2,344.6h20.2c2.8,0,3.4.6,3.4,3.4.1,6.2.1,6.2,6.3,6.2h31.1c3.6,0,4.2,1,2.6,4.2-3.6,7-7.2,14-10.7,21.1a4.582,4.582,0,0,1-4.6,2.8c-7.2-.1-14.4,0-21.6,0-2.9,0-3.1.2-3,3,.1,7,.2,6.7-6.7,6.7H284.3c-3,0-3.6-.7-3.7-3.7-.1-6-.1-6-6.2-6H242.6c-3.5,0-4.2-1-2.5-4.2,3.6-7,7.2-14,10.8-21.1a4.375,4.375,0,0,1,4.4-2.7c7.4.1,14.9,0,22.3,0,2.9,0,3.1-.2,3-3-.2-7.6.6-6.6,6.6-6.7Zm-34.9,30.6c5.2,0,10.4.1,15.6,0,2.3-.1,3.3.5,3.1,3a32.3,32.3,0,0,0,0,4.4c0,1.3.5,2,1.9,2h28.8c1.4,0,1.9-.7,1.9-2,0-1.5.1-3.1,0-4.6-.2-2.2.7-2.8,2.8-2.8,8.4.1,16.9.1,25.3,0a4.055,4.055,0,0,0,3.1-1.3c1.9-3.3,3.5-6.7,5.2-10.1.7-1.3.1-2.1-1.3-2.3a14.718,14.718,0,0,0-2.1,0H323.2c-2,0-2.9-.6-2.7-2.7.1-1.5,0-3.1,0-4.6.1-1.5-.5-2.1-2-2.1H289.9c-1.4,0-2,.6-2,1.9v4.4c0,3,0,3-2.9,3H259.2a3.5,3.5,0,0,0-3.6,2.2c-1.3,2.9-2.9,5.7-4.3,8.5-1.1,2.3-.7,3.1,1.9,3.1C258.6,375.3,263.9,375.2,269.3,375.2Z" fill="#e8d582"/>
    </g>
  </g>
</svg>
