<svg xmlns="http://www.w3.org/2000/svg" width="265.571" height="103.508" viewBox="0 0 265.571 103.508">
  <g id="Форд" transform="translate(-173.129 -344.592)">
    <g id="Сгруппировать_5" data-name="Сгруппировать 5">
      <path id="Контур_209" data-name="Контур 209" d="M294.1,447.4c-17.9-.8-35.7-2.6-53.2-6.5-16.2-3.6-32-8.4-46.4-16.9-5.8-3.4-11.1-7.3-15.3-12.6-8.6-10.9-8-22.2,1.4-32.3,7.8-8.4,17.6-13.6,27.9-17.9,20.2-8.4,41.5-12.5,63.1-14.8a316.288,316.288,0,0,1,51.5-1.3c28,1.6,55.5,5.7,81.5,16.7,9.6,4.1,18.6,9.1,25.9,16.8,4,4.3,7,9.1,7.8,15.1,0,.2.3.4.4.6v4.3a2.651,2.651,0,0,0-.5.6c-1.3,7.6-5.7,13.2-11.4,18-9.1,7.8-19.7,12.7-30.9,16.7-23.6,8.4-48.2,12-73.1,13.4a23.685,23.685,0,0,0-3.4.8h-3.2a2.354,2.354,0,0,0-1-.5C308.3,447.4,301.2,447.4,294.1,447.4Zm10.7-4.3c23-.1,44.7-1.9,66.1-6.4,15-3.2,29.7-7.5,43.2-15,7.5-4.2,14.4-9.1,18.6-16.9,3.1-5.9,3.3-12-.1-17.7a39.262,39.262,0,0,0-7.5-9.2c-9.6-8.5-21.3-13.3-33.3-17.1-22.1-7.1-44.8-10.4-67.9-11.5-28.2-1.3-56.3.1-84,6.2-15,3.3-29.7,7.7-43.1,15.4-6.7,3.8-12.8,8.3-16.8,15.1-3.9,6.6-4,13.2-.1,19.9,3.2,5.5,7.9,9.5,13.2,12.9,12,7.8,25.4,12.4,39.2,15.9C256.4,440.7,281,442.9,304.8,443.1Z" fill="#254f9b"/>
      <path id="Контур_210" data-name="Контур 210" d="M294.1,447.4c7.1,0,14.2-.1,21.3,0a2.354,2.354,0,0,1,1,.5H294.1Z" fill="#d2dbea"/>
      <path id="Контур_211" data-name="Контур 211" d="M306.1,439.3a317.174,317.174,0,0,1-61.5-5.8c-16.6-3.4-32.9-7.8-47.5-17a55.479,55.479,0,0,1-8.9-7.1c-8.4-8.3-8.3-18.5-.1-27,6-6.2,13.3-10.2,21.1-13.5,18.6-7.9,38.2-11.8,58.1-14.1a331.689,331.689,0,0,1,58.1-1.6c26.6,1.6,52.9,5.2,77.6,15.9a79.3,79.3,0,0,1,17.5,10.4c12.9,10.1,12.6,23.1-.3,33.3-8.5,6.8-18.3,11-28.5,14.4-20.8,6.8-42.3,10.1-64.1,11.3C320.4,438.8,313.3,439,306.1,439.3Zm31-29.7a1.38,1.38,0,0,0,.4.3c-.9,4.1-.8,8.3,3.1,10.7,6,3.7,10.7-.2,15.3-3.6,1.2,4.7,3.8,6.5,8.4,5.3a15.692,15.692,0,0,0,6.1-2.9c3.4-2.9,6.5-6.2,9.8-9.4.8-.8,1.9-1.9.4-2.8a3.1,3.1,0,0,0-3.1.2c-2.1,1.7-3.7,3.8-5.8,5.5a31.427,31.427,0,0,1-5.7,3.8,2.362,2.362,0,0,1-2.3-.4,3.771,3.771,0,0,1-.2-2.4,4.981,4.981,0,0,1,1-1.9l12.3-18.6c2.9-4.4,5.8-8.8,8.8-13.5-1.3-.2-2.2-.3-3.2-.5-3.5-.8-5.8.3-7.7,3.6-3,5.2-6.5,10-10.1,15.3-1.3-4.6-4.5-5.4-8.2-5.3-3.9.1-7.2,1.9-10.1,4.2-3.1,2.4-5.9,5.1-9.1,7.3a18.865,18.865,0,0,1-6.5,2.8c-1,.2-2.8-.9-3.5-2-1.1-1.8.5-5.5,2.5-6.8,0,2.3.9,4,3.3,4.5,2.3.4,3.9-.7,5.1-2.6a5.152,5.152,0,0,0-4.1-8,11.566,11.566,0,0,0-5.7,1.5c-1.6.8-2.9,2.3-4.3,3.4-.7-4.9-3.4-7-7.8-5.3-2.8,1.1-5.1,3.3-7.6,5.2a43.026,43.026,0,0,0-3.7,3.7,44.494,44.494,0,0,0-1.1-5.1c-.5-1.7-1.5-3.2-3.7-2.4-1.9.7-3,1.9-2.3,4.3,1.6,5.9-1.4,13.3-6.4,16.5-2.7,1.7-5.3,1.8-7.2.4-1.9-1.5-2.5-4-1.5-7,1.6-4.9,5.2-7.9,9.6-10.1,1.2-.6,3.6-.2,3.1-2.4-.5-2.5-2.7-2.1-4.5-1.9a15.535,15.535,0,0,0-2.3.5c-5.2,1.5-8.6,5.2-11.6,9.6-2.7,4-5.9,7.7-8.6,11.7-.5.7-.1,2.2-.1,3.3.9,0,2.1.3,2.8-.1,1.5-1.1,2.8-2.5,4.3-3.8,4.5,9,11.4,10.6,19.3,4.4a67.5,67.5,0,0,0,6.5-6.6c3.7-4,7.3-8.2,11.2-12,1.1-1.1,3.2-1.2,4.9-1.7-.4,1.7-.3,3.7-1.2,5.1-3,5-6.3,9.8-9.5,14.7-.6.9-1.1,1.9-1.9,3.3,2,0,3.4-.1,4.8,0,2.4.3,3.8-.5,5.1-2.7,2.6-4.4,5.5-8.5,8.4-13,1.6,6.5,5.2,8.4,10.7,5.8C334.7,411,335.9,410.3,337.1,409.6Zm-41.7-38.8c-.4-.6-.9-1.1-1.3-1.7,1.3.3,2.6.7,3.9,1,8.6,1.7,17.1,3.7,25.8,5a24.6,24.6,0,0,0,16.9-3.2,13.1,13.1,0,0,0,3.9-3.5c1.3-1.8.4-3.3-1.8-3.4a7.487,7.487,0,0,0-2.1.2c-10.9,2.6-21.8,2.1-32.7.7-11.7-1.5-23.3-3.1-35.1-4.1a37.242,37.242,0,0,0-23.2,5.2,15.819,15.819,0,0,0-7.2,8.5c-2.7,7.8,2.5,14.6,10.7,13.3,6.8-1.1,11.1-5.6,13.8-11.6.4-.8-.1-2.1-.2-3.1a18.275,18.275,0,0,0-2.8,1.4c-2.3,1.7-4.3,3.7-6.7,5.1a5.175,5.175,0,0,1-6.6-1.1c-1.2-1.6-.8-4.3,1-6.6a19.024,19.024,0,0,1,10.2-6.4c9.5-2.5,18.7-.2,28.3,1.8-.6.5-1,.7-1.3,1-4.6,4-9.7,7.6-13.6,12.1-2.9,3.3-5.8,5.5-10.2,5.9a20.837,20.837,0,0,0-6.8,2.6c-.7.4-.8,1.9-1.1,2.9a13.506,13.506,0,0,0,2.8-.4c2.5-.8,5-1.7,8.2-2.8-2.5,4.6-10.2,13.9-14.5,16.9a45.731,45.731,0,0,1-9.7,5.3c-3.9,1.5-8.7-.2-10.3-3.3-1.7-3-.3-7.2,3.2-10a28.323,28.323,0,0,0,2.8-2,17.029,17.029,0,0,0,1.8-2.6c-1.1-.5-2.1-1.3-3.2-1.3a8.017,8.017,0,0,0-4,1.1,17.227,17.227,0,0,0-7.8,8.4,13.066,13.066,0,0,0,3.3,15.5c5.5,4.9,13.7,5.7,20.6,2.1,6-3.1,10.4-7.9,14.3-13.3,3.6-5.1,7-10.4,10.7-15.5a5.543,5.543,0,0,1,3.4-1.9c2.8-.5,5.6-.7,8.4-1,1.6-.2,2.8-.1,4,1.3,1.1,1.4,2.6,2.1,4.8-.1-1.1-.6-2.1-1.1-2.8-1.5,1.7-1.8,3.6-3,4.3-4.7a6.244,6.244,0,0,0-.5-4.8c-.9-1.7-2.9-1.5-4.5-.8-3.2,1.4-4.2,4.1-4.2,7.6-3.1.3-6.1.6-9.6.9A42.925,42.925,0,0,1,292,372.1C292.8,371.3,294.2,371.1,295.4,370.8Z" fill="#204b98"/>
      <path id="Контур_212" data-name="Контур 212" d="M344,413.8c.2-6.6,6.9-14.6,12.6-15.8,2.4-.5,3.6.9,3.5,3.5-.2,6.9-4.6,11-9.8,14.3a5.887,5.887,0,0,1-4.7.3C344.8,415.9,344.3,414.2,344,413.8Z" fill="#214c99"/>
      <path id="Контур_213" data-name="Контур 213" d="M337.1,409.6a1.38,1.38,0,0,0,.3-.4,1.952,1.952,0,0,0,.1.7A1.38,1.38,0,0,0,337.1,409.6Z" fill="#204b98"/>
      <path id="Контур_214" data-name="Контур 214" d="M290.6,384.3a18.215,18.215,0,0,1,1.2-3.9,3.8,3.8,0,0,1,2.3-1.3c.2-.1,1.1.9,1,1.2a3.837,3.837,0,0,1-1.1,2.5C293.3,383.4,292.2,383.6,290.6,384.3Z" fill="#29539d"/>
    </g>
  </g>
</svg>
