<svg xmlns="http://www.w3.org/2000/svg" width="164.9" height="103.775" viewBox="0 0 164.9 103.775">
  <g id="Хонда" transform="translate(-222.9 -344.125)">
    <g id="Сгруппировать_6" data-name="Сгруппировать 6">
      <path id="Контур_215" data-name="Контур 215" d="M268.1,447.8c-.5-.2-1-.4-1.6-.7-1.9-.9-4-1.4-5.5-2.7-4.9-4.3-3.6-11.7,2.4-14.3a23.575,23.575,0,0,1,12.6-1.5,19.944,19.944,0,0,1,6.4,1.5,8.175,8.175,0,0,1,5.5,7.7c.2,3.7-1.7,6.4-4.9,8.1a37.342,37.342,0,0,1-5.6,2C274.2,447.8,271.2,447.8,268.1,447.8Zm11.5-10c0-3.9-2.6-6.2-6.9-6.2-4.2,0-6.7,2.4-6.8,6.3,0,4,2.4,6.4,6.4,6.4C277.2,444.4,279.6,442.2,279.6,437.8Z" fill="#df4b48"/>
      <path id="Контур_216" data-name="Контур 216" d="M387.8,447.1H372.2c0-.7-.1-1.3-.1-1.9.6-.1,1-.1,1.4-.2.8-.2,1.9-.3,1.7-1.5a2.058,2.058,0,0,0-2.2-2c-3.1.1-6.3.1-9.4,0a1.929,1.929,0,0,0-2.2,1.9c-.2,1.3,1,1.4,1.9,1.6.3.1.6.2,1,.3v1.8H352.9c0-.6-.1-1.1-.1-1.9,2.9.1,4.2-1.7,5.4-3.9s2.6-4.3,3.9-6.5c1.4-2.4,1-3.4-1.8-3.7a3.085,3.085,0,0,1-.9-.1v-2.1c3.9,0,7.7.1,11.5-.1a4.229,4.229,0,0,1,4.4,2.3c2.4,3.8,5.1,7.3,7.5,11,1.2,1.9,2.6,3,4.9,3A13.4,13.4,0,0,1,387.8,447.1Zm-23.7-8.7h8.2c-1.5-2.2-2.7-4.2-4.2-6.3C366.7,434.3,365.5,436.2,364.1,438.4Z" fill="#df4c4a"/>
      <path id="Контур_217" data-name="Контур 217" d="M303.4,425.2c-6.4-.2-12.7-.3-19.1-.8a70.823,70.823,0,0,1-12.9-2.1,15.064,15.064,0,0,1-11.8-11.9,141.815,141.815,0,0,1-3.3-18.2c-.7-8-.7-16.1-.7-24.2a38.551,38.551,0,0,1,1.1-8.3c1.4-6.3,5.2-10.7,11.6-12.2a111.771,111.771,0,0,1,15.2-2.4,247.129,247.129,0,0,1,37.5-.5,159.316,159.316,0,0,1,18.4,2.1c10,1.9,14.3,6.8,15.2,17a152.819,152.819,0,0,1,.4,17.9,116.923,116.923,0,0,1-2.9,25c-.3,1.1-.6,2.1-.8,3.2-1.8,7.5-6.8,11.7-14.1,13.1a134.617,134.617,0,0,1-15.7,1.8c-4.3.3-8.7.3-13,.4A5.726,5.726,0,0,0,303.4,425.2Zm45.5-42.7c.2-.5.6-.9.6-1.4V369.6c0-.5-.4-.9-.6-1.4-.1-1.5-.2-3-.4-4.4-1.3-8.7-4.8-11.3-10.4-12.2-1.4-.2-2.3.4-2.3,1.9-.1,3.2,0,6.5-.2,9.7-1,13.8-2.1,27.7-3.2,41.5-.3,4-.9,8.1-1.4,12.1-.1,1.2-.1,2.2,1.6,2.2,4.7,0,11.2-4.6,12.4-9.1a89.54,89.54,0,0,0,2.4-11.2C348.1,393.4,348.5,387.9,348.9,382.5Zm-87.2,0c.2,3.1.3,6.1.6,9.2.7,5.5,1.4,11.1,2.5,16.6,1.4,6.6,6.4,9.5,12.5,10.8,1.8.4,2.3-.2,2.2-2.1-.8-8-1.7-15.9-2.4-23.9-.8-9-1.5-18-2-27.1-.3-4.5-.2-9.1-.3-13.7,0-.9-.1-1.6-1.2-1.4-4.9,1.1-9.1,3.3-10.4,8.6-.7,2.8-1,5.8-1.5,8.7a6.72,6.72,0,0,0-.6,1.2v11.8A5.169,5.169,0,0,0,261.7,382.5Zm65.7-32.9a269.284,269.284,0,0,0-44,.1c.2.9.3,1.4.4,2,1.9,7.4,3.7,14.9,5.8,22.3a90.106,90.106,0,0,0,4.6,12.6,8.563,8.563,0,0,0,8.3,5.2h4.4c5.1.2,8.4-2.2,10.4-6.8a15.327,15.327,0,0,0,1.1-2.7l6.3-22.5C325.6,356.5,326.4,353.3,327.4,349.6Zm-7,70.4c-1.6-4.8-3-9.3-4.7-13.6a6,6,0,0,0-5.2-3.8c-3.1-.2-6.1-.3-9.2-.2-3.6.2-6,2.3-7.1,5.7-1.2,3.6-2.3,7.3-3.4,11a3.333,3.333,0,0,0,0,1C300.5,420,310.2,420,320.4,420Zm-18.9,4.9a1.237,1.237,0,0,1-.3-.2c-.1,0-.1.1-.2.2Z" fill="#2b2a29"/>
      <path id="Контур_218" data-name="Контур 218" d="M245.6,436.5a27.476,27.476,0,0,0,.2-4c0-.5-.9-1-1.4-1.3a11.211,11.211,0,0,0-2.1-.4c0-.5-.1-1.1-.1-1.8h14.5v1.7c-.1.1-.2.2-.3.2-3.9.5-3.3.2-3.3,3.7v7.6c0,2.3.1,2.3,2.4,2.6.4.1.8.1,1.3.2v1.9H242.4c-.2-1-.6-1.9,1-2.1,2.6-.3,2.5-.4,2.5-3v-2H234.2c-1,3.6-.5,4.4,3.4,5.3a12.133,12.133,0,0,0,.1,1.8H223c0-.5-.1-1.1-.1-1.7.2-.1.4-.3.5-.3,3.3-.5,3.3-.5,3.3-3.9v-7.3c0-2.5-.2-2.6-2.7-2.8-.3,0-.6-.1-1.1-.1v-1.9h14.6v1.7c-.1.1-.2.2-.3.2-3.3.3-3.3.3-3.3,3.8,0,.6.1,1.2.1,1.8.1.1.2.3.4.3h10.8C245.4,436.8,245.5,436.6,245.6,436.5Z" fill="#df4d4a"/>
      <path id="Контур_219" data-name="Контур 219" d="M317.5,447.1c-3,0-5.9.1-8.9,0a2.151,2.151,0,0,1-1.5-1c-2.8-3.6-5.6-7.2-8.3-10.8-.4-.5-.8-1-1.5-1.8-.1.8-.2,1.1-.2,1.5v5.9c0,3.4,0,3.4,3.4,4.2,0,.3.1.6.1.9s-.1.5-.1.9c-.3,0-.6.1-.8.1H289.6v-1.8c3.5-.9,3.5-.9,3.5-4.8v-5.1c0-3.4-.4-3.9-3.7-4.6v-1.9h12.9c.5,0,1,.6,1.4,1,3,3.8,5.9,7.6,8.9,11.4a2.92,2.92,0,0,0,1.3,1.1c0-3.2.1-6.4-.1-9.6-.1-1.9-1.9-1.8-3.4-2v-1.9h11.2v1.8c-1.6.1-3.3.4-3.7,2.4a10.1,10.1,0,0,0-.3,1.7C317.5,439,317.5,443,317.5,447.1Z" fill="#df4b48"/>
      <path id="Контур_220" data-name="Контур 220" d="M344.1,429.3c7.3.3,10.7,5.1,9.7,10.2-.7,3.7-3.7,6.7-8.4,7.1-7.2.5-14.5.5-21.9.6v-2.1c.4,0,.7-.1,1-.1,2.2-.3,2.5-.6,2.5-2.8,0-2.9-.1-5.7,0-8.6,0-1.5-.3-2.5-1.9-2.7a15.384,15.384,0,0,0-1.3-1.2,5.488,5.488,0,0,1,1.7-.5C331.8,429.3,337.9,429.3,344.1,429.3Zm-10.3,3v11.5c2.5,0,4.9.1,7.3,0,2.5-.1,4-1.6,4.4-4.1.7-4-1-7-4.4-7.3A59.011,59.011,0,0,0,333.8,432.3Z" fill="#df4b48"/>
      <path id="Контур_221" data-name="Контур 221" d="M344.1,429.3H325.6a5.488,5.488,0,0,0-1.7.5,15.384,15.384,0,0,0,1.3,1.2h-1.6v-1.9s.1-.2.2-.2H343C343.4,429,343.7,429.2,344.1,429.3Z" fill="#d04d4a"/>
      <path id="Контур_222" data-name="Контур 222" d="M317.5,447.1V434.9a10.107,10.107,0,0,1,.3-1.7V446C317.9,446.4,317.7,446.7,317.5,447.1Z" fill="#cb413e"/>
      <path id="Контур_223" data-name="Контур 223" d="M245.6,436.5c-.1.1-.2.3-.4.3H234.4c-.1,0-.2-.2-.4-.3Z" fill="#d63f3a"/>
      <path id="Контур_224" data-name="Контур 224" d="M303.4,425.2a6.151,6.151,0,0,1,5.3,0Z" fill="#1c1b18"/>
      <path id="Контур_225" data-name="Контур 225" d="M261.7,368.3v14.2c-.2-.4-.6-.8-.6-1.2V369.5A6.722,6.722,0,0,1,261.7,368.3Z" fill="#1e1d1b"/>
      <path id="Контур_226" data-name="Контур 226" d="M348.9,382.5V368.2a8.427,8.427,0,0,1,.6,1.4v11.5A3.506,3.506,0,0,1,348.9,382.5Z" fill="#1f1d1c"/>
      <path id="Контур_227" data-name="Контур 227" d="M301.5,424.9a.9.9,0,0,0-.5.1c.1-.1.1-.2.2-.2C301.3,424.7,301.4,424.8,301.5,424.9Z" fill="#1c1b18"/>
    </g>
  </g>
</svg>
