<svg xmlns="http://www.w3.org/2000/svg" width="201.1" height="94.8" viewBox="0 0 201.1 94.8">
  <g id="hyundai" transform="translate(-205.2 -348.6)">
    <g id="Сгруппировать_1" data-name="Сгруппировать 1">
      <path id="Контур_1" data-name="Контур 1" d="M315.4,348.6c2.5.4,4.9.8,7.4,1.2,9.9,1.5,19.5,4.2,28.2,9.4a30.63,30.63,0,0,1,9.8,8.8c4.2,6.1,4.2,12.9-.1,18.9-4.4,6.1-10.7,9.7-17.4,12.5-13.1,5.4-26.9,7.1-40.9,6.6-11.5-.4-22.8-2.3-33.5-6.7-5.9-2.5-11.4-5.6-15.7-10.5-6.2-7.1-6.3-15.6,0-22.7,5.7-6.4,13-10.2,21-12.4,6.9-1.9,14-3,21-4.5a7.837,7.837,0,0,0,1.4-.5h2.8a9.365,9.365,0,0,1,1.6.4h1.6c1.2-.1,2.4-.3,3.6-.4h.8c1.1.1,2.2.2,3.3.4.9-.1,1.8-.2,2.8-.4A16.954,16.954,0,0,1,315.4,348.6Zm-12.7,52.9c0-.2.1-.4.1-.6,1.6,0,3.3.3,4.8-.1a12.23,12.23,0,0,0,5.2-2.3,14.126,14.126,0,0,0,4.7-9.9c.4-4.2-.9-5.8-5.1-5.8a56.484,56.484,0,0,0-12.3,1.3c-7.2,1.5-14.1,3.9-20.1,8.3-1.2.8-1.8,2.3-2.7,3.5,1.2.7,2.3,1.4,3.5,2a6.687,6.687,0,0,0,1.9.5C289.4,399.5,296.1,400.5,302.7,401.5Zm6.5-47.4a49.033,49.033,0,0,0-5,.3c-1.2.1-2.8.2-3.6,1-3.5,3.2-6.2,7.1-6.5,12a4.039,4.039,0,0,0,3.1,4.6,15.629,15.629,0,0,0,5.7.6,72.191,72.191,0,0,0,25.3-7.7,28.42,28.42,0,0,0,5-3.2c2.2-1.7,2-2.7-.6-3.6C325.3,355.3,317.6,354.4,309.2,354.1Zm48.3,23.5c0-4.9-4.7-11.4-9.4-13.1-1.5-.5-2.2.3-2.8,1.5-4.3,7.5-8.6,15.1-13.1,22.5a76.249,76.249,0,0,1-4.8,6.4,16.269,16.269,0,0,0-1.1,2.3c.9.1,1.8.6,2.6.4,3.5-1,7.1-2,10.5-3.2,5.2-1.9,10.1-4.4,14-8.3C356,383.8,357.6,381.1,357.5,377.6Zm-71.2-20.2a9.363,9.363,0,0,0-3.3-.1,81.67,81.67,0,0,0-10,2.7c-5.7,2.2-11.2,4.8-15.3,9.6-2.4,2.8-3.8,6-2.9,9.8,1.3,4.9,4.6,8.2,8.8,10.7,1.5.9,2.8.3,3.5-1.5,2.7-7.3,6.9-13.7,11.2-20.1C280.6,364.8,283.3,361.4,286.3,357.4Z" fill="#03519f"/>
      <path id="Контур_2" data-name="Контур 2" d="M205.2,418.6H213v8.5h13.9v-8.3h7.6v23.9H227v-9.9H213v10h-7.8V442a8.33,8.33,0,0,0,.4-1.5V420.9a8.332,8.332,0,0,0-.4-1.5Z" fill="#0351a0"/>
      <path id="Контур_3" data-name="Контур 3" d="M205.2,419.4a8.33,8.33,0,0,1,.4,1.5v19.6a8.332,8.332,0,0,1-.4,1.5Z" fill="#0f59a4"/>
      <path id="Контур_4" data-name="Контур 4" d="M306.2,348.6c-1.2.1-2.4.3-3.6.4v-.4Z" fill="#1960a8"/>
      <path id="Контур_5" data-name="Контур 5" d="M310.3,349c-1.1-.1-2.2-.2-3.3-.4h3.2A.6.6,0,0,0,310.3,349Z" fill="#1960a8"/>
      <path id="Контур_6" data-name="Контур 6" d="M310.3,349v-.4h2.8C312.1,348.7,311.2,348.9,310.3,349Z" fill="#5389be"/>
      <path id="Контур_7" data-name="Контур 7" d="M300.9,349a9.365,9.365,0,0,1-1.6-.4h1.6Z" fill="#6695c4"/>
      <path id="Контур_8" data-name="Контур 8" d="M300.9,349v-.4h1.6v.4Z" fill="#3f7ab6"/>
      <path id="Контур_9" data-name="Контур 9" d="M397,442.7h-8.4v-6H373.9v5.9h-8.6c0-5.9-.2-11.7.1-17.5.2-3.4,3.7-6.5,7.1-6.6,8.2-.1,16.3,0,24.6,0C397,426.7,397,434.6,397,442.7ZM373.9,431h14.5v-5.8a1.69,1.69,0,0,0-.5-.2h-9c-5.3,0-5.5.2-5.2,5.5C373.8,430.6,373.8,430.7,373.9,431Z" fill="#02509f"/>
      <path id="Контур_10" data-name="Контур 10" d="M333.4,418.7c7.7,0,15.3-.1,22.9,0,3.5,0,7.9,3.2,7.4,7.8a82.231,82.231,0,0,0,0,8.6,7.4,7.4,0,0,1-7.7,7.7H333.4C333.4,434.8,333.4,426.8,333.4,418.7Zm7.9,18.8h11.6a2.87,2.87,0,0,0,3.1-3.2v-6.2c0-1.9-.9-3-2.7-3.1-4-.1-8,0-12.1,0C341.3,429.1,341.3,433.2,341.3,437.5Z" fill="#0451a0"/>
      <path id="Контур_11" data-name="Контур 11" d="M308.5,425v17.8h-8.4V418.7h25.4c3.3,0,5.4,1.7,5.5,4.9.2,6.3.1,12.7.1,19.2h-7.7v-12c0-1.1,0-2.1-.1-3.2a2.393,2.393,0,0,0-2.4-2.5C316.8,424.9,312.7,425,308.5,425Z" fill="#0552a0"/>
      <path id="Контур_12" data-name="Контур 12" d="M267.5,442.7v-24h7.6v18.5c4.4,0,8.7.2,12.9-.1,2.1-.1,2.6-2.1,2.6-3.9V418.7h7.7v18.5c0,3-2,5.4-5,5.4C284.7,442.8,276.2,442.7,267.5,442.7Z" fill="#0452a0"/>
      <path id="Контур_13" data-name="Контур 13" d="M255.3,442.7h-8.2c0-2.7-.1-5.3,0-7.9a4.509,4.509,0,0,0-1.3-3.6c-3.4-4-6.8-8.1-10.4-12.5,2.7,0,4.9-.1,7.2.1.5,0,1,.7,1.3,1.1,2.3,2.6,4.5,5.3,7,8.1,2.1-2.5,4.3-4.8,6.2-7.3a4.4,4.4,0,0,1,4.4-2c1.4.1,2.9,0,4.8,0-1.2,1.5-2.1,2.7-3,3.9a30.126,30.126,0,0,1-2.2,2.8C256.8,430.3,252.7,435.2,255.3,442.7Z" fill="#0451a0"/>
      <path id="Контур_14" data-name="Контур 14" d="M406.3,418.7v24.7h-7.5V418.7Z" fill="#014f9f"/>
    </g>
  </g>
</svg>
