<svg xmlns="http://www.w3.org/2000/svg" width="207.675" height="104.299" viewBox="0 0 207.675 104.299">
  <g id="КИА" transform="translate(-202.225 -343.3)">
    <g id="Сгруппировать_2" data-name="Сгруппировать 2">
      <path id="Контур_147" data-name="Контур 147" d="M409.9,397.8v2.1a6.72,6.72,0,0,0-.6,1.2,32.8,32.8,0,0,1-6.6,13.5,59.032,59.032,0,0,1-16.1,13.8c-12.3,7.5-25.7,12.1-39.8,15a199,199,0,0,1-64.4,2.8c-15.4-1.8-30.4-5.2-44.6-11.5-10.3-4.5-19.9-10.2-27.4-19-10.9-12.8-10.9-27.8,0-40.6,5.8-6.9,13.1-11.9,21-15.9,17.7-9,36.7-13.2,56.3-15.1,1.7-.2,3.3-.5,4.9-.8h3.3c.9.1,1.9.2,2.8.3h14.2c.9-.1,1.9-.2,2.8-.3h2.9a10.548,10.548,0,0,0,1.9.5c16.7,1.3,33,4.3,48.7,10.4,11,4.3,21.2,9.7,29.7,18.2a36.767,36.767,0,0,1,9.7,15.7c.3,1.2.7,2.3,1,3.5v1.7A22.7,22.7,0,0,1,409.9,397.8ZM306.3,350a.749.749,0,0,0-.1-.5c-9.4.9-18.8,1.5-28.1,2.8a116.9,116.9,0,0,0-39.4,12.4c-7.1,3.8-13.7,8.4-18.6,15-5.4,7.1-7.4,14.9-4.5,23.6,2.4,7.1,7.3,12.3,13.1,16.8,10.1,7.8,21.7,12.4,33.9,15.6,22.9,6.1,46,6.9,69.4,3.6,14.4-2,28.3-5.9,41.2-12.7,7.1-3.8,13.7-8.4,18.6-14.9,4.2-5.6,6.6-11.8,5.6-19-.9-6.6-4.2-11.9-8.7-16.6-6.6-6.8-14.7-11.5-23.4-15.1C346.6,353,326.7,350.2,306.3,350Z" fill="#c41532"/>
      <path id="Контур_148" data-name="Контур 148" d="M310.3,343.8h-8.4v-.4h8.3A.756.756,0,0,1,310.3,343.8Z" fill="#c82641"/>
      <path id="Контур_149" data-name="Контур 149" d="M409.9,397.8v0Z" fill="#ca2e48"/>
      <path id="Контур_150" data-name="Контур 150" d="M299,343.8c-.9-.1-1.9-.2-2.8-.3h2.9A.367.367,0,0,0,299,343.8Z" fill="#dc7586"/>
      <path id="Контур_151" data-name="Контур 151" d="M299,343.8a.367.367,0,0,1,.1-.3H302v.4C300.9,343.8,300,343.8,299,343.8Z" fill="#cf3f57"/>
      <path id="Контур_152" data-name="Контур 152" d="M310.3,343.8v-.4h2.9a.367.367,0,0,0,.1.3C312.2,343.8,311.3,343.8,310.3,343.8Z" fill="#cf3f57"/>
      <path id="Контур_153" data-name="Контур 153" d="M313.2,343.8a.367.367,0,0,0-.1-.3H316C315.1,343.6,314.2,343.7,313.2,343.8Z" fill="#dc7586"/>
      <path id="Контур_154" data-name="Контур 154" d="M256.8,387.7a13.021,13.021,0,0,0,1.5-1.8c3.5-4.9,7-9.8,10.4-14.7a4.457,4.457,0,0,1,4.1-2.2c3.7.1,7.5,0,11.2.1a2.61,2.61,0,0,1,1.8.6c.2.3-.2,1.3-.5,1.8-4.6,6.9-9.3,13.9-14,20.8a2.569,2.569,0,0,0,0,3.3c5.7,7.9,11.3,15.9,16.9,23.9a6.982,6.982,0,0,1,.8,2,9.016,9.016,0,0,1-2.2.6c-3.9.1-7.9,0-11.8.1a3.823,3.823,0,0,1-3.6-1.9c-4.3-6.2-8.7-12.3-13.1-18.4a10.7,10.7,0,0,0-1.4-1.6c-.2.1-.4.1-.6.2,0,.7-.1,1.4-.1,2.1v17c0,2.6,0,2.6-2.7,2.6-3,0-6.1-.1-9.1,0-2,.1-2.6-.6-2.6-2.6.1-14.7.1-29.3,0-44,0-3.2.7-2.9-2.9-3.5v-3h15.3c1.5,0,2.1.5,2.1,2.1-.1,4.8,0,9.5,0,14.3v2A1.689,1.689,0,0,1,256.8,387.7Z" fill="#c41432"/>
      <path id="Контур_155" data-name="Контур 155" d="M348.8,386.9a30.716,30.716,0,0,0-1.1,3.1c-3.1,9.7-6.2,19.5-9.2,29.2-.6,2-1.5,3-3.8,2.8-3.2-.2-6.4,0-9.5-.1-2.1,0-2.3-.3-1.6-2.3,5-14.9,9.9-29.7,14.9-44.6.9-2.7.9-2.7-2-3v-2.9a6.752,6.752,0,0,1,1.4-.2h17.4c1.4,0,2.3.4,2.7,1.9,5.4,16.2,10.8,32.5,16.3,48.7.7,2.1.5,2.4-1.7,2.4-3.4,0-6.8-.1-10.2,0a2.544,2.544,0,0,1-2.8-2.1c-3.2-10.1-6.5-20.2-9.8-30.4C349.6,388.9,349.3,388.2,348.8,386.9Z" fill="#c41331"/>
      <path id="Контур_156" data-name="Контур 156" d="M295.9,369c5.4,0,10.8,0,16.1.1.5,0,1.1.9,1.5,1.5.2.2,0,.7,0,1v47.7c0,2.7,0,2.7-2.6,2.7-3.2,0-6.5-.1-9.7,0-2,.1-2.5-.7-2.4-2.5.1-14.7,0-29.5.1-44.2,0-2.1-.1-3.6-2.8-3.2A15.148,15.148,0,0,1,295.9,369Z" fill="#c41633"/>
    </g>
  </g>
</svg>
