<svg xmlns="http://www.w3.org/2000/svg" width="149" height="104.933" viewBox="0 0 149 104.933">
  <g id="Лада" transform="translate(-210.2 -416.667)">
    <g id="Сгруппировать_3" data-name="Сгруппировать 3">
      <path id="Контур_157" data-name="Контур 157" d="M282.3,520.9c0-9.3,0-18.7-.1-28,0-3.5,0-6.9.1-10.4h18.1c.5,0,1-.2,1.6-.2,11.9.2,20.2,8.9,19.7,20.6a18.771,18.771,0,0,1-16,17.7,22.682,22.682,0,0,0-2.5.6h-2.4a7.974,7.974,0,0,0-1.5-.3ZM293,514c2.3,0,4.4.1,6.5,0,5.2-.3,8.7-3,9.9-8.1a25.02,25.02,0,0,0,.3-8.2c-.7-4.9-4.1-7.9-9-8.4-2-.2-4.1-.1-6.1-.2-1.2-.1-1.5.2-1.5,1.4.1,6.2,0,12.5,0,18.7C293,510.8,293,512.3,293,514Z" fill="#015aa0"/>
      <path id="Контур_158" data-name="Контур 158" d="M239.7,521.2a16.549,16.549,0,0,1,.6-2.1c4.5-11.9,8.9-23.7,13.4-35.6a1.557,1.557,0,0,1,1.8-1.2c3.2.1,6.4.1,9.7,0a1.235,1.235,0,0,1,1.4.9c4.6,12.1,9.2,24.2,13.8,36.4a4.145,4.145,0,0,1,.2,1.6h-11c-1-2.9-2-5.8-3-8.6a1.356,1.356,0,0,0-1.1-.6H252.9a1.356,1.356,0,0,0-1.1.6c-1.1,2.9-2,5.8-3,8.6Zm14.2-15.9h10.4c-1.7-4.8-3.4-9.4-5.2-14.4C257.3,495.8,255.6,500.5,253.9,505.3Z" fill="#025aa0"/>
      <path id="Контур_159" data-name="Контур 159" d="M344.2,482.5h0c.1.1,0,.1,0,.1.2.5.4,1.1.6,1.6h0c.2.6.5,1.2.7,1.7h0a1.445,1.445,0,0,1,.2.7h0a4.872,4.872,0,0,1,.3.7v.1c.1.3.2.5.3.8h0a3.553,3.553,0,0,0,.4.9h0c.1.3.3.6.4.9h0l.6,1.5h0a1.445,1.445,0,0,1,.2.7h0a3.553,3.553,0,0,0,.4.9h0c.1.3.3.6.4.9h0a1.445,1.445,0,0,1,.2.7h0l.9,2.4c2.4,6.2,4.7,12.3,7.1,18.5.7,1.9,1.6,3.8,2.3,5.7a2.118,2.118,0,0,1-.7.3H347.9c-1-2.7-2-5.4-2.9-8.1-.3-.9-.7-1.3-1.6-1.2q-6,.15-12,0a1.48,1.48,0,0,0-1.7,1.2c-.9,2.7-1.9,5.4-2.9,8.1h-8.6c-.1-.2-.2-.5-.1-.6,1.4-3.7,2.8-7.3,4.2-11a4.872,4.872,0,0,0,.3-.7h0c.2-.6.5-1.2.7-1.8h0l1.5-3.9h0a3.553,3.553,0,0,1,.4-.9h0a4.872,4.872,0,0,0,.3-.7h0a3.553,3.553,0,0,1,.4-.9h0l.3-.9h0a1.445,1.445,0,0,0,.2-.7h0l.9-2.4h0a3.553,3.553,0,0,1,.4-.9h0c.4-1,.8-2,1.1-3h0a3.553,3.553,0,0,1,.4-.9h0a3.553,3.553,0,0,1,.4-.9h0a1.445,1.445,0,0,0,.2-.7h0a3.553,3.553,0,0,1,.4-.9h0a3.553,3.553,0,0,1,.4-.9h0a1.445,1.445,0,0,0,.2-.7h0a3.553,3.553,0,0,1,.4-.9h0a3.553,3.553,0,0,1,.4-.9h0a1.445,1.445,0,0,0,.2-.7h0c.2-.6.5-1.2.7-1.8h0a1.445,1.445,0,0,0,.2-.7h0a3.553,3.553,0,0,1,.4-.9h0a12.232,12.232,0,0,1,1.7-.3A66.679,66.679,0,0,0,344.2,482.5Zm-7,8.3c-1.8,5-3.5,9.7-5.2,14.4h10.4C340.7,500.5,339,495.9,337.2,490.8Z" fill="#025aa0"/>
      <path id="Контур_160" data-name="Контур 160" d="M210.2,521.2v-39h10.9V514h16.4c.9,0,1.3.3,1.2,1.2-.1,1.9-.1,3.8-.1,5.6H212.3a10.107,10.107,0,0,0-1.7.3C210.6,521.2,210.4,521.2,210.2,521.2Z" fill="#035ba1"/>
      <path id="Контур_161" data-name="Контур 161" d="M210.8,521.2a10.107,10.107,0,0,1,1.7-.3h26.3v.3Z" fill="#296b9d"/>
      <path id="Контур_162" data-name="Контур 162" d="M282.3,520.9h16.9a7.974,7.974,0,0,1,1.5.3H282.2A.367.367,0,0,0,282.3,520.9Z" fill="#5086ae"/>
      <path id="Контур_163" data-name="Контур 163" d="M282.2,469.2c-14.5-.4-28.8-2-42.6-6.6-6-2-11.7-4.6-16.6-8.7a20.573,20.573,0,0,1-2.9-3c-4.4-5.4-4.3-11.3.3-16.6,4-4.5,9.2-7.3,14.7-9.6,9.8-4.1,20.2-6.1,30.7-7.2a160.427,160.427,0,0,1,29.4-.3c12.9,1.1,25.5,3.4,37.4,9a32.981,32.981,0,0,1,11.4,8.1c4.6,5.3,4.7,11.2.2,16.6-3.7,4.5-8.7,7.2-14,9.5a96.439,96.439,0,0,1-27.8,7.1C295.7,468.3,288.9,468.6,282.2,469.2Zm-6.6-50.1c-.4,0-.7-.1-.9-.1-11.3.6-22.5,2.3-33.1,6.4-5.4,2.1-10.6,4.7-14.7,9.1-4.8,5.2-4.9,11.2-.1,16.5,3.8,4.2,8.7,6.8,13.9,8.9,11.7,4.7,24,6.4,36.5,6.9,14.1.5,27.9-.8,41.4-5.1,6.2-2,12.1-4.5,17-8.8,2.9-2.6,5.3-5.6,5.3-9.7.1-4.7-2.5-7.9-5.8-10.7-4.5-3.8-9.7-6.1-15.2-7.9-12.5-4.2-25.5-5.6-38.7-5.6-2.5,0-2.4,0-2.9,2.4a1.667,1.667,0,0,0,.9,2.1,6.227,6.227,0,0,1,2.8,5.1,18.279,18.279,0,0,1-2.7,10.1,32.01,32.01,0,0,1-9.2,10.3C272.1,438.7,273.8,428.9,275.6,419.1Z" fill="#065ba0"/>
      <path id="Контур_164" data-name="Контур 164" d="M344.2,482.5H334a8.587,8.587,0,0,0-1.7.3c.3-.2.6-.7.9-.7h10.5C343.8,482,344,482.3,344.2,482.5Z" fill="#065098"/>
      <path id="Контур_165" data-name="Контур 165" d="M301.9,482.2a7.772,7.772,0,0,1-1.6.2H282.2c.2-.1.4-.4.6-.4C289.3,482.1,295.6,482.2,301.9,482.2Z" fill="#004b95"/>
      <path id="Контур_166" data-name="Контур 166" d="M324.5,503.2l-1.5,3.9Z" fill="#065098"/>
      <path id="Контур_167" data-name="Контур 167" d="M328.3,493.1c-.4,1-.8,2-1.1,3C327.6,495.1,327.9,494.1,328.3,493.1Z" fill="#065098"/>
      <path id="Контур_168" data-name="Контур 168" d="M326.9,497l-.9,2.4A23.41,23.41,0,0,1,326.9,497Z" fill="#065098"/>
      <path id="Контур_169" data-name="Контур 169" d="M349.6,496.7l-.9-2.4Z" fill="#065098"/>
      <path id="Контур_170" data-name="Контур 170" d="M323,507.1c-.2.6-.5,1.2-.7,1.8A13.354,13.354,0,0,0,323,507.1Z" fill="#065098"/>
      <path id="Контур_171" data-name="Контур 171" d="M331.7,484.2c-.2.6-.5,1.2-.7,1.8A13.353,13.353,0,0,1,331.7,484.2Z" fill="#065098"/>
      <path id="Контур_172" data-name="Контур 172" d="M345.6,485.9c-.2-.6-.5-1.2-.7-1.7A8.65,8.65,0,0,0,345.6,485.9Z" fill="#065098"/>
      <path id="Контур_173" data-name="Контур 173" d="M347.6,491.3l-.6-1.5Z" fill="#065098"/>
      <path id="Контур_174" data-name="Контур 174" d="M344.9,484.2c-.2-.5-.4-1.1-.6-1.6C344.5,483.1,344.7,483.7,344.9,484.2Z" fill="#065098"/>
      <path id="Контур_175" data-name="Контур 175" d="M329.6,489.8a3.553,3.553,0,0,1-.4.9A3.551,3.551,0,0,1,329.6,489.8Z" fill="#065098"/>
      <path id="Контур_176" data-name="Контур 176" d="M330.5,487.4a3.553,3.553,0,0,1-.4.9A3.552,3.552,0,0,1,330.5,487.4Z" fill="#065098"/>
      <path id="Контур_177" data-name="Контур 177" d="M348.5,493.7c-.1-.3-.3-.6-.4-.9A3.552,3.552,0,0,1,348.5,493.7Z" fill="#065098"/>
      <path id="Контур_178" data-name="Контур 178" d="M330.8,486.6a3.553,3.553,0,0,1-.4.9C330.5,487.2,330.7,486.9,330.8,486.6Z" fill="#065098"/>
      <path id="Контур_179" data-name="Контур 179" d="M347,489.8c-.1-.3-.3-.6-.4-.9A3.553,3.553,0,0,1,347,489.8Z" fill="#065098"/>
      <path id="Контур_180" data-name="Контур 180" d="M329.9,489a3.553,3.553,0,0,1-.4.9C329.6,489.6,329.8,489.3,329.9,489Z" fill="#065098"/>
      <path id="Контур_181" data-name="Контур 181" d="M329,491.3a3.553,3.553,0,0,1-.4.9C328.7,491.9,328.9,491.6,329,491.3Z" fill="#065098"/>
      <path id="Контур_182" data-name="Контур 182" d="M348.2,492.8a3.553,3.553,0,0,0-.4-.9A1.884,1.884,0,0,0,348.2,492.8Z" fill="#065098"/>
      <path id="Контур_183" data-name="Контур 183" d="M328.7,492.2a3.553,3.553,0,0,1-.4.9A3.55,3.55,0,0,1,328.7,492.2Z" fill="#065098"/>
      <path id="Контур_184" data-name="Контур 184" d="M332.3,482.7a3.553,3.553,0,0,1-.4.9A3.552,3.552,0,0,1,332.3,482.7Z" fill="#065098"/>
      <path id="Контур_185" data-name="Контур 185" d="M327.2,496.1a3.553,3.553,0,0,1-.4.9A3.553,3.553,0,0,0,327.2,496.1Z" fill="#065098"/>
      <path id="Контур_186" data-name="Контур 186" d="M325.7,500l-.3.9Z" fill="#065098"/>
      <path id="Контур_187" data-name="Контур 187" d="M325.4,500.9a3.553,3.553,0,0,1-.4.9A3.551,3.551,0,0,0,325.4,500.9Z" fill="#065098"/>
      <path id="Контур_188" data-name="Контур 188" d="M324.8,502.4a3.553,3.553,0,0,1-.4.9A3.55,3.55,0,0,0,324.8,502.4Z" fill="#065098"/>
      <path id="Контур_189" data-name="Контур 189" d="M346.7,489a3.553,3.553,0,0,0-.4-.9C346.4,488.4,346.6,488.7,346.7,489Z" fill="#065098"/>
      <path id="Контур_190" data-name="Контур 190" d="M331.9,483.6a1.445,1.445,0,0,0-.2.7A1.446,1.446,0,0,1,331.9,483.6Z" fill="#065098"/>
      <path id="Контур_191" data-name="Контур 191" d="M331,485.9a1.445,1.445,0,0,0-.2.7A2.544,2.544,0,0,1,331,485.9Z" fill="#065098"/>
      <path id="Контур_192" data-name="Контур 192" d="M345.8,486.6a1.445,1.445,0,0,1-.2-.7A1.446,1.446,0,0,0,345.8,486.6Z" fill="#065098"/>
      <path id="Контур_193" data-name="Контур 193" d="M325.1,501.7a4.872,4.872,0,0,0-.3.7C324.9,502.2,325,501.9,325.1,501.7Z" fill="#065098"/>
      <path id="Контур_194" data-name="Контур 194" d="M347.8,492a1.445,1.445,0,0,1-.2-.7A6.361,6.361,0,0,1,347.8,492Z" fill="#065098"/>
      <path id="Контур_195" data-name="Контур 195" d="M346.3,488.1c-.1-.3-.2-.5-.3-.8C346.1,487.6,346.2,487.8,346.3,488.1Z" fill="#065098"/>
      <path id="Контур_196" data-name="Контур 196" d="M346,487.2a4.872,4.872,0,0,1-.3-.7A4.873,4.873,0,0,0,346,487.2Z" fill="#065098"/>
      <path id="Контур_197" data-name="Контур 197" d="M322.4,508.9a4.872,4.872,0,0,0-.3.7A4.875,4.875,0,0,1,322.4,508.9Z" fill="#065098"/>
      <path id="Контур_198" data-name="Контур 198" d="M330.1,488.3a1.445,1.445,0,0,0-.2.7A1.854,1.854,0,0,1,330.1,488.3Z" fill="#065098"/>
      <path id="Контур_199" data-name="Контур 199" d="M326,499.3a1.445,1.445,0,0,0-.2.7A2.544,2.544,0,0,1,326,499.3Z" fill="#065098"/>
      <path id="Контур_200" data-name="Контур 200" d="M348.7,494.3a1.445,1.445,0,0,1-.2-.7A6.371,6.371,0,0,0,348.7,494.3Z" fill="#065098"/>
      <path id="Контур_201" data-name="Контур 201" d="M329.2,490.7a1.445,1.445,0,0,0-.2.7A6.371,6.371,0,0,1,329.2,490.7Z" fill="#065098"/>
      <path id="Контур_202" data-name="Контур 202" d="M271.6,422.6c-.7,4.1-1.4,8-2.1,12-.9,5-1.8,9.9-2.7,14.9a3.314,3.314,0,0,0,3.6,4.2,29.1,29.1,0,0,0,12.2-3.5,33.362,33.362,0,0,0,4-2.5,1.035,1.035,0,0,1,1.6.1c2,1.8,2,4-.2,5.6-2.8,2.1-6.2,2.8-9.6,3.3a35.121,35.121,0,0,1-15.8-1.3c-.1.2-.2.2-.3.3-.7,2.3-.7,2.5,1.7,2.9,7.9,1.5,15.9,2.4,23.9,1.2a35.267,35.267,0,0,0,7.6-2.4,7.509,7.509,0,0,0,2.5-2.2,2.557,2.557,0,0,0-.5-3.6c-.9-.9-2.1-1.4-3.1-2.3a12.379,12.379,0,0,1-1.4-1.8,19.479,19.479,0,0,1,2.3-.6,3.178,3.178,0,0,1,1.4.2c.3-2,.1-2.2-1.7-2.4-1.4-.2-2.7-.3-4.4-.5,5.3-6.2,8.7-12.8,5.4-21.2,10.5,1.5,20.6,3.6,29.4,9.6a20.1,20.1,0,0,1,4.7,4.5c2.8,3.6,2.7,7.7.1,11.4s-6.3,5.9-10.3,7.8c-7.1,3.4-14.8,5.1-22.5,6.1a113.893,113.893,0,0,1-39.9-1.7,52.279,52.279,0,0,1-16.6-6.3,28.566,28.566,0,0,1-6.7-5.8c-3-3.6-2.8-8,0-11.8a23.975,23.975,0,0,1,9.1-7c7.3-3.7,15.1-5.5,23.2-6.6Q268.9,422.9,271.6,422.6Z" fill="#025aa0"/>
    </g>
  </g>
</svg>
