<svg xmlns="http://www.w3.org/2000/svg" width="235.1" height="105.361" viewBox="0 0 235.1 105.361">
  <g id="лексус" transform="translate(-188.1 -343.639)">
    <g id="Сгруппировать_10" data-name="Сгруппировать 10">
      <path id="Контур_265" data-name="Контур 265" d="M200.7,448.9c-1.3-.4-2.6-.9-3.9-1.3-6.1-1.9-8.7-5.4-8.7-11.7V420.2a3.934,3.934,0,0,1,.2-.6h10.1v14.8c0,6.3,2.1,8.4,8.5,8.4h20.2a2.648,2.648,0,0,0,2.5-1.5c1.4-2.4,3.2-4.5,4.9-6.9h-6.6a28.5,28.5,0,0,1,1.6-4.2c3.7-6.3,9-10.4,16.4-10.5,13.9-.2,27.9-.1,41.8-.1a4.911,4.911,0,0,1,2.5,1c3.6,2.5,7.1,5.1,10.6,7.8a2.149,2.149,0,0,0,2.9.1c4.2-2.7,8.4-5.4,12.7-8.1a3.717,3.717,0,0,1,1.9-.9c5.6-.1,11.2,0,17.1,0v14.2c0,8.4.9,9.3,9.3,9.3h16.4V419.7h10.6V443h34.7c.8,0,2,.1,2.5-.3.9-.9,2.1-2.1,2-3.2,0-.9-1.5-1.9-2.5-2.6-.5-.3-1.4-.1-2.1-.1-9.7,0-19.4,0-29.1.2-2.3,0-2.8-.8-2.5-2.9.8-7.2,7.3-14.1,14.6-14.3,10.1-.4,20.2-.1,30.4-.1v5.6H393.5c-3.6,0-6,2.3-6.4,6h9.8c4.9,0,9.7.2,14.6-.1,5.7-.3,9.6,1.8,11.7,7.2v3.8a12.062,12.062,0,0,1-8,6.6H403.9a5.488,5.488,0,0,0-1.7-.5H338.5a10.461,10.461,0,0,0-1.7.4H334a1.794,1.794,0,0,0-.7-.5c-7.4-2.4-8.4-3.8-8.4-11.6V422c-6,3.8-11.6,7.4-17.4,11.1,4,3,7.7,5.8,11.4,8.6,2.9,2.2,5.7,4.5,8.6,6.8-5,0-10.1,0-15.1-.1-4-2.8-8-5.7-12-8.6a2.26,2.26,0,0,0-2.9-.2c-4.6,3-9.2,5.8-13.8,8.7H204.1a20.687,20.687,0,0,0-2.2.4A3.226,3.226,0,0,1,200.7,448.9Zm74.6-23.4H248.7c-3.4,0-5.9,2.2-6,5.3h30.2v5.9H249.5c-3.6,0-6.1,2.2-6.8,5.8a1.421,1.421,0,0,0,.6.2h36.6a3.749,3.749,0,0,0,1.1-.1c4-2.4,7.9-4.9,12.1-7.5-6.1-4.3-11.8-8.5-17.8-12.7A16.056,16.056,0,0,1,275.3,425.5Z" fill="#de4e4b"/>
      <path id="Контур_266" data-name="Контур 266" d="M283.4,448.4v.5H201.6a7.8,7.8,0,0,1,2.2-.4Q243.7,448.35,283.4,448.4Z" fill="#e49694"/>
      <path id="Контур_267" data-name="Контур 267" d="M378.9,448.5c7.7,0,15.5-.1,23.2,0a5.488,5.488,0,0,1,1.7.5H378.9C378.9,448.7,378.9,448.6,378.9,448.5Z" fill="#e59796"/>
      <path id="Контур_268" data-name="Контур 268" d="M336.5,448.9a5.256,5.256,0,0,1,1.7-.4h14.7v.4Z" fill="#db716f"/>
      <path id="Контур_269" data-name="Контур 269" d="M312.1,448.9v-.4c5,0,10.1,0,15.1.1a.6.6,0,0,1-.1.4C322.1,448.9,317.1,448.9,312.1,448.9Z" fill="#efc2c1"/>
      <path id="Контур_270" data-name="Контур 270" d="M353,448.9v-.4h13.6v.4Z" fill="#de7e7c"/>
      <path id="Контур_271" data-name="Контур 271" d="M366.6,448.9v-.4h12.2v.4Z" fill="#e28b89"/>
      <path id="Контур_272" data-name="Контур 272" d="M325.3,349.8c.7-1,1.3-1.9,1.9-2.6,14.5,4.2,25.2,17.2,24.4,31.3a29.069,29.069,0,0,1-4.6,13.9,4.251,4.251,0,0,1-3.9,2.1c-15.6,0-31.2,0-46.8-.1a19.559,19.559,0,0,1-6.8-1.3c-4.3-1.7-6.1-5.3-4.8-9.7a27.493,27.493,0,0,1,3.8-7.9c6-8.5,12.2-16.8,18.3-25.3a8.488,8.488,0,0,0,.9-2.2,10.547,10.547,0,0,0-2.4-.6c-8.7.3-17,2-24.3,6.8-8.8,5.8-14.5,13.7-13.7,24.8s6.9,19,17,23.1c15.7,6.4,31.4,5.9,46.8-1.6a8.259,8.259,0,0,0,2.2-1.4c2.7-3.2,6.2-2.4,10.1-2.4a36.242,36.242,0,0,1-16.1,10.2c-15.3,4.8-30.7,4.9-45.8-.9-10.8-4.2-18.5-11.7-20.7-23.6-2.3-12,3.2-23.8,14.2-30.9,10.9-7,23.1-8.4,35.6-7.7a98.309,98.309,0,0,1,10.7,1.5c2.9.6,3.3,1.9,1.5,4.2-7.7,9.8-15.5,19.4-21.8,30.2a30.712,30.712,0,0,0-1.7,3.1c-1,2.3.1,3.9,2.5,3.9,12.9,0,25.8,0,38.8-.1a3.074,3.074,0,0,0,2.3-1.7c3.7-8.7,2.1-16.9-3.2-24.4C336.2,355.7,330.9,352.6,325.3,349.8Z" fill="#262324"/>
    </g>
  </g>
</svg>
