<svg xmlns="http://www.w3.org/2000/svg" width="95.164" height="101.031" viewBox="0 0 95.164 101.031">
  <g id="мазда" transform="translate(-257.373 -345.769)">
    <g id="Сгруппировать_11" data-name="Сгруппировать 11">
      <path id="Контур_273" data-name="Контур 273" d="M264.7,446.6v-14h16c3.1,0,4.9,1.8,4.9,4.9V440h.2c1.5-2.2,3.7-2.4,6-2.3a20.851,20.851,0,0,0,2.5,0c.5,0,1.2.1,1.3-.7,0-.8-.7-.7-1.2-.7h-7.8v-3.7h9a4.542,4.542,0,0,1,4.7,4.8v5.5c1-.8,1.7-1.3,2.5-1.9l9.9-7.8a2.106,2.106,0,0,1,1.3-.5h11.8a4.59,4.59,0,0,1,4.8,4.4,17.851,17.851,0,0,1,.2,2.3c.1,0,.1.1.2,0,1.7-2,4.1-1.8,6.4-1.8a8.552,8.552,0,0,0,1.6,0,2.407,2.407,0,0,0,.8-.6c-.3-.3-.5-.7-.8-.7a24.317,24.317,0,0,0-2.7,0h-4.8v-3.6h6.6c1,0,2.1,0,3.1.1a4.022,4.022,0,0,1,3.8,3.9c.1,3.2,0,6.5,0,9.7H334.3a4.59,4.59,0,0,1-3.9-3.2,4.492,4.492,0,0,1-3.7,3.2H315.6V436.1c-.5.4-.8.6-1,.8-4.1,3.2-8.1,6.4-12.2,9.6H289.2a4.755,4.755,0,0,1-3.3-2.3c-.2,1-.3,1.7-.4,2.5H281v-8.3c0-.8-.2-1.4-1-1.5a20.832,20.832,0,0,0-2.5,0v8.8a4.253,4.253,0,0,1-.2,1.1H273V437h-3.7v8.6a5.019,5.019,0,0,1-.2,1.2A33.141,33.141,0,0,0,264.7,446.6Zm55.3-9.9v5.2c0,.2.3.6.5.6h3.7a1.342,1.342,0,0,0,1.5-1.4,18.186,18.186,0,0,0,0-3.3,1.981,1.981,0,0,0-1.1-1.1C323.1,436.6,321.6,436.7,320,436.7Zm-24.3,4.1c-1.6,0-3.1-.1-4.6,0-.3,0-.8.6-.9.9,0,.3.5,1,.7,1,1.6.1,3.1,0,4.7,0A11.485,11.485,0,0,0,295.7,440.8Zm44.6,0c-1.5,0-3-.1-4.5,0-.3,0-.8.6-.9,1a1.182,1.182,0,0,0,.9.9c1.5.1,2.9,0,4.5,0Z" fill="#028dcd"/>
      <path id="Контур_274" data-name="Контур 274" d="M285.3,446.6c.1-.8.2-1.5.4-2.5a4.561,4.561,0,0,0,3.3,2.3v.2Z" fill="#eef7fb"/>
      <path id="Контур_275" data-name="Контур 275" d="M289,446.6v-.2h13.2v.2Z" fill="#c0e2f1"/>
      <path id="Контур_276" data-name="Контур 276" d="M326.6,446.4v.2H315.5v-.2Z" fill="#bfe1f1"/>
      <path id="Контур_277" data-name="Контур 277" d="M334.2,446.6v-.2h10.7v.2Z" fill="#bde0f0"/>
      <path id="Контур_278" data-name="Контур 278" d="M304.8,446.6v-.2h9.5v.2Z" fill="#bddff0"/>
      <path id="Контур_279" data-name="Контур 279" d="M345.1,359a39.578,39.578,0,0,1,6.1,13.6,43.45,43.45,0,0,1,1.2,13.9,41.4,41.4,0,0,1-5.8,18.8c-4.1,6.8-10.4,10.6-17.8,12.8a71.175,71.175,0,0,1-17.7,2.9,115.873,115.873,0,0,1-11.8.1,72.479,72.479,0,0,1-20.6-3.6,29.567,29.567,0,0,1-12.5-8,31.07,31.07,0,0,1-5.9-10.3,46.678,46.678,0,0,1-2.9-14.3,41.568,41.568,0,0,1,7.2-25.6c.1-.1.2-.3.3-.4.1.1.2.1.3.2,3.9,4.5,9.1,7.2,14.5,9.5,3.6,1.5,7.2,2.7,10.7,4.3A28.564,28.564,0,0,1,304,386.1c.3.5.6,1.1,1,1.8a5.423,5.423,0,0,1,.6-1.1c2.9-5.8,6.8-10.6,12.6-13.5,3.4-1.7,7-3.1,10.6-4.5a46.867,46.867,0,0,0,13-7.5c.9-.8,1.7-1.6,2.6-2.4-.4,2.5-.8,5-1.1,7.5a2.264,2.264,0,0,1-1.1,1.7,48.666,48.666,0,0,1-13.5,6.7,57.427,57.427,0,0,0-10.6,4.3A31.843,31.843,0,0,0,306,392.2a10.932,10.932,0,0,1-.8,1.5.31.31,0,0,1-.1.2c-.3-.6-.6-1.2-.9-1.7a31.864,31.864,0,0,0-19.7-16,68.764,68.764,0,0,1-12.4-4.7,50.41,50.41,0,0,1-4.9-3.1,1.64,1.64,0,0,1-.7-1.2c-.6-2-1.1-4-1.7-6.4q-.75,1.05-1.2,1.8a43.5,43.5,0,0,0-5.1,16.5c-.5,4.5-.3,8.8,1.7,12.9a14.784,14.784,0,0,0,5,5.8,1.765,1.765,0,0,1,.8.9,26.438,26.438,0,0,0,16.7,16.4,59.36,59.36,0,0,0,16.6,3.1,72.976,72.976,0,0,0,24.2-2.2c5-1.4,9.7-3.4,13.6-7,4.2-3.8,6.5-8.7,8-14a42.032,42.032,0,0,0-.7-25.3,7.716,7.716,0,0,1-.4-3.7A68.562,68.562,0,0,0,345.1,359Zm-31.5,22.3c.1-.1.2-.1.3-.2a35.356,35.356,0,0,1,11.2-5.9,78.53,78.53,0,0,0,13.1-5.4c3.2-1.8,3.2-1.8,4.1-5.4.1-.3.1-.6.2-.8.1-.6.3-1.2.4-1.8a.349.349,0,0,1-.2-.1l-1.8,1.5a48.073,48.073,0,0,1-11.1,6.1c-3.1,1.4-6.2,2.6-9.2,4.2a15.652,15.652,0,0,0-7.2,7.6v.2Zm-20.4-2.2.2-.2c-.2-.4-.3-.7-.5-1.1a14.128,14.128,0,0,0-6.5-5.6c-3.2-1.4-6.4-2.7-9.6-4.1-4-1.8-7.8-3.9-10.8-7.1a2.185,2.185,0,0,0-.5-.3,12.7,12.7,0,0,0,2.4,6,16.994,16.994,0,0,0,6.8,5.1C280.6,374.7,287.4,375.7,293.2,379.1Zm20.3-1.3c-2.1.9-3.1,3.5-2.9,6.4a7.166,7.166,0,0,0,1.1-1.5c.5-1.2.8-2.5,1.3-3.7A10.414,10.414,0,0,1,313.5,377.8Z" fill="#30302e"/>
      <path id="Контур_280" data-name="Контур 280" d="M266,369.5c1.1,2.3,2.1,4.5,3.2,6.8.1,0,.2-.1.3-.1-.7-2.1-1.5-4.3-2.3-6.6,1.1.7,2.1,1.4,3.2,2a61.679,61.679,0,0,0,11.6,4.8c3.7,1.2,7.5,2.4,10.8,4.5,5.1,3.2,8.7,7.9,11.5,13.1.2.4.4.8.8,1.5l.7-1.4c3.4-7.1,8.5-12.6,15.9-15.8,2.6-1.1,5.4-1.9,8-2.9a50.237,50.237,0,0,0,12.1-5.9c.1-.1.3-.1.6-.3-.6,2-1.2,3.8-1.8,5.6.1.1.3.1.4.2.8-1.7,1.5-3.4,2.3-5.2h.3c.4,1.4.8,2.8,1.1,4.2,1.4,6.9,1.6,13.7-.5,20.5a16.35,16.35,0,0,1-5.3,7.9,2.651,2.651,0,0,1-.6.5,10.408,10.408,0,0,0-4.2,3.6c-3.4,3.9-7.8,5.9-12.6,7.2a63.87,63.87,0,0,1-20.9,2.1,50.5,50.5,0,0,1-14.9-2.9c-3.6-1.4-7-3.1-9.6-6.1a12.187,12.187,0,0,0-3.9-3.2c-3.5-1.7-5.5-4.9-6.8-8.5a35.527,35.527,0,0,1-1.7-14.5,39.117,39.117,0,0,1,1.9-10.2c.1-.2.2-.5.3-.7C265.8,369.6,265.9,369.6,266,369.5Zm39.1,30.8a1.69,1.69,0,0,1-.2-.5c-3.9-8.9-10.3-15-19.8-17.7-4.1-1.2-8.1-2.5-12.1-3.8-1.1-.4-2.2-.9-3.4-1.4-.1.9-.2,1.6-.3,2.4A40.945,40.945,0,0,0,271,396c2.7,8.4,7.9,14.4,16.6,16.8a62.475,62.475,0,0,0,34.3,0,23.392,23.392,0,0,0,16.4-14.9,42.612,42.612,0,0,0,2.4-18.7c-.1-.9-.2-1.8-.4-2.8-1.2.5-2.1,1-3.2,1.4-4.4,1.5-8.9,3-13.4,4.5A27.9,27.9,0,0,0,307.3,396C306.6,397.4,305.9,398.8,305.1,400.3Z" fill="#2f2f2d"/>
      <path id="Контур_281" data-name="Контур 281" d="M273.6,365c-2.9-2-5.8-3.9-8.1-6.6a24.884,24.884,0,0,1,8-6.4,54.115,54.115,0,0,1,18.8-5.4,103.183,103.183,0,0,1,28.3.3c6.9,1,13.6,2.9,19.3,7.2,1.5,1.1,2.8,2.4,4.3,3.7a34.035,34.035,0,0,1-8,6.8c-.8-1-1.5-2.1-2.4-3.1-3.3-4-7.8-6.1-12.7-7.5a59.848,59.848,0,0,0-20.6-1.8,48.2,48.2,0,0,0-16.3,3.6,20.1,20.1,0,0,0-10,8.4C274.1,364.3,273.9,364.6,273.6,365Zm-7.2-6.5a5.733,5.733,0,0,0,.7.4,29.171,29.171,0,0,0,3.1,1.4c.2.1.6-.1.8-.3,4-4.7,9.3-7.2,15.1-8.9a78.558,78.558,0,0,1,38.2,0c5.5,1.6,10.4,4.1,14.3,8.4.1.2.5.3.6.3,1.3-.6,2.5-1.2,3.9-1.9-.4-.4-.6-.7-.9-1a31.775,31.775,0,0,0-14.8-8.1c-13.2-3.3-26.6-3.3-40-1a40.42,40.42,0,0,0-15.4,5.7A29.132,29.132,0,0,0,266.4,358.5Z" fill="#31312f"/>
      <path id="Контур_282" data-name="Контур 282" d="M301.2,436.5v-3.4a.642.642,0,0,1,.5-.5c3,0,5.9,0,9,.2-1.5,1.2-2.9,2.4-4.4,3.6-.1.1-.2.1-.4.1Z" fill="#038dcd"/>
      <path id="Контур_283" data-name="Контур 283" d="M295.7,440.8v2c-1.6,0-3.2.1-4.7,0-.3,0-.8-.7-.7-1a1.182,1.182,0,0,1,.9-.9A33.048,33.048,0,0,1,295.7,440.8Z" fill="#eef6fa"/>
      <path id="Контур_284" data-name="Контур 284" d="M340.3,440.8v2c-1.5,0-3,.1-4.5,0a1.352,1.352,0,0,1-.9-.9,1.174,1.174,0,0,1,.9-1A33.816,33.816,0,0,1,340.3,440.8Z" fill="#edf6fa"/>
      <path id="Контур_285" data-name="Контур 285" d="M314.3,446.4h-9.5c1.6-1.3,3.2-2.6,4.9-3.8.2-.2.6-.1.8-.1h3.8C314.3,443.7,314.3,445.1,314.3,446.4Z" fill="#038dcd"/>
    </g>
  </g>
</svg>
