<svg xmlns="http://www.w3.org/2000/svg" width="104.7" height="104.049" viewBox="0 0 104.7 104.049">
  <g id="мерседес" transform="translate(-253.4 -343.851)">
    <g id="Сгруппировать_12" data-name="Сгруппировать 12">
      <path id="Контур_286" data-name="Контур 286" d="M301.8,447.6a49.5,49.5,0,0,1-22.5-7A50.542,50.542,0,0,1,261.8,424a51.394,51.394,0,0,1-8.2-23.3c-.1-1.2-.1-2.4-.2-3.7,0-1,0-2,.1-3a48.119,48.119,0,0,1,6.2-23.1c.1-.1.2-.3.3-.4a50.024,50.024,0,0,1,16.4-17.8,51.21,51.21,0,0,1,25.4-8.7,52.357,52.357,0,0,1,52.7,33,47.24,47.24,0,0,1,3.3,14.3c0,.3.2.5.3.8v.8c-.1.6-.1,1.1-.2,1.7v1.9c.1.6.1,1.1.2,1.7v1l-.3.6a61.661,61.661,0,0,1-.9,6.2q-5.1,23.1-25.7,34.8a47.463,47.463,0,0,1-19,6.3c-1.1.1-2.1.3-3.2.5h-2.3c-.7-.1-1.4-.1-2.1-.2-.6.1-1.1.1-1.7.2h-.4C302.3,447.8,302.1,447.7,301.8,447.6Zm33.3-88.5h0c.1-1-.6-.9-1.2-.9-.6-.4-1.2-.9-1.8-1.3-.2-.1-.4-.3-.6-.4a14.8,14.8,0,0,0-1.3-.8c-.4-1.1-1-1.4-1.9-1.1-.4-.2-.8-.4-1.3-.7-.4-.9-1.2-1-2.1-1a1.421,1.421,0,0,0-.6-.2c-.1-.1-.3-.1-.4-.2-.4-.1-.7-.3-1.1-.4-.3-.1-.7-.3-1-.4-.1,0-.1,0-.2-.1s-.3-.1-.4-.2c-.2-.1-.4-.1-.6-.2-.1-.1-.3-.1-.4-.2H320c-.2-.1-.4-.1-.6-.2-1.3-.3-2.7-.6-4-.9-.1,0-.1,0-.2-.1-.2,0-.4-.1-.6-.1-.1-.2-.3-.3-.4-.5a1.38,1.38,0,0,0-.3.4,1.268,1.268,0,0,1-.6-.1,1.552,1.552,0,0,0-2.1-.3h-.6c-.2-.6-.5-.6-.8-.1h-.6c-.4,0-.7-.1-1.1-.1-.4.1-.8.1-1.2.2a28.1,28.1,0,0,0,.1,2.9,11.5,11.5,0,0,0,.6,1.7c0,.3.1.7.1,1,.1.2.1.4.2.6v.4c0,.1.1.3.1.4,0,.3.1.6.1.8s.1.4.1.6c0,.3.1.7.1,1,0,.2.1.4.1.6v.4c.1.4.1.8.2,1.2,0,.3.1.6.1.8.1.6.2,1.1.3,1.7a.6.6,0,0,0,.1.4c.1,0,.1.1.1.2-.9,1-.8,1.8.3,2.3.1,0,.1.1,0,.2,0,.2.1.4.1.7v.2c0,.2.1.4.1.6,0,.3.1.6.1.8.1.6.2,1.3.3,1.9,0,.2.1.4.1.6a.6.6,0,0,0,.1.4c.1.3.1.7.2,1-.5.5-.2.9.2,1.3.1.4.1.8.2,1.3,0,.1.1.3.1.4,0,.3.1.6.1.8-.7.9-.6,1.4.3,1.9,0,.3.1.6.1.8.1.2.1.4.2.6v.4c-.5,1.4.1,2.7.6,4,.1.4.1.8.2,1.3,0,.2.1.4.1.6,0,.3.1.7.1,1a1.421,1.421,0,0,0-.2.6,21.051,21.051,0,0,0,.2,2.5c-.1.1-.3.1-.4.2a4.348,4.348,0,0,1-.7.4c-.5.3-1,.6-1.4.9-.9.2-1.9.1-2.1,1.3-.3.2-.7.4-1,.6h-.8c0-3,0-6-.1-9a.758.758,0,0,0,.2-.4v-6.8a.85.85,0,0,0-.3-.5c-.1-2.9-.1-5.8-.2-8.6,0-1.2,0-2.5.1-3.7a2.1,2.1,0,0,0-.1-2.5c0-3.8-.1-7.5-.1-11.3,0-.2.1-.5.1-.7-.2,0-.4-.1-.4,0a1.7,1.7,0,0,0-.1.7,1.268,1.268,0,0,1-.1.6c-.4.8-.9,1.6-.3,2.5-.1,1-.2,1.9-.3,2.9,0,.3-.1.6-.1.8,0,.5-.1,1-.1,1.5,0,.2-.1.4-.1.6v.8c0,.2-.1.4-.1.7,0,.5-.1,1-.1,1.4-.1.3-.1.6-.2.8v.6c-.1.1-.2.1-.3.2.1.1.2.2.3.2v.4a2.292,2.292,0,0,0-.3,2.5v.4c-.7.3-.5.8-.2,1.3,0,.3-.1.7-.1,1-.3.3-.7.5-.7.8a10.461,10.461,0,0,0,.4,1.7c0,.1.1.3,0,.4-.4,3.5-.8,7-1.2,10.6l-.9,8.1c-.7-.5-1.2-.9-1.8-1.3a1.033,1.033,0,0,1-.6-1.4c.7-4.2,1.3-8.4,2-12.7v-.6l.1-.1a7.378,7.378,0,0,0,.7-4.6.6.6,0,0,1,.1-.4c1.3-1,1-2.3.6-3.6v-.6c0-.1.1-.3.1-.4.1-.5.1-1,.2-1.5v-.2c.1-.6.2-1.3.3-1.9,0-.3.1-.6.1-.9v-.1a.1.1,0,0,1,.1-.1c.7-.4.5-.9.2-1.5v-.2c.1-.4.1-.8.2-1.3v-.2c.1-.3.1-.6.2-.8v-.2c.1-.5.1-1,.2-1.5v-.2a2.757,2.757,0,0,0,.7-.9,4.3,4.3,0,0,0,0-1.6,2.118,2.118,0,0,0-.3-.7c.1-.4.1-.8.2-1.2a.6.6,0,0,1,.1-.4c.1-.4.1-.8.2-1.2v-.4c-.2-.2-.4-.6-.6-.6a19.267,19.267,0,0,0-2.4.1c-.1-.1-.1-.3-.2-.3-1.1.1-2.2.2-3.2.3-.1,0-.2.3-.4.4h-.4c-.1,0-.3.1-.4.1a.6.6,0,0,0-.4.1c-.2,0-.4.1-.6.1l-1.5.3a.6.6,0,0,0-.4.1c-.3.1-.5.1-.8.2a1.282,1.282,0,0,0-1.7.5c-.1,0-.3.1-.4.1-.4.1-.7.3-1.1.4-1,.4-2,.7-3,1.1-.3.1-.5.2-.8.3-.3.2-.7.3-1,.5-.3-.2-.5-.3-1-.6V353c-.1,0-.1.1-.2.1-.4.2-.7.4-1.1.6-.4.3-.8.5-1.2.8a45.3,45.3,0,0,0-16.7,16.4c-7,11.6-8.5,24.1-4.8,37.1a43.23,43.23,0,0,0,3.9,9.5c11.1-8.8,22.2-17.5,33.2-26.3.8.5,1.5.9,2.3,1.3a1.755,1.755,0,0,1-.5.4c-4.8,3.5-9.6,6.9-14.4,10.4-6.3,4.6-12.6,9.2-19,13.8-.1.1-.3.1-.4.2,0,.1,0,.1.1.2.2,0,.4-.1.6-.1a3,3,0,0,0,.8-.4c10.9-6,21.9-11.9,32.8-17.9,1.7-.9,3.3-1.8,5.1-2.8v6.8c0,.8-.2,1.1-.9,1.3-10.1,3.8-20.2,7.7-30.4,11.5-2.8,1.1-5.6,2.1-8.3,3.2v.3a47.236,47.236,0,0,0,22.5,18.9,45.351,45.351,0,0,0,16.3,3.5,45.954,45.954,0,0,0,15.6-2.1,57.491,57.491,0,0,0,11.3-5.1,4.348,4.348,0,0,1,.7-.4l3-2.1a4.62,4.62,0,0,1,.7.7c-.3.2-.5.4-.8.6a4.233,4.233,0,0,1-.7.5c-1.8,1.1-3.5,2.4-5.4,3.4-14.2,7.4-28.7,8.1-43.4,1.2-12.1-5.7-20.2-15-25-27.4-.3-.9-.7-1.8-1-2.7,0-.2.1-.3.1-.5h-.2c0,.2-.1.4-.1.6v.5a52.594,52.594,0,0,0,10,19c5.5,7.1,12.8,11.7,21.2,14.6a48.3,48.3,0,0,0,21.7,2.1,48.983,48.983,0,0,0,25.7-11.2A49.745,49.745,0,0,0,354,408.8a44.326,44.326,0,0,0,1-22,64.837,64.837,0,0,0-4.4-12.1c.2-.3.3-.5.5-.8,1,2,2,4,2.9,6.1.8,2.1,1.4,4.3,2.1,6.4a2.437,2.437,0,0,0,0-1.2,5.019,5.019,0,0,0-.2-1.2,45.87,45.87,0,0,0-7.7-16.8c-5.9-8.3-13.2-14.7-22.6-18.6a50.629,50.629,0,0,0-37.2-1,52.319,52.319,0,0,0-24.7,18.8,52.86,52.86,0,0,0-7.8,16c-.1.2-.1.4-.2.6a1.949,1.949,0,0,1-.1.8,49.523,49.523,0,0,0,9.6,41.5,6.035,6.035,0,0,0,.8.8,1.82,1.82,0,0,0-.4-1.1,48.431,48.431,0,0,1-8.4-19.3,50.723,50.723,0,0,1-.4-17.8,47.651,47.651,0,0,1,15.4-28.8,49.435,49.435,0,0,1,14.4-9.1c.3.1.5.3.8.4.1-.3.2-.5.3-.8a20.942,20.942,0,0,1,2.3-.8,4.331,4.331,0,0,1,.5.1,6.873,6.873,0,0,1,2.4-.5c.7,0,.9-.2,1-.8l5.4-.9c.2,0,.4-.1.6-.1h.6c.5.5,1.2.4,1.9-.2h4l.4.4a1.38,1.38,0,0,0,.3-.4h.6c.7.5,1.3.9,2.1.2h.6c.2,0,.4.1.6.1l5.7.9c.2.1.4.1.6.2.3.1.7.2,1,.3.1.1.3.1.4.2.6.2,1.1.3,1.7.5.2.1.4.1.6.2.4.1.9.3,1.3.4.1.1.3.1.4.2a18.027,18.027,0,0,0,2.1.8c.1.1.3.1.4.2,1.2.6,2.4,1.1,3.6,1.7a2.353,2.353,0,0,1,.2.8l.4-.4a47.934,47.934,0,0,1,14.5,11.6c-.7.4-1.3.9-2,1.3a4.349,4.349,0,0,1-.6-.7,1.131,1.131,0,0,0-1.1-1.2c-.6-.6-1.2-1.3-1.8-1.9,0-.7-.3-1.1-1.1-1-.1-.1-.3-.2-.4-.4-.3-.3-.7-.6-1-.9-.2-.2-.5-.4-.7-.6C335.4,359.4,335.2,359.3,335.1,359.1Zm-76.3,48.2c-.1,0-.2.1-.4.1.1.3.3.6.4.9.1,0,.2-.1.3-.1Zm5.2,11.9.1.1c.1-.1.3-.2.4-.3l-.1-.1A1.381,1.381,0,0,1,264,419.2Zm2.4,7.5-.2.2.4.4c.1,0,.1-.1.2-.1A1.756,1.756,0,0,1,266.4,426.7Zm-1.4-7.9h0a.367.367,0,0,0,.1-.3H265Z" fill="#211e22"/>
      <path id="Контур_287" data-name="Контур 287" d="M304.6,447.7c.7.1,1.4.1,2.1.2h-2.1Z" fill="#4b474c"/>
      <path id="Контур_288" data-name="Контур 288" d="M357.8,396.7v-1.9h.2v1.9Z" fill="#555356"/>
      <path id="Контур_289" data-name="Контур 289" d="M357.8,396.7h.2v1.7C357.9,397.9,357.9,397.3,357.8,396.7Z" fill="#777578"/>
      <path id="Контур_290" data-name="Контур 290" d="M304.6,447.7v.2h-1.7A8.8,8.8,0,0,1,304.6,447.7Z" fill="#737073"/>
      <path id="Контур_291" data-name="Контур 291" d="M358,394.8h-.2c.1-.6.1-1.1.2-1.7Z" fill="#7c7b7d"/>
      <path id="Контур_292" data-name="Контур 292" d="M301.8,447.6c.2.1.4.1.6.2h-.6C301.9,447.8,301.8,447.7,301.8,447.6Z" fill="#232024"/>
      <path id="Контур_293" data-name="Контур 293" d="M253.5,394.2c0,1,0,2-.1,3C253.4,396.2,253.4,395.2,253.5,394.2Z" fill="#353135"/>
      <path id="Контур_294" data-name="Контур 294" d="M259.9,370.7c-.1.1-.2.3-.3.4C259.8,371,259.9,370.9,259.9,370.7Z" fill="#232024"/>
      <path id="Контур_295" data-name="Контур 295" d="M344.2,364.9c1.9,2.5,3.7,5,5.6,7.6a4.348,4.348,0,0,1-.7.4c-1.6-2.5-3-5-5.4-6.8.5.7,1,1.5,1.5,2.2-.2.2-.6.5-.6.6.3.4.6.7,1.1.2.5.8,1,1.5,1.5,2.3-.2.4-.5.7-.7,1.1-1.5-2.1-2.9-4.1-4.4-6.2C342.9,365.7,343.6,365.3,344.2,364.9Z" fill="#211e21"/>
      <path id="Контур_296" data-name="Контур 296" d="M336.6,432.6a14.7,14.7,0,0,1-1.3,1,4.62,4.62,0,0,1-.7-.7,52.853,52.853,0,0,0,9.3-9.6c.3.2.5.5.8.7a40.9,40.9,0,0,1-7.8,8.3l-.3-.3Z" fill="#211e21"/>
      <path id="Контур_297" data-name="Контур 297" d="M306.2,385c0-2.6-.1-5.2-.1-7.8.1.2.3.4.3.5v6.8A.764.764,0,0,1,306.2,385Z" fill="#211e21"/>
      <path id="Контур_298" data-name="Контур 298" d="M301.3,371.2l.6-3.6C302.3,368.9,302.6,370.2,301.3,371.2Z" fill="#211e21"/>
      <path id="Контур_299" data-name="Контур 299" d="M350,372.8c.4.6.7,1.3,1.1,1.9-.2.3-.3.5-.5.8-.4-.8-.9-1.6-1.3-2.4C349.5,373,349.8,372.9,350,372.8Z" fill="#211e21"/>
      <path id="Контур_300" data-name="Контур 300" d="M290.1,349.5c1.3-.4,2.7-.8,4-1.2-.1.6-.3.8-1,.8a20.48,20.48,0,0,0-2.4.5A.661.661,0,0,1,290.1,349.5Z" fill="#211e21"/>
      <path id="Контур_301" data-name="Контур 301" d="M306.7,349.2c.2,1.5.5,3.1.7,4.6a5.775,5.775,0,0,1-.6-1.7C306.7,351.1,306.7,350.1,306.7,349.2Z" fill="#211e21"/>
      <path id="Контур_302" data-name="Контур 302" d="M300.5,376.2c.2-1.5.5-3.1.7-4.6A7.275,7.275,0,0,1,300.5,376.2Z" fill="#211e21"/>
      <path id="Контур_303" data-name="Контур 303" d="M311.7,380.6c.2,1.3.4,2.7.6,4C311.8,383.3,311.2,382,311.7,380.6Z" fill="#211e21"/>
      <path id="Контур_304" data-name="Контур 304" d="M301.6,349.1c-1.3.2-2.5.3-3.8.5.1-.2.2-.4.4-.4,1.1-.1,2.2-.2,3.2-.3C301.5,348.8,301.6,349,301.6,349.1Z" fill="#211e21"/>
      <path id="Контур_305" data-name="Контур 305" d="M303.6,356.1c.2-1.1.3-2.1.5-3.2a2.117,2.117,0,0,1,.3.7,8.552,8.552,0,0,1,0,1.6C304.2,355.5,303.8,355.8,303.6,356.1Z" fill="#211e21"/>
      <path id="Контур_306" data-name="Контур 306" d="M303.2,370.5c-.1.8-.2,1.7-.3,2.5a5.256,5.256,0,0,1-.4-1.7C302.5,371.1,303,370.8,303.2,370.5Z" fill="#211e21"/>
      <path id="Контур_307" data-name="Контур 307" d="M309.1,364.2c.1.8.2,1.6.3,2.3C308.3,366,308.2,365.2,309.1,364.2Z" fill="#211e21"/>
      <path id="Контур_308" data-name="Контур 308" d="M312.8,387.5c.1.8.3,1.6.4,2.4,0,.2-.3.5-.4.7-.1-.8-.1-1.7-.2-2.5A1.422,1.422,0,0,1,312.8,387.5Z" fill="#211e21"/>
      <path id="Контур_309" data-name="Контур 309" d="M311.1,376.8c.1.6.2,1.3.3,1.9C310.4,378.3,310.3,377.7,311.1,376.8Z" fill="#211e21"/>
      <path id="Контур_310" data-name="Контур 310" d="M330.1,355.7c-.6-.4-1.2-.7-1.9-1.1C329.1,354.3,329.7,354.6,330.1,355.7Z" fill="#211e21"/>
      <path id="Контур_311" data-name="Контур 311" d="M310.3,392.1a23.922,23.922,0,0,0-2.1,1.3C308.4,392.2,309.4,392.3,310.3,392.1Z" fill="#211e21"/>
      <path id="Контур_312" data-name="Контур 312" d="M306,364.9c0-.8-.1-1.7-.1-2.5A2.268,2.268,0,0,1,306,364.9Z" fill="#211e21"/>
      <path id="Контур_313" data-name="Контур 313" d="M305.3,351.7c-.1.8-.2,1.7-.3,2.5C304.5,353.3,305,352.5,305.3,351.7Z" fill="#211e21"/>
      <path id="Контур_314" data-name="Контур 314" d="M303.9,365.3c-.1.8-.2,1.7-.3,2.5A2.121,2.121,0,0,1,303.9,365.3Z" fill="#211e21"/>
      <path id="Контур_315" data-name="Контур 315" d="M327,354c-.7-.3-1.4-.7-2.1-1C325.8,352.9,326.6,353,327,354Z" fill="#211e21"/>
      <path id="Контур_316" data-name="Контур 316" d="M307.9,347.1c.7.1,1.4.1,2.1.2C309.2,348.1,308.6,347.7,307.9,347.1Z" fill="#211e21"/>
      <path id="Контур_317" data-name="Контур 317" d="M313.2,349.5l-2.1-.3A1.848,1.848,0,0,1,313.2,349.5Z" fill="#211e21"/>
      <path id="Контур_318" data-name="Контур 318" d="M300.8,347.3c.6-.1,1.3-.1,1.9-.2C302,347.7,301.3,347.8,300.8,347.3Z" fill="#211e21"/>
      <path id="Контур_319" data-name="Контур 319" d="M285.3,353.4c-.3.2-.7.3-1,.5v-1.1C284.8,353.1,285,353.2,285.3,353.4Z" fill="#211e21"/>
      <path id="Контур_320" data-name="Контур 320" d="M293.3,350.5c-.6.2-1.1.3-1.7.5A1.282,1.282,0,0,1,293.3,350.5Z" fill="#211e21"/>
      <path id="Контур_321" data-name="Контур 321" d="M286.7,350.8c.4-.1.7-.3,1.1-.4-.1.3-.2.5-.3.8C287.2,351.1,287,350.9,286.7,350.8Z" fill="#211e21"/>
      <path id="Контур_322" data-name="Контур 322" d="M305.8,351.1h-.4c0-.2.1-.5.1-.7h.4A1.952,1.952,0,0,1,305.8,351.1Z" fill="#211e21"/>
      <path id="Контур_323" data-name="Контур 323" d="M309.8,369.1c.1.6.2,1.3.3,1.9A10.79,10.79,0,0,0,309.8,369.1Z" fill="#211e21"/>
      <path id="Контур_324" data-name="Контур 324" d="M341.7,365.5c-.4-.4-.7-.8-1.1-1.2A1.2,1.2,0,0,1,341.7,365.5Z" fill="#211e21"/>
      <path id="Контур_325" data-name="Контур 325" d="M302.7,362c.1-.5.1-1,.2-1.5C303.2,361,303.4,361.6,302.7,362Z" fill="#211e21"/>
      <path id="Контур_326" data-name="Контур 326" d="M258.8,407.3l.3.9c-.1,0-.2.1-.3.1-.1-.3-.3-.6-.4-.9C258.5,407.4,258.7,407.3,258.8,407.3Z" fill="#232024"/>
      <path id="Контур_327" data-name="Контур 327" d="M335,359.1l-1.2-.9C334.4,358.3,335.1,358.2,335,359.1Z" fill="#211e21"/>
      <path id="Контур_328" data-name="Контур 328" d="M338.7,362.4c-.4-.3-.7-.7-1.1-1C338.4,361.3,338.7,361.7,338.7,362.4Z" fill="#211e21"/>
      <path id="Контур_329" data-name="Контур 329" d="M303.5,368.2c-.1.4-.1.8-.2,1.3C303,369,302.8,368.6,303.5,368.2Z" fill="#211e21"/>
      <path id="Контур_330" data-name="Контур 330" d="M302.9,360.3c.1-.4.1-.8.2-1.3A5.852,5.852,0,0,1,302.9,360.3Z" fill="#211e21"/>
      <path id="Контур_331" data-name="Контур 331" d="M303.3,357.8c.1-.5.1-1,.2-1.5A7.719,7.719,0,0,1,303.3,357.8Z" fill="#211e21"/>
      <path id="Контур_332" data-name="Контур 332" d="M329.1,352.9a5.74,5.74,0,0,1,.7.4l-.4.4C329.2,353.5,329.2,353.2,329.1,352.9Z" fill="#211e21"/>
      <path id="Контур_333" data-name="Контур 333" d="M337.2,361c-.3-.3-.7-.6-1-.9A9.018,9.018,0,0,1,337.2,361Z" fill="#211e21"/>
      <path id="Контур_334" data-name="Контур 334" d="M310.5,373c.1.4.1.8.2,1.3C310.3,373.9,310,373.5,310.5,373Z" fill="#211e21"/>
      <path id="Контур_335" data-name="Контур 335" d="M309,349.1c-.4,0-.7-.1-1.1-.1A4.1,4.1,0,0,1,309,349.1Z" fill="#211e21"/>
      <path id="Контур_336" data-name="Контур 336" d="M322.8,352.1c-.3-.1-.7-.3-1-.4A10.385,10.385,0,0,0,322.8,352.1Z" fill="#211e21"/>
      <path id="Контур_337" data-name="Контур 337" d="M284.1,354c-.4.2-.7.4-1.1.6C283.4,354.4,283.7,354.2,284.1,354Z" fill="#211e21"/>
      <path id="Контур_338" data-name="Контур 338" d="M291.2,351.1c-.4.1-.7.3-1.1.4A4.874,4.874,0,0,1,291.2,351.1Z" fill="#211e21"/>
      <path id="Контур_339" data-name="Контур 339" d="M314.4,349.8c-.2-.1-.4-.1-.6-.2a1.38,1.38,0,0,0,.3-.4Z" fill="#211e21"/>
      <path id="Контур_340" data-name="Контур 340" d="M310.4,349.2a1.949,1.949,0,0,1-.8-.1C309.9,348.6,310.2,348.6,310.4,349.2Z" fill="#211e21"/>
      <path id="Контур_341" data-name="Контур 341" d="M308.6,361.1c0,.3.1.6.1.8C308.7,361.7,308.6,361.4,308.6,361.1Z" fill="#211e21"/>
      <path id="Контур_342" data-name="Контур 342" d="M302.5,363c0-.3.1-.6.1-.9A2.768,2.768,0,0,1,302.5,363Z" fill="#211e21"/>
      <path id="Контур_343" data-name="Контур 343" d="M304.1,363c-.1.3-.1.6-.2.8A1.884,1.884,0,0,0,304.1,363Z" fill="#211e21"/>
      <path id="Контур_344" data-name="Контур 344" d="M304.7,357.1c0,.3-.1.6-.1.8C304.6,357.7,304.7,357.4,304.7,357.1Z" fill="#211e21"/>
      <path id="Контур_345" data-name="Контур 345" d="M307.1,394c-.3.1-.5.3-.8.4a.9.9,0,0,0-.1-.5A3.085,3.085,0,0,0,307.1,394Z" fill="#211e21"/>
      <path id="Контур_346" data-name="Контур 346" d="M303.1,358.8c.1-.3.1-.6.2-.8A2.354,2.354,0,0,1,303.1,358.8Z" fill="#211e21"/>
      <path id="Контур_347" data-name="Контур 347" d="M312.5,385.8c0,.2.1.4.1.6A1.486,1.486,0,0,0,312.5,385.8Z" fill="#211e21"/>
      <path id="Контур_348" data-name="Контур 348" d="M307.5,354.8c.1.2.1.4.2.6C307.6,355.2,307.6,355,307.5,354.8Z" fill="#211e21"/>
      <path id="Контур_349" data-name="Контур 349" d="M311.5,379.5c.1.2.1.4.2.6C311.6,380,311.6,379.8,311.5,379.5Z" fill="#211e21"/>
      <path id="Контур_350" data-name="Контур 350" d="M306.7,347.1h.6a.313.313,0,1,1-.6,0Z" fill="#211e21"/>
      <path id="Контур_351" data-name="Контур 351" d="M304.3,360.9c0,.2-.1.4-.1.7A1.952,1.952,0,0,0,304.3,360.9Z" fill="#211e21"/>
      <path id="Контур_352" data-name="Контур 352" d="M307.9,357.1c0,.2.1.4.1.6A1.486,1.486,0,0,0,307.9,357.1Z" fill="#211e21"/>
      <path id="Контур_353" data-name="Контур 353" d="M304.5,359.4c0,.2-.1.4-.1.6A1.759,1.759,0,0,1,304.5,359.4Z" fill="#211e21"/>
      <path id="Контур_354" data-name="Контур 354" d="M296.6,349.8c-.2,0-.4.1-.6.1C296.2,349.9,296.4,349.8,296.6,349.8Z" fill="#211e21"/>
      <path id="Контур_355" data-name="Контур 355" d="M316.9,348.4c.2.1.4.1.6.2A1.072,1.072,0,0,0,316.9,348.4Z" fill="#211e21"/>
      <path id="Контур_356" data-name="Контур 356" d="M309.6,367.6c0,.2.1.4.1.6C309.7,368,309.6,367.8,309.6,367.6Z" fill="#211e21"/>
      <path id="Контур_357" data-name="Контур 357" d="M299.5,347.5c.2,0,.4-.1.6-.1A3.536,3.536,0,0,1,299.5,347.5Z" fill="#211e21"/>
      <path id="Контур_358" data-name="Контур 358" d="M310.6,347.4c.2,0,.4.1.6.1A3.536,3.536,0,0,0,310.6,347.4Z" fill="#211e21"/>
      <path id="Контур_359" data-name="Контур 359" d="M312.4,390.9a4.348,4.348,0,0,1-.7.4A1.612,1.612,0,0,1,312.4,390.9Z" fill="#211e21"/>
      <path id="Контур_360" data-name="Контур 360" d="M259.1,409.3h-.2c0-.2.1-.4.1-.6h.2A1.268,1.268,0,0,1,259.1,409.3Z" fill="#232024"/>
      <path id="Контур_361" data-name="Контур 361" d="M264,419.2c.1-.1.3-.2.4-.3l.1.1c-.1.1-.3.2-.4.3A.1.1,0,0,0,264,419.2Z" fill="#232024"/>
      <path id="Контур_362" data-name="Контур 362" d="M319.9,351.1c-.2-.1-.4-.1-.6-.2A2.073,2.073,0,0,1,319.9,351.1Z" fill="#211e21"/>
      <path id="Контур_363" data-name="Контур 363" d="M287.1,352.6c-.3.1-.5.2-.8.3A6.892,6.892,0,0,0,287.1,352.6Z" fill="#211e21"/>
      <path id="Контур_364" data-name="Контур 364" d="M332,356.9c-.2-.1-.4-.3-.6-.4C331.6,356.6,331.8,356.8,332,356.9Z" fill="#211e21"/>
      <path id="Контур_365" data-name="Контур 365" d="M334.6,434.2a4.233,4.233,0,0,1-.7.5C334.1,434.5,334.4,434.4,334.6,434.2Z" fill="#211e21"/>
      <path id="Контур_366" data-name="Контур 366" d="M330.9,435.5a4.348,4.348,0,0,1,.7-.4A2.506,2.506,0,0,0,330.9,435.5Z" fill="#211e21"/>
      <path id="Контур_367" data-name="Контур 367" d="M308.2,358.8c0,.2.1.4.1.6C308.3,359.2,308.2,359,308.2,358.8Z" fill="#211e21"/>
      <path id="Контур_368" data-name="Контур 368" d="M309.5,366.7c0,.2.1.4.1.7A1.483,1.483,0,0,1,309.5,366.7Z" fill="#211e21"/>
      <path id="Контур_369" data-name="Контур 369" d="M320.7,349.4c.2.1.4.1.6.2A1.421,1.421,0,0,1,320.7,349.4Z" fill="#211e21"/>
      <path id="Контур_370" data-name="Контур 370" d="M318.6,348.8c.1.1.3.1.4.2A.758.758,0,0,0,318.6,348.8Z" fill="#211e21"/>
      <path id="Контур_371" data-name="Контур 371" d="M301.9,367c0-.1.1-.3.1-.4C302,366.7,301.9,366.8,301.9,367Z" fill="#211e21"/>
      <path id="Контур_372" data-name="Контур 372" d="M303.9,364.5v.4c-.1-.1-.2-.2-.3-.2C303.7,364.6,303.8,364.5,303.9,364.5Z" fill="#211e21"/>
      <path id="Контур_373" data-name="Контур 373" d="M335.6,359.5a1.756,1.756,0,0,1-.5-.4A1,1,0,0,0,335.6,359.5Z" fill="#211e21"/>
      <path id="Контур_374" data-name="Контур 374" d="M307.7,355.9c0,.1.1.3.1.4C307.8,356.2,307.7,356,307.7,355.9Z" fill="#211e21"/>
      <path id="Контур_375" data-name="Контур 375" d="M297.5,349.6c-.1,0-.3.1-.4.1C297.2,349.7,297.3,349.6,297.5,349.6Z" fill="#211e21"/>
      <path id="Контур_376" data-name="Контур 376" d="M324.3,352.7c-.1-.1-.3-.1-.4-.2C324,352.6,324.1,352.6,324.3,352.7Z" fill="#211e21"/>
      <path id="Контур_377" data-name="Контур 377" d="M321.5,351.6c-.1-.1-.3-.1-.4-.2C321.3,351.5,321.4,351.6,321.5,351.6Z" fill="#211e21"/>
      <path id="Контур_378" data-name="Контур 378" d="M310.2,371.6a.6.6,0,0,0,.1.4A.6.6,0,0,0,310.2,371.6Z" fill="#211e21"/>
      <path id="Контур_379" data-name="Контур 379" d="M304.2,351.7a.6.6,0,0,1,.1-.4A.757.757,0,0,1,304.2,351.7Z" fill="#211e21"/>
      <path id="Контур_380" data-name="Контур 380" d="M325.1,351.1c.1.1.3.1.4.2A.758.758,0,0,0,325.1,351.1Z" fill="#211e21"/>
      <path id="Контур_381" data-name="Контур 381" d="M320.5,351.3c-.1-.1-.3-.1-.4-.2C320.2,351.1,320.3,351.2,320.5,351.3Z" fill="#211e21"/>
      <path id="Контур_382" data-name="Контур 382" d="M322.6,350c.1.1.3.1.4.2A.758.758,0,0,1,322.6,350Z" fill="#211e21"/>
      <path id="Контур_383" data-name="Контур 383" d="M310.9,375.6c0,.1.1.3.1.4A.6.6,0,0,1,310.9,375.6Z" fill="#211e21"/>
      <path id="Контур_384" data-name="Контур 384" d="M300.4,376.8v-.5C300.5,376.5,300.4,376.7,300.4,376.8Z" fill="#211e21"/>
      <path id="Контур_385" data-name="Контур 385" d="M294.5,350.2a.6.6,0,0,0-.4.1C294.2,350.3,294.4,350.2,294.5,350.2Z" fill="#211e21"/>
      <path id="Контур_386" data-name="Контур 386" d="M304.5,350v0Z" fill="#211e21"/>
      <path id="Контур_387" data-name="Контур 387" d="M265,418.8v-.3h.1a.367.367,0,0,1-.1.3Z" fill="#232024"/>
      <path id="Контур_388" data-name="Контур 388" d="M256,383.1c-.1.2-.1.4-.2.6C255.9,383.5,255.9,383.3,256,383.1Z" fill="#232024"/>
      <path id="Контур_389" data-name="Контур 389" d="M309,363.6a.6.6,0,0,0,.1.4C309,363.9,309,363.8,309,363.6Z" fill="#211e21"/>
      <path id="Контур_390" data-name="Контур 390" d="M302.2,365.1v-.2C302.3,365,302.3,365,302.2,365.1Z" fill="#211e21"/>
      <path id="Контур_391" data-name="Контур 391" d="M308.3,359.7v0Z" fill="#211e21"/>
      <path id="Контур_392" data-name="Контур 392" d="M315.2,349.9h-.1l-.1-.1A.31.31,0,0,0,315.2,349.9Z" fill="#211e21"/>
      <path id="Контур_393" data-name="Контур 393" d="M339.3,417.9c-4.7-1.8-9.3-3.7-14-5.5-6.1-2.4-12.1-4.9-18.1-7.3a1.235,1.235,0,0,1-.9-1.4c.1-2.1,0-4.2,0-6.5,1.2.6,2.2,1.2,3.2,1.8l25.2,13.8a1.381,1.381,0,0,1,.4.3c.8,1.3,1.7,2.4,3.5,2.5.4,1.2,1.1,1.4,2.2.6.1.1.3.1.4.2a13.443,13.443,0,0,0,1.1,1.4,1.729,1.729,0,0,1-1-.1C340.6,417.3,340,417.6,339.3,417.9Z" fill="#231f24"/>
      <path id="Контур_394" data-name="Контур 394" d="M339.3,417.9a1.813,1.813,0,0,1,2-.1c.2.2.7.1,1,.1a17.1,17.1,0,0,0-1.1-1.4c1.2.6,2.3,1.2,3.5,1.8l.3.3c-.6,0-1.5-.5-1.7.7.6.2,1.1.4,1.9.7v-1.3c.2,0,.4.1.6.1,0-.1,0-.1.1-.2-.3-.2-.5-.4-.8-.6-.7-.6-1.5-1.1-2.2-1.7a4.62,4.62,0,0,0,.7-.7l.1-.1c1.1.9,2.3,1.8,3.7,2.9,1.2-2.8,2.4-5.5,3.3-8.2a46.918,46.918,0,0,0,2.3-15.8,45.816,45.816,0,0,0-2.7-14.2c-.1-.2-.1-.4-.2-.6.5.1.5,1.3,1.3.6a44.111,44.111,0,0,1,2.8,15.3,47.177,47.177,0,0,1-2.6,15.8c0,.1-.1.2-.2.4-1.2-.6-.9.4-1.1,1a4.536,4.536,0,0,0,.8-.2,42.589,42.589,0,0,1-6,11.1c0-.8-.5-.5-.9-.5.5-.8,1-1.6,1.6-2.6C343.6,419.6,341.4,418.8,339.3,417.9Zm12.2-35.6c-.1,0-.1.1-.2.1l.3.6c.1,0,.1-.1.2-.1C351.8,382.7,351.6,382.5,351.5,382.3Z" fill="#211e21"/>
      <path id="Контур_395" data-name="Контур 395" d="M329,406.4a1.38,1.38,0,0,0-.4-.3c.1-1.3-.8-1.2-1.7-1.2-4.5-3.2-9-6.4-13.4-9.6l-2.1-1.5c1.1-.7,2.1-1.3,3.1-2,4,3.3,7.9,6.5,11.9,9.7a2.181,2.181,0,0,1,.5.4c.2.1.3.3.5.4a9.633,9.633,0,0,0,1.2,2,7.607,7.607,0,0,0,2.1.8l.2.2c-.1.7.3.7.8.7h0c-.2,1.1.5,1.2,1.3,1h0c.3.7.6,1.5.9,2.3-.2,0-.5.1-.8.1-.1-.1-.2-.1-.3-.2-.2-.1-.4-.3-.6-.4h0C331.9,406.9,330.4,405.9,329,406.4Z" fill="#231f24"/>
      <path id="Контур_396" data-name="Контур 396" d="M336.8,413.2c-9.8-5.6-19.6-11.3-29.4-17,.9-.6,1.6-1.1,2.5-1.6,9,6.1,18,12.2,27.1,18.4C336.9,413.1,336.8,413.1,336.8,413.2Z" fill="#242025"/>
      <path id="Контур_397" data-name="Контур 397" d="M305,394.5c-1.7-.6-1.8-.6-1.7-2.2.3-5.8.6-11.5.9-17.3.1-2.6.2-5.3.4-7.9a3.533,3.533,0,0,1,.4-1.7C305,375.1,305,384.7,305,394.5Z" fill="#252126"/>
      <path id="Контур_398" data-name="Контур 398" d="M295.4,400.4c1.8-1.5,3.7-3,5.5-4.5,1.4-1.1,1.4-1.1,3.1-.1-2.9,1.6-5.7,3.2-8.5,4.8A.31.31,0,0,0,295.4,400.4Z" fill="#262227"/>
      <path id="Контур_399" data-name="Контур 399" d="M337.5,410.5c2.1,1.7,4.1,3.3,6.2,5a.1.1,0,0,1-.1.1c-.4,0-.9-.1-.8.6a5.546,5.546,0,0,1-.8-.6c.1-.3.1-.6.2-1-.1,0-.3-.1-.4-.1-.1.2-.1.5-.2.7-1.5-1.1-3-2.1-4.4-3.2.7-.1,1.3-.3.6-1.1C337.4,410.9,337.5,410.6,337.5,410.5Z" fill="#211e21"/>
      <path id="Контур_400" data-name="Контур 400" d="M347.7,371.9c1,2.2,2,4.5,3,6.7a10.374,10.374,0,0,1-1,.4c-1.1-2.2-2.1-4.5-3.2-6.7C347.1,372.5,347.8,373,347.7,371.9Z" fill="#211e21"/>
      <path id="Контур_401" data-name="Контур 401" d="M340.8,416.2c-1.1.8-1.8.5-2.2-.6-1.7-.1-2.6-1.2-3.5-2.5C337,414.1,338.9,415.1,340.8,416.2Z" fill="#211e21"/>
      <path id="Контур_402" data-name="Контур 402" d="M337.5,410.5v.5c.7.8.2,1-.6,1.1-.1-.1-.2-.2-.3-.2a2.181,2.181,0,0,1-.5-.4c-.1-.1-.2-.1-.3-.2,0-.9-.6-.8-1.2-.8h-.1v-.1c0-1,.8-1,1.5-1l.2.2a2.7,2.7,0,0,1,.8.7C337.2,410.2,337.3,410.4,337.5,410.5Z" fill="#231f24"/>
      <path id="Контур_403" data-name="Контур 403" d="M336,409.3c-.7,0-1.4,0-1.5,1-.5-.3-.9-.7-1.4-1,.3,0,.6-.1.8-.1-.3-.8-.6-1.5-.9-2.3C334.1,407.7,335,408.5,336,409.3Z" fill="#211e21"/>
      <path id="Контур_404" data-name="Контур 404" d="M329,406.4c1.4-.5,2.8.5,3.2,2.3A37.121,37.121,0,0,0,329,406.4Z" fill="#211e21"/>
      <path id="Контур_405" data-name="Контур 405" d="M330.8,405.1a4.851,4.851,0,0,1-2.1-.8,6.657,6.657,0,0,1-1.2-2C328.5,403.3,329.7,404.2,330.8,405.1Z" fill="#211e21"/>
      <path id="Контур_406" data-name="Контур 406" d="M349.8,379.1a10.374,10.374,0,0,1,1-.4c.2.5.3,1,.5,1.5-.8.6-.8-.5-1.3-.6C349.9,379.4,349.9,379.3,349.8,379.1Z" fill="#231f24"/>
      <path id="Контур_407" data-name="Контур 407" d="M327,404.9c.9,0,1.8-.1,1.7,1.2C328.1,405.7,327.5,405.3,327,404.9Z" fill="#211e21"/>
      <path id="Контур_408" data-name="Контур 408" d="M347.7,371.9c0,1-.6.5-1.1.5v-.1c.2-.4.5-.7.7-1.1A5.742,5.742,0,0,1,347.7,371.9Z" fill="#231f24"/>
      <path id="Контур_409" data-name="Контур 409" d="M333.1,407c-.8.1-1.4,0-1.3-1A11.318,11.318,0,0,1,333.1,407Z" fill="#211e21"/>
      <path id="Контур_410" data-name="Контур 410" d="M344.1,423.1c.4,0,1-.4.9.5h0c-.1.2-.2.3-.3.5h0c-.3-.2-.5-.5-.8-.7C344,423.2,344.1,423.2,344.1,423.1Z" fill="#231f24"/>
      <path id="Контур_411" data-name="Контур 411" d="M341.4,415.3c.1-.2.1-.5.2-.7.1,0,.3.1.4.1-.1.3-.1.6-.2,1A.781.781,0,0,0,341.4,415.3Z" fill="#231f24"/>
      <path id="Контур_412" data-name="Контур 412" d="M334.6,410.4c.5.1,1.2,0,1.2.8C335.4,410.9,335,410.7,334.6,410.4Z" fill="#211e21"/>
      <path id="Контур_413" data-name="Контур 413" d="M342.7,416.2c-.1-.7.4-.6.8-.6a5.55,5.55,0,0,1-.8.6Z" fill="#231f24"/>
      <path id="Контур_414" data-name="Контур 414" d="M331.8,405.9c-.5.1-1,0-.8-.7C331.3,405.5,331.6,405.7,331.8,405.9Z" fill="#211e21"/>
      <path id="Контур_415" data-name="Контур 415" d="M337,410.1a2.7,2.7,0,0,1-.8-.7C336.5,409.7,336.8,409.9,337,410.1Z" fill="#211e21"/>
      <path id="Контур_416" data-name="Контур 416" d="M332.2,408.7c.2.1.4.3.6.4C332.6,409,332.4,408.8,332.2,408.7Z" fill="#211e21"/>
      <path id="Контур_417" data-name="Контур 417" d="M336.1,411.4a2.181,2.181,0,0,1,.5.4A1.755,1.755,0,0,1,336.1,411.4Z" fill="#211e21"/>
      <path id="Контур_418" data-name="Контур 418" d="M326.9,401.9a2.181,2.181,0,0,1-.5-.4A2.182,2.182,0,0,0,326.9,401.9Z" fill="#211e21"/>
      <path id="Контур_419" data-name="Контур 419" d="M345.9,369c-.5.5-.9.2-1.1-.2,0-.1.4-.4.6-.6A2.178,2.178,0,0,0,345.9,369Z" fill="#231f24"/>
      <path id="Контур_420" data-name="Контур 420" d="M351.1,412.4a3.091,3.091,0,0,0-.8.2c.2-.6-.1-1.5,1.1-1A1.6,1.6,0,0,0,351.1,412.4Z" fill="#231f24"/>
      <path id="Контур_421" data-name="Контур 421" d="M350,372.8c-.3.1-.5.2-.8.3a.349.349,0,0,0-.1-.2,4.348,4.348,0,0,1,.7-.4C349.9,372.6,350,372.7,350,372.8Z" fill="#231f24"/>
      <path id="Контур_422" data-name="Контур 422" d="M336.6,432.6v-.5l.3.3C336.8,432.4,336.7,432.5,336.6,432.6Z" fill="#231f24"/>
      <path id="Контур_423" data-name="Контур 423" d="M344.7,424c.1-.2.2-.3.3-.5A2.187,2.187,0,0,1,344.7,424Z" fill="#211e21"/>
      <path id="Контур_424" data-name="Контур 424" d="M345.2,418.6v1.3c-.7-.3-1.3-.5-1.9-.7.3-1.2,1.1-.7,1.7-.7C345.1,418.5,345.2,418.5,345.2,418.6Z" fill="#231f24"/>
      <path id="Контур_425" data-name="Контур 425" d="M351.5,382.3l.3.6c-.1,0-.1.1-.2.1l-.3-.6C351.4,382.4,351.5,382.4,351.5,382.3Z" fill="#231f24"/>
    </g>
  </g>
</svg>
