<svg xmlns="http://www.w3.org/2000/svg" width="116.1" height="101.2" viewBox="0 0 116.1 101.2">
  <g id="Митсубиси" transform="translate(-247.5 -345.1)">
    <g id="Сгруппировать_4" data-name="Сгруппировать 4">
      <path id="Контур_203" data-name="Контур 203" d="M286.2,446.1v.2H247.5c0-.1.1-.1.1-.2h38.6Z" fill="#efe7e7"/>
      <path id="Контур_204" data-name="Контур 204" d="M324.9,446.3v-.2h38.7v.2Z" fill="#efe7e7"/>
      <path id="Контур_205" data-name="Контур 205" d="M305.6,412.5c-3-5.1-5.9-10.2-8.9-15.3-3.4-5.8-6.7-11.6-10.1-17.4a1.543,1.543,0,0,1-.1-1.6c6.3-10.8,12.5-21.7,18.7-32.6.1-.1.1-.2.3-.5,1.6,2.7,3.1,5.4,4.7,8,4.8,8.3,9.7,16.7,14.5,25.1a1.5,1.5,0,0,1,.1,1.3c-6.2,10.9-12.5,21.7-18.8,32.5-.1.1-.2.3-.3.4A.1.1,0,0,1,305.6,412.5Z" fill="#fe0101"/>
      <path id="Контур_206" data-name="Контур 206" d="M286.2,446.1H247.6c.6-1,1.1-2.1,1.7-3.1,5.6-9.8,11.2-19.6,16.8-29.3a1.424,1.424,0,0,1,1.3-.9h37.9v.4c-3,5.2-5.9,10.3-8.9,15.5-3.2,5.5-6.3,10.9-9.5,16.4A8.652,8.652,0,0,1,286.2,446.1Z" fill="#fe0101"/>
      <path id="Контур_207" data-name="Контур 207" d="M363.6,446.1H324.9c-6.4-11-12.7-21.9-19.1-32.9v-.3c.4,0,.8-.1,1.1-.1h36.5a1.488,1.488,0,0,1,1.5.7c6.2,10.8,12.4,21.5,18.7,32.3Z" fill="#fe0000"/>
      <path id="Контур_208" data-name="Контур 208" d="M305.8,412.9h0a1,1,0,0,1-.5.4v-.4c.1-.1.2-.2.2-.3h.2C305.8,412.6,305.8,412.7,305.8,412.9Z" fill="#fd0f0f"/>
    </g>
  </g>
</svg>
