<svg xmlns="http://www.w3.org/2000/svg" width="500" height="72.2" viewBox="0 0 500 72.2">
  <g id="нисан" transform="translate(6 -355.9)">
    <g id="Сгруппировать_13" data-name="Сгруппировать 13">
      <path id="Контур_426" data-name="Контур 426" d="M78,428H49c-2.5-2.9-5.4-5.6-7.5-8.9-9.1-14.3-18-28.7-27-43a41,41,0,0,0-2.6-3.2V426c-.1.3-.1.6-.2.9.1.3.2.7.3,1H-5V356.8c5.1,0,10.2.2,15.4,0,3.9-.1,7.8-.6,11.6-.9h1c2.6,2.5,5.8,4.7,7.7,7.7,9.8,15,19.2,30.3,28.8,45.5a26.828,26.828,0,0,0,2.1,2.4c0-17.3,0-33.7.1-50.1,0-1.8.9-3.7,1.3-5.5h4c1.7.6,3.5,1.9,5.1,1.8,5-.4,6.1,1.7,6.1,6.3-.2,21-.1,42.1-.1,63.1A2.22,2.22,0,0,1,78,428Z" fill="#cc1531"/>
      <path id="Контур_427" data-name="Контур 427" d="M478,356c4.8,0,9.7-.1,14.5.1.5,0,1,1.2,1.5,1.9-.3,1.6-1,3.2-1,4.8-.1,19.8-.1,39.7,0,59.5a20.534,20.534,0,0,0,1,4.8c-.7.3-1.3.7-2,1H464c-2.4-2.3-5.3-4.4-7-7.1-9.5-14.8-18.7-29.7-28.1-44.5-.6-1-1.9-1.6-2.9-2.4-.3,1.4-1,2.8-1,4.2-.1,15-.1,30,0,44.9a17.176,17.176,0,0,0,.8,3.8c0,.3.1.7.1,1h-16c0-23.7-.1-47.4-.1-71.2l-.1.1,1.2-.9h25c3,2.5,6.7,4.4,8.8,7.5,6.9,10.2,13.1,20.9,19.7,31.3,3.4,5.4,7,10.8,10.5,16.2.4-.1.7-.2,1.1-.3V358c.3-.4.6-.7.9-1.1A10.627,10.627,0,0,0,478,356Z" fill="#cc1531"/>
      <path id="Контур_428" data-name="Контур 428" d="M207,356h2c.1,3.7-.1,7.3.2,11,.4,3.7-.9,4.9-4.7,4.8-14.8-.2-29.6-.1-44.4-.2-3.1,0-6.1-.2-6.1,4.4,0,4.1,2.3,4.8,5.8,5.1,12.1,1.1,24.1,2.3,36.2,3.9,6.3.8,12,3.4,14.4,10,2.7,7.4,2.3,15,.3,22.5-.3,1-1.6,1.8-2.4,2.6-2.8.4-4.2,1.8-3.7,4.8-2.5,1.1-5,2.1-7.5,3.2h-5a31.459,31.459,0,0,0-5.2-.9c-17.3-.1-34.6,0-51.9,0-.2-4.8-.5-9.7-.8-14.9,18.1,0,35.2-.1,52.3.1,4.5.1,5.8-1.5,5.6-5.8-.2-4.1-2.5-4.9-5.8-5.2-11.6-1-23.2-1.8-34.7-3.4-4.4-.6-8.4-3.2-12.6-4.9.6-.7,1.1-1.4,1.7-2.1-.2-.2-.5-.4-.7-.6-.6.6-1.3,1.2-1.9,1.8-8.8-11.4-4-29.6,9.1-34.7a12.734,12.734,0,0,0,1.9-1.3h4a16.633,16.633,0,0,0,3.7.9c15.5.1,31.1.1,46.6,0C204.5,356.9,205.8,356.3,207,356Z" fill="#cc122e"/>
      <path id="Контур_429" data-name="Контур 429" d="M240,356h4a16.633,16.633,0,0,0,3.7.9c15.5.1,31,.1,46.6,0a16.633,16.633,0,0,0,3.7-.9h2v15.7h-5.5c-14.5,0-28.9,0-43.4-.1-3.1,0-6.1-.2-6.1,4.4,0,4.2,2.4,4.7,5.8,5,12.1,1.1,24.2,2.3,36.2,3.9,10.4,1.4,15.8,7.9,16.1,18.7,0,2,.1,4,0,6-.3,9.3-5.2,17-15,17.5-.3,0-.7.6-1,.9h-3a31.46,31.46,0,0,0-5.2-.9c-16.9-.1-33.9-.1-50.8-.1a38.556,38.556,0,0,1-.9-4.9c-.6-7.9-.4-8.1,7.5-8.1,13.8,0,27.5.1,41.3-.1,1.7,0,3.5-1.1,5.2-1.7.5-2.7,1.8-5.6,1.2-8.1-.2-1.3-3.6-2.5-5.7-2.7-11.6-1.3-23.2-2.1-34.8-3.4-6.8-.8-13.2-3-15.7-10.4-4.7-13.7.2-24.9,13.4-30.8C239.7,356.7,239.8,356.3,240,356Z" fill="#cc1632"/>
      <path id="Контур_430" data-name="Контур 430" d="M340,356h7l14.1.9h6c2,1.8,4.7,3.2,5.7,5.4q13.5,30,26.5,60.1a35.849,35.849,0,0,1,1.6,5.6h-20c-2.3-4.9-4.7-9.9-7-14.8a12.413,12.413,0,0,0-3.6-1.1q-16.35-.15-32.7,0c-1.2,0-2.4.7-3.7,1.1-2.6,4.9-5.3,9.9-7.9,14.8H307a19.971,19.971,0,0,1,1.1-4.2c8.6-19.8,17.2-39.6,26-59.3C335.4,361.4,338,358.8,340,356Zm28.1,42.5c-3.4-8.5-6.6-16.6-10-24.6-1.1-2.7-6.7-3.1-7.8-.5-3.7,8.2-7,16.6-10.6,25.1Z" fill="#cc1531"/>
      <path id="Контур_431" data-name="Контур 431" d="M115,356c.7,1.5,2,2.9,2,4.4.1,22.5,0,45.1,0,67.6H97c0-21.4-.1-42.9,0-64.3,0-2.6.7-5.1,1-7.7Z" fill="#cc1430"/>
      <path id="Контур_432" data-name="Контур 432" d="M78,356c.6,1.6,1.7,3.2,1.7,4.8q.15,31.2,0,62.4c0,1.4-1,2.7-1.6,4.1,0-21-.1-42.1.1-63.1,0-4.6-1.1-6.8-6.1-6.3-1.6.1-3.4-1.1-5.1-1.8C70.7,356,74.3,356,78,356Z" fill="#d3334a"/>
      <path id="Контур_433" data-name="Контур 433" d="M409,428a40.678,40.678,0,0,1-.5-4.9c-.1-20.4-.1-40.7-.1-61.1,0-1.7.9-3.4,1.4-5.2,0,23.7.1,47.4.1,71.2Z" fill="#cb1229"/>
      <path id="Контур_434" data-name="Контур 434" d="M226,428c-.4-5-.7-10.1-1.1-15.8H281c-1.7.6-3.5,1.7-5.2,1.7-13.8.1-27.5.1-41.3.1-7.9,0-8.1.2-7.5,8.1a46.33,46.33,0,0,0,.9,4.9l-1,1Z" fill="#cc122e"/>
      <path id="Контур_435" data-name="Контур 435" d="M-5,356.9V428c-.3-.3-1-.7-1-1V357c0-.3.6-.7,1-1Z" fill="#d12a46"/>
      <path id="Контур_436" data-name="Контур 436" d="M494,427c-.3-1.6-1-3.2-1-4.8-.1-19.8-.1-39.7,0-59.5a20.534,20.534,0,0,1,1-4.8Z" fill="#d12a46"/>
      <path id="Контур_437" data-name="Контур 437" d="M135,428a3.083,3.083,0,0,1-.1-1c17.3,0,34.6-.1,51.9,0a31.459,31.459,0,0,1,5.2.9C173,428,154,428,135,428Z" fill="#d53f56"/>
      <path id="Контур_438" data-name="Контур 438" d="M227,428l1-1c16.9,0,33.9,0,50.8.1a31.46,31.46,0,0,1,5.2.9Z" fill="#d53f56"/>
      <path id="Контур_439" data-name="Контур 439" d="M207,356a16.633,16.633,0,0,1-3.7.9c-15.5.1-31.1.1-46.6,0a16.633,16.633,0,0,1-3.7-.9Z" fill="#d43c56"/>
      <path id="Контур_440" data-name="Контур 440" d="M298,356a16.633,16.633,0,0,1-3.7.9c-15.5.1-31,.1-46.6,0a16.633,16.633,0,0,1-3.7-.9Z" fill="#d43c56"/>
      <path id="Контур_441" data-name="Контур 441" d="M-5,356.9V356H22c-3.9.3-7.8.8-11.6.9C5.2,357.1.1,356.9-5,356.9Z" fill="#d22d49"/>
      <path id="Контур_442" data-name="Контур 442" d="M466,428h0Z" fill="#d22d49"/>
      <path id="Контур_443" data-name="Контур 443" d="M361.1,356.9,347,356h14A2.768,2.768,0,0,0,361.1,356.9Z" fill="#d53f56"/>
      <path id="Контур_444" data-name="Контур 444" d="M361.1,356.9a2.768,2.768,0,0,1-.1-.9h6a2.768,2.768,0,0,0,.1.9Z" fill="#e07284"/>
      <path id="Контур_445" data-name="Контур 445" d="M409.8,356.9a2.92,2.92,0,0,0,.2-.9h1Z" fill="#cb1229"/>
      <path id="Контур_446" data-name="Контур 446" d="M11.9,426c-.1.3-.1.6-.2.9A2.92,2.92,0,0,0,11.9,426Z" fill="#c90727"/>
      <path id="Контур_447" data-name="Контур 447" d="M426,374c0,17.7-.1,35.3-.1,53a17.176,17.176,0,0,1-.8-3.8c-.1-15-.1-30,0-44.9A20.539,20.539,0,0,1,426,374Z" fill="#c50016"/>
      <path id="Контур_448" data-name="Контур 448" d="M476.1,358c.3-.4.6-.7.9-1.1C476.7,357.3,476.4,357.6,476.1,358Z" fill="#c90425"/>
      <path id="Контур_449" data-name="Контур 449" d="M208.2,420.1c-1.2,1.6-2.5,3.2-3.7,4.8C204,421.9,205.4,420.5,208.2,420.1Z" fill="#cd1833"/>
      <path id="Контур_450" data-name="Контур 450" d="M138.9,393a9.014,9.014,0,0,1-.9-1c.6-.6,1.3-1.2,1.9-1.8.2.2.5.4.7.6C140,391.6,139.5,392.3,138.9,393Z" fill="#cd1833"/>
      <path id="Контур_451" data-name="Контур 451" d="M374,413.2H334a12.135,12.135,0,0,1,3.7-1.1q16.35-.15,32.7,0C371.5,412.1,372.7,412.8,374,413.2Z" fill="#c60018"/>
    </g>
  </g>
</svg>
