<svg xmlns="http://www.w3.org/2000/svg" width="106.4" height="103.3" viewBox="0 0 106.4 103.3">
  <g id="опель" transform="translate(-251.7 -343.8)">
    <g id="Сгруппировать_14" data-name="Сгруппировать 14">
      <path id="Контур_452" data-name="Контур 452" d="M309.9,343.8c.5.1.9.2,1.4.3a37.476,37.476,0,0,1,31.3,28.2,39.155,39.155,0,0,1,.8,11.7l8.7.6v6c0,.2-.7.5-1,.5-2.7,0-5.3-.1-8-.1h-.9c-3,9.3-8.4,16.8-16.9,21.9a38.008,38.008,0,0,1-20,5.1c-20-.1-35.7-18-35.5-37l-12.3-.6V374h12.9a41.335,41.335,0,0,1,6.8-15.1,37.2,37.2,0,0,1,26-14.8,1.421,1.421,0,0,0,.6-.2C305.9,343.8,307.9,343.8,309.9,343.8Zm30.5,40.1c1.9-15.4-9.9-34.7-30.2-36.4a33.785,33.785,0,0,0-36.6,26.4h49.8c-3.3,2.9-6.4,5.6-9.6,8.5C322.8,382.9,331.6,383.4,340.4,383.9Zm-1.4,7H285.2v-.3c3.8-2.8,7.6-5.5,11.7-8.4-8.3-.4-16.2-.8-24.1-1.1-.8,14.3,10.1,29.9,27.2,33C320.5,417.7,335.1,404.3,339,390.9Z" fill="#cc0403"/>
      <path id="Контур_453" data-name="Контур 453" d="M251.7,429.9c.1-.2.3-.4.4-.6a5.578,5.578,0,0,1,5.5-3.8c5.4-.1,10.9-.1,16.3,0a5.647,5.647,0,0,1,5.8,5.9v9.4a5.623,5.623,0,0,1-5.7,5.9q-8.25.15-16.5,0a5.456,5.456,0,0,1-5.4-3.8c-.1-.2-.3-.4-.4-.6v-.6a1.445,1.445,0,0,0,.2-.7v-9.8a2.544,2.544,0,0,0-.2-.7Q251.7,430.2,251.7,429.9Zm14.1,11.9h5.6a1.972,1.972,0,0,0,2.2-2.1v-6.8a1.813,1.813,0,0,0-1.9-2c-3.9-.1-7.9-.1-11.8,0-1.3,0-1.9.8-1.9,2.1v6.5c0,1.6.7,2.3,2.2,2.3C262.1,441.9,263.9,441.8,265.8,441.8Z" fill="#090b0a"/>
      <path id="Контур_454" data-name="Контур 454" d="M251.7,430.6a1.445,1.445,0,0,1,.2.7v9.8a2.544,2.544,0,0,1-.2.7Z" fill="#3c3c3e"/>
      <path id="Контур_455" data-name="Контур 455" d="M309.4,447V426.1h24.9v4.8H316.1v2.9h14.7v4.8H316.1v3.7h18.2v4.8C326.1,447,317.8,447,309.4,447Z" fill="#080909"/>
      <path id="Контур_456" data-name="Контур 456" d="M288.7,441.9v4.9h-6.4V425.9h18.4c4.5,0,7.3,2.8,7.3,7.3a16.679,16.679,0,0,1-.3,3.9,6.543,6.543,0,0,1-6.4,4.8Zm-.4-5.4h10.6c1.7,0,2.3-.8,2.3-2.7,0-1.8-.7-2.5-2.4-2.5H288.3Z" fill="#080a09"/>
      <path id="Контур_457" data-name="Контур 457" d="M336.3,447.1V426.2h6.6v15.7h15.2v5.2Z" fill="#090a0a"/>
    </g>
  </g>
</svg>
