<svg xmlns="http://www.w3.org/2000/svg" width="129.1" height="104.818" viewBox="0 0 129.1 104.818">
  <g id="пеже" transform="translate(-240.3 -343)">
    <g id="Сгруппировать_15" data-name="Сгруппировать 15">
      <path id="Контур_458" data-name="Контур 458" d="M342.4,343v.3H267.1l-.3-.3Z" fill="#c2cada"/>
      <path id="Контур_459" data-name="Контур 459" d="M240.3,429.7h.2a.367.367,0,0,0,.1.3c0,5.6,0,11.2-.1,16.8h-.2Q240.3,438.25,240.3,429.7Z" fill="#dfe4ee"/>
      <path id="Контур_460" data-name="Контур 460" d="M267.1,418c0-.5-.1-1-.1-1.5V345c0-.5.1-.9.1-1.4h74.7v74.5Q304.6,417.95,267.1,418ZM331,371c.7,1.1,1.7,1.5,3.2,1.9a7.212,7.212,0,0,0-.5-2,5.933,5.933,0,0,1-.2-5.2c.1-.4.2-.7.3-1.1a6.542,6.542,0,0,0-2.1-6.2,6.016,6.016,0,0,0-5.9-2.4c-3,.4-4.6,2.5-5.4,5.1a66.039,66.039,0,0,0-3.6-6.4,7.069,7.069,0,0,0-2.9-2.8c-3.6-1.3-7.4-2.1-11.1,0a.1.1,0,0,0-.1.1c-2.1.5-3.7,2.3-6,2.3-.3,0-.5.1-.8.1-1.5.4-1.8.9-1.1,2.3.1.3.3.6.4.9a2.57,2.57,0,0,0,3.8.7c1.7-1.5,3.2-1.3,4.8.6-2.2,1.6-5.1-.4-7.3,1.4,1.9,1.5,4.2.2,6.3,1.2-1.9,1.2-3.9.4-5.7.8a2.791,2.791,0,0,0,2,2.6,1.255,1.255,0,0,1,.6,1.1c-.5,1.1-1.1,2.1-1.7,3.2-.5-.3-.7-.5-1-.7-3.3-2.7-6.7-5.3-9.9-8.1-2.5-2.2-5.3-2.3-8.2-1.9-.8.1-2.5.1-1.7,2a1.69,1.69,0,0,1-.2.5,2.42,2.42,0,0,0,.1,2.7,6,6,0,0,0,1.2,1.1,7.145,7.145,0,0,0,2.1.2,2.958,2.958,0,0,0-.2,1v.8a1.936,1.936,0,0,0,2,1.5h4.6c1.3,1.6,2.6,3.2,4.1,5.1-3.3.1-6.3.2-9.3.3a4.332,4.332,0,0,0-4.1,5.4,1.007,1.007,0,0,0,.1.3c.8.8,1.7,1.5,2.5,2.2l.9.9c1.1-.4,1.9-.7,2.7-1,.2.1.3.2.5.3.6,1.3,1,1.6,2.3,1a6.872,6.872,0,0,0,2.1-1.6,1.965,1.965,0,0,1,1.7-.9c1.9,0,3.9-.1,5.8-.1,1.2,1.4,2.4,2.7,3.7,4.1-3.7,3.9-6.3,8.5-8.7,13.1a1.515,1.515,0,0,0-.1,1.3c.5,1,.6,2-.2,2.6a4.3,4.3,0,0,1-2.5.7c-1,0-2-.5-3-.6a3.028,3.028,0,0,0-3.4,1.7l-1.7,3.4c1.8,1.2,3.5,2.4,5.2,3.6.5.4,1.2,1.3,1.5,1.2,3.1-1,6-.2,8.9.5a12.749,12.749,0,0,0,2,.1,6.559,6.559,0,0,0-.1-2,4.009,4.009,0,0,1,.8-4.2c3.3-3.3,6.5-6.5,9.9-9.6a1.479,1.479,0,0,1,1.3,0l4.5,3c1.9,1.3,3.7,2.5,6.2,2a1.8,1.8,0,0,1-1.9,2.6,16.356,16.356,0,0,0-2.2-.2c-1,.2-2.3.5-2.6,1.1a19.686,19.686,0,0,0-1.1,4.8,2.527,2.527,0,0,0,2.2,1.6,29.158,29.158,0,0,1,3.8,1.4c.4.1.9.4,1.2.2,3-1.2,6-.9,9-.3,1.8.4,2.2-.1,1.6-1.9a16.924,16.924,0,0,1-.9-5.9c.1-1.9,0-3.8,0-5.7,0-.9-.2-1.7-1.2-2-.1-.8-.4-1-1.2-1.1a6.762,6.762,0,0,1-2.3-.7c-.5-1.6-1.1-3.2-1.6-4.9a5.64,5.64,0,0,0,1.2-.4c5.3-1.6,7.7-5.3,6.4-10.6-.9-3.6-2.6-7-3.9-10.5a33.5,33.5,0,0,1-1.7-6.2c-.3-1.7.6-2.3,2.3-2.2a31.994,31.994,0,0,0-.7,4.1c.1,2.3,1.7,3.9,3.2,5.4.1.1.2.2.3.2s.1.1.2.1c.1.1.2.2.3.2C330.7,370.8,330.8,370.9,331,371Z" fill="#2a4188"/>
      <path id="Контур_461" data-name="Контур 461" d="M352.6,437.9c-.1,6.2-3.9,10-10.1,9.8-5.3-.1-9-3.8-9-9.5.1-5.7,4.1-9.4,9.9-9.4C349,428.9,352.6,432.5,352.6,437.9Zm-4.4.4a36.168,36.168,0,0,0-1.3-4.7,4.246,4.246,0,0,0-7.6-.3,10.6,10.6,0,0,0,0,9.8,4.1,4.1,0,0,0,4.1,2.4,3.872,3.872,0,0,0,3.7-2.7C347.6,441.4,347.8,439.9,348.2,438.3Z" fill="#2b4288"/>
      <path id="Контур_462" data-name="Контур 462" d="M288.9,429.6h4.6v10.9c-.1,3.7-1.8,5.9-5.4,6.9a10.89,10.89,0,0,1-6.9-.3c-2.5-.9-4.2-2.6-4.3-5.4-.1-4,0-8,0-12.1h4.4c0,.3.1.6.1,1v10.5a4.227,4.227,0,0,0,3.6,4.6c1.6.3,3.8-1.9,3.9-3.9V431.1Q288.9,430.35,288.9,429.6Z" fill="#2c4389"/>
      <path id="Контур_463" data-name="Контур 463" d="M307.5,445.5h.8c.3-.1.7-.2,1-.3h0a1.905,1.905,0,0,0,.5-1,26.7,26.7,0,0,0,0-4c-.1-1.1.4-1.3,1.3-1.3a22.532,22.532,0,0,0,2.6,0v2.2c.1,1.6.1,3.2.2,4.8a14.322,14.322,0,0,1-13.2.4,8.12,8.12,0,0,1-4.1-4.8,9.317,9.317,0,0,1,6-12,16.5,16.5,0,0,1,10.3.2l.6.3c-.2.6-.4,1.2-.6,1.9-2.9-.5-5.7-1.2-8.4.5-2.8,1.7-3.7,4.3-3.4,7.4.2.7.5,1.5.7,2.2.1,0,.1.1.1.2a9.223,9.223,0,0,1,.5.8h0c.2.2.3.4.5.6h0l.4.4h0v-.1c.1.1.2.1.3.2h0c.4,1.2,1.6,1.3,2.6,1.5C306.5,445.8,307,445.6,307.5,445.5Z" fill="#2c4388"/>
      <path id="Контур_464" data-name="Контур 464" d="M329.5,436.5c.1.6.3,1.2.4,2h-7.1v5.7c.4.2.7.5,1.1.5,1.9.1,3.9,0,5.8,0,.7,0,1.5-.1,1.5.9s-.8.9-1.5.9c-3.3,0-6.5-.1-9.8,0-1.1,0-1.4-.4-1.3-1.4v-13c0-.4-.2-.9-.2-1.3h-.2v-.5l.2-.2h11.7c1.3,0,1.4.3,1,1.6h-8v.3h8v.2h-8.2v4.5h4.8c-1.5.1-3.1.2-4.6.3a38.748,38.748,0,0,0,5.9.1A1.47,1.47,0,0,1,329.5,436.5Z" fill="#2c4389"/>
      <path id="Контур_465" data-name="Контур 465" d="M264.8,438.5v5.6c.4.9.9.7,1.5.3h5.1c.5.2.9.3,1.4.5.3,1.6.3,1.6-1.2,1.6h-9.8c-.9,0-1.2-.2-1.2-1.1V431.1c0-.9.3-1.1,1.1-1.1h10.2c.6,0,1.3,0,1,.8a1.446,1.446,0,0,1-1,.7c-2,.1-4,0-6.1.1-.4,0-.7.3-1.1.5v4.3h7.1a19.136,19.136,0,0,0-.4,2.1c-.2-.1-.4-.4-.7-.4h-5.4C265.3,438,265.1,438.3,264.8,438.5Z" fill="#2a4288"/>
      <path id="Контур_466" data-name="Контур 466" d="M359.7,446.8a.6.6,0,0,1-.4-.1c-.1-.3-.2-.5-.3-.8,0-3.5-.1-7.1-.1-10.6v-3.4h-5.6v-2.4h16.1v2.4h-5.8a4.961,4.961,0,0,0-.3,1.3v12c0,1-.3,1.3-1.3,1.2C361.1,446.5,360.4,446.7,359.7,446.8Z" fill="#31478b"/>
      <path id="Контур_467" data-name="Контур 467" d="M267.1,418h75.2c-.1.2-.1.4-.2.5a3.352,3.352,0,0,1-1,0H268.4A4.284,4.284,0,0,1,267.1,418Z" fill="#334685"/>
      <path id="Контур_468" data-name="Контур 468" d="M342.4,418h-.5V343.5h.5V418Z" fill="#243c80"/>
      <path id="Контур_469" data-name="Контур 469" d="M264.8,432c.4-.2.7-.5,1.1-.5,2-.1,4,0,6.1-.1.4,0,1-.4,1-.7.2-.8-.4-.8-1-.8H261.8c-.8,0-1.1.2-1.1,1.1v14.3c0,.9.3,1.2,1.2,1.1h9.8c1.5,0,1.5,0,1.2-1.6-.5-.2-.9-.3-1.4-.5a16.251,16.251,0,0,0,1.9-.4v2.8H260.2V429.5h12.6c.2,0,.3.1.5.1v2.3C270.5,432,267.7,432,264.8,432Z" fill="#21377f"/>
      <path id="Контур_470" data-name="Контур 470" d="M342.4,343.6H267.2v-.3h75.3A.367.367,0,0,0,342.4,343.6Z" fill="#182867"/>
      <path id="Контур_471" data-name="Контур 471" d="M318.4,430.7a5.852,5.852,0,0,1,.2,1.3v13c0,1,.2,1.4,1.3,1.4,3.3-.1,6.5,0,9.8,0,.7,0,1.5,0,1.5-.9,0-1-.9-.9-1.5-.9h-5.8c-.4,0-.7-.3-1.1-.5h8.6V447H319.2c-.4,0-.7-.3-1.1-.5V433.1Z" fill="#334586"/>
      <path id="Контур_472" data-name="Контур 472" d="M240.5,446.7c0-5.6,0-11.2.1-16.8h.3a19.418,19.418,0,0,1,.2,2.4v13c0,.4.3,1.1.5,1.1a13.1,13.1,0,0,0,2.8,0c.2,0,.5-.5.5-.8.1-1.3,0-2.7,0-4,0-.4.3-.7.4-1.1h.1c0,2-.1,4-.1,6-.1.1-.1.2-.2.3C243.6,446.8,242,446.8,240.5,446.7Z" fill="#20377d"/>
      <path id="Контур_473" data-name="Контур 473" d="M240.8,429.9h-.3a.367.367,0,0,0-.1-.3,3.091,3.091,0,0,1,.8-.2c3.9,0,7.8,0,11.7.2a9.63,9.63,0,0,1,3.1,1.1l-.1.1a16.373,16.373,0,0,0-5.8-.9C247.1,430,243.9,429.9,240.8,429.9Z" fill="#4b5b91"/>
      <path id="Контур_474" data-name="Контур 474" d="M331,432v-.5c.4-1.3.2-1.6-1-1.6H318.1c.2-.1.3-.4.5-.4h13.1C331.4,430.4,331.2,431.2,331,432Z" fill="#334586"/>
      <path id="Контур_475" data-name="Контур 475" d="M313.7,439h-2.6c-1-.1-1.4.2-1.3,1.3a26.693,26.693,0,0,1,0,4c0,.3-.3.6-.5,1v-6.7h4.3c.1,0,.2.3.4.5A.367.367,0,0,0,313.7,439Z" fill="#2b4288"/>
      <path id="Контур_476" data-name="Контур 476" d="M359.7,446.8a8.329,8.329,0,0,1,2.2-.3c1,0,1.3-.3,1.3-1.2-.1-4,0-8,0-12a7.9,7.9,0,0,1,.3-1.3v14.8Z" fill="#142b76"/>
      <path id="Контур_477" data-name="Контур 477" d="M264.8,438.5c.2-.2.5-.5.7-.5h5.4c.2,0,.4.3.7.4C269.3,438.4,267.1,438.5,264.8,438.5Z" fill="#20377d"/>
      <path id="Контур_478" data-name="Контур 478" d="M256.8,431.5a5.291,5.291,0,0,1,.1,6.8l-.1-.1c1-2.1,1.4-4.2,0-6.3v-.4Z" fill="#4b5b91"/>
      <path id="Контур_479" data-name="Контур 479" d="M329.5,436.5c-.2.1-.4.4-.5.4-2,0-3.9,0-5.9-.1,1.5-.1,3.1-.2,4.6-.3Z" fill="#20377d"/>
      <path id="Контур_480" data-name="Контур 480" d="M252.2,440.3c-.5,0-1,.1-1.6.1-1.7-.1-3.4-.1-5.2-.2a2.92,2.92,0,0,1,.9-.2h5.9Q252.2,440.15,252.2,440.3Z" fill="#20377d"/>
      <path id="Контур_481" data-name="Контур 481" d="M307.5,445.5a3.645,3.645,0,0,1-1.4.2c-1-.2-2.2-.2-2.6-1.5C304.8,444.7,306.2,445.1,307.5,445.5Z" fill="#2b4288"/>
      <path id="Контур_482" data-name="Контур 482" d="M313.7,439h.3v7c-.1-1.6-.1-3.2-.2-4.8A16.955,16.955,0,0,1,313.7,439Z" fill="#243c80"/>
      <path id="Контур_483" data-name="Контур 483" d="M252.2,440.3a.367.367,0,0,1,.1-.3c1.2-.3,2.3-.6,3.5-.8l.1.1C254.6,439.6,253.4,440,252.2,440.3Z" fill="#4b5b91"/>
      <path id="Контур_484" data-name="Контур 484" d="M245.4,440.3c1.7.1,3.4.1,5.2.2-1.7,0-3.4.1-5.1.1h-.1Q245.4,440.45,245.4,440.3Z" fill="#4b5b91"/>
      <path id="Контур_485" data-name="Контур 485" d="M318.1,440.3v0Z" fill="#334685"/>
      <path id="Контур_486" data-name="Контур 486" d="M266.4,444.4c-.6.4-1.2.6-1.5-.3Z" fill="#21377f"/>
      <path id="Контур_487" data-name="Контур 487" d="M301.8,442.1c-.2-.7-.5-1.5-.7-2.2C301.3,440.6,301.5,441.3,301.8,442.1Z" fill="#2b4288"/>
      <path id="Контур_488" data-name="Контур 488" d="M318.4,430.7a17.851,17.851,0,0,0-.2,2.3v-2.3Z" fill="#334685"/>
      <path id="Контур_489" data-name="Контур 489" d="M256,430.7l.8.8-.1.1c-.2-.3-.5-.6-.7-.9Z" fill="#4b5b91"/>
      <path id="Контур_490" data-name="Контур 490" d="M318.1,433.8v0Z" fill="#334685"/>
      <path id="Контур_491" data-name="Контур 491" d="M309.3,445.2c-.3.1-.7.2-1,.3C308.6,445.4,309,445.3,309.3,445.2Z" fill="#2b4288"/>
      <path id="Контур_492" data-name="Контур 492" d="M302.4,443.1a9.223,9.223,0,0,1-.5-.8A9.235,9.235,0,0,0,302.4,443.1Z" fill="#2b4288"/>
      <path id="Контур_493" data-name="Контур 493" d="M256.4,438.9c-.2.1-.4.3-.6.4l-.1-.1c.2-.2.4-.3.6-.5C256.3,438.8,256.4,438.8,256.4,438.9Z" fill="#4b5b91"/>
      <path id="Контур_494" data-name="Контур 494" d="M256.9,438.3c-.2.2-.3.4-.5.6l-.1-.1.5-.5C256.8,438.2,256.9,438.3,256.9,438.3Z" fill="#4b5b91"/>
      <path id="Контур_495" data-name="Контур 495" d="M302.8,443.6c-.2-.2-.3-.4-.5-.6A3.81,3.81,0,0,0,302.8,443.6Z" fill="#2b4288"/>
      <path id="Контур_496" data-name="Контур 496" d="M358.9,446c.1.3.2.5.3.8C359.1,446.5,359,446.3,358.9,446Z" fill="#142b76"/>
      <path id="Контур_497" data-name="Контур 497" d="M273.4,429.7c-.2,0-.3-.1-.5-.1A1.087,1.087,0,0,1,273.4,429.7Z" fill="#5d6c99"/>
      <path id="Контур_498" data-name="Контур 498" d="M272.3,429.6h0Z" fill="#5d6c99"/>
      <path id="Контур_499" data-name="Контур 499" d="M303.2,444.1l-.4-.4A.781.781,0,0,1,303.2,444.1Z" fill="#2b4288"/>
      <path id="Контур_500" data-name="Контур 500" d="M318.1,446v0Z" fill="#334685"/>
      <path id="Контур_501" data-name="Контур 501" d="M318.1,429.9h.2l-.2.2Z" fill="#334685"/>
      <path id="Контур_502" data-name="Контур 502" d="M303.5,444.3c-.1-.1-.2-.1-.3-.2C303.3,444.1,303.4,444.2,303.5,444.3Z" fill="#2b4288"/>
      <path id="Контур_503" data-name="Контур 503" d="M245.2,446.8c.1-.1.1-.2.2-.3C245.3,446.6,245.2,446.7,245.2,446.8Z" fill="#2c4389"/>
      <path id="Контур_504" data-name="Контур 504" d="M285.2,410.1c3.1-1.5,6.3-.7,9.4,0a6.533,6.533,0,0,0,1.4,0,7.518,7.518,0,0,0,0-1.5,3.547,3.547,0,0,1,.9-3.9c3.5-3.6,7-7.2,10.5-10.9,2.4,1.6,4.5,3.1,6.7,4.5,1.2.8,2.4,1.7,4.1,1.4,1-.2,1.7.5,2,1.5-2.4.5-4.3-.8-6.2-2-1.5-1-3-2.1-4.5-3a1.479,1.479,0,0,0-1.3,0l-9.9,9.6a3.651,3.651,0,0,0-.8,4.2,6.559,6.559,0,0,1,.1,2,13.4,13.4,0,0,1-2-.1c-2.9-.6-5.8-1.5-8.9-.5C286.4,411.4,285.7,410.5,285.2,410.1Z" fill="#969697"/>
      <path id="Контур_505" data-name="Контур 505" d="M324.5,395.3c-.3-.3-.8-.5-.9-.8-.8-1.8-1.6-3.7-2.4-5.6a8.471,8.471,0,0,0,1.7-.4c5.2-1.3,7.3-4.5,5.8-9.7-1-3.4-2.5-6.7-3.6-10a36.4,36.4,0,0,1-1.6-6.3,5.031,5.031,0,0,1,1-2.8c.8-1.2,1.9-1.1,3.2-.1a4.053,4.053,0,0,0-.5.9c-1.7-.1-2.6.5-2.3,2.2a35.778,35.778,0,0,0,1.7,6.2c1.2,3.5,3,6.9,3.9,10.5,1.3,5.3-1.1,9-6.4,10.6a5.64,5.64,0,0,0-1.2.4C323.4,392.1,324,393.7,324.5,395.3Z" fill="#959596"/>
      <path id="Контур_506" data-name="Контур 506" d="M312.3,409.6c1.6.5,3.2,1,4.9,1.5.5.1,1,.4,1.4.2a13.358,13.358,0,0,1,8.6-.5,5.652,5.652,0,0,0,1.3,0,8.6,8.6,0,0,0-.1-1.6,22.492,22.492,0,0,1-.5-2.2c-.1-3.1,0-6.2,0-9.3a1.421,1.421,0,0,1,.2-.6c1,.3,1.2,1.1,1.2,2v5.7a13.292,13.292,0,0,0,.9,5.9c.7,1.7.2,2.2-1.6,1.9-3-.6-6-.9-9,.3a2.744,2.744,0,0,1-1.2-.2,29.158,29.158,0,0,0-3.8-1.4A3.137,3.137,0,0,1,312.3,409.6Z" fill="#959597"/>
      <path id="Контур_507" data-name="Контур 507" d="M331,371h1.5a4.672,4.672,0,0,0-.3-1.7,4.89,4.89,0,0,1-.2-4.7,7.711,7.711,0,0,0-.3-6.3,6.621,6.621,0,0,1,2.1,6.2,3.546,3.546,0,0,1-.3,1.1,5.933,5.933,0,0,0,.2,5.2,8.3,8.3,0,0,1,.5,2A4.314,4.314,0,0,1,331,371Z" fill="#959599"/>
      <path id="Контур_508" data-name="Контур 508" d="M284.2,381.9c1.6-.4,3.1-.9,3.8-2.6.1-.2.6-.2.9-.2,1.6,0,3.2,0,4.8-.1a1.914,1.914,0,0,1,2.2,1.3c-1.9,0-3.9.1-5.8.1a1.965,1.965,0,0,0-1.7.9,4.741,4.741,0,0,1-2.1,1.6C285.2,383.5,284.8,383.2,284.2,381.9Z" fill="#979798"/>
      <path id="Контур_509" data-name="Контур 509" d="M280.1,366.8a41.306,41.306,0,0,1,5,.1c.5.1,1,.9,1.5,1.4-1.5,0-3,.1-4.6,0A1.9,1.9,0,0,1,280.1,366.8Z" fill="#959597"/>
      <path id="Контур_510" data-name="Контур 510" d="M280,381.7c1.1-.6,2.2-1.2,3.7-2v1.9c-.8.3-1.6.6-2.7,1A6.525,6.525,0,0,1,280,381.7Z" fill="#979798"/>
      <path id="Контур_511" data-name="Контур 511" d="M277,363.8c1.3,0,2.7-.3,3.3,1.3a13.61,13.61,0,0,1-2.1-.2C277.7,364.7,277.4,364.1,277,363.8Z" fill="#959599"/>
      <path id="Контур_512" data-name="Контур 512" d="M330.2,370.5c.1.1.2.2.3.2C330.4,370.6,330.3,370.6,330.2,370.5Z" fill="#959599"/>
      <path id="Контур_513" data-name="Контур 513" d="M329.8,370.1c.1.1.2.2.3.2C330,370.3,329.9,370.2,329.8,370.1Z" fill="#959599"/>
      <path id="Контур_514" data-name="Контур 514" d="M331.1,431.5v.3h-8v-.3Z" fill="#20377d"/>
      <path id="Контур_515" data-name="Контур 515" d="M256.8,438.2l-.5.5c-.2.2-.4.3-.6.5-1.2.3-2.3.6-3.5.8h-5.9c-.3,0-.6.2-.9.2,0,.1-.1.2-.1.3-.1.4-.4.7-.4,1.1v4c0,.3-.3.8-.5.8a13.1,13.1,0,0,1-2.8,0c-.2,0-.5-.7-.5-1.1v-13a19.421,19.421,0,0,0-.2-2.4c3.1,0,6.3.1,9.4,0a16.374,16.374,0,0,1,5.8.9l.8.8a.6.6,0,0,0,.1.4C258.2,434,257.8,436.1,256.8,438.2Zm-11.4-6.5a1.012,1.012,0,0,0-.4.7V438c0,.1.3.1.4.2a28.951,28.951,0,0,0,5.1,0,3.232,3.232,0,0,0,2.6-3.4,3.615,3.615,0,0,0-3.2-3.2C248.4,431.6,246.9,431.7,245.4,431.7Z" fill="#2c4389"/>
      <path id="Контур_516" data-name="Контур 516" d="M321.5,368.1c1.4,3.9,2.9,7.7,4.2,11.7a3.75,3.75,0,0,1-1.2,4.4,5.026,5.026,0,0,1-5,.8c-1-1.5-2-3-2.9-4.5-.2-.3-.5-.8-.4-1.1.5-1.8,1.1-3.7,1.6-5.5.5.2.9.3,1.5.5a8.8,8.8,0,0,0,.5-1.5C320.3,371.3,320.9,369.7,321.5,368.1Z" fill="#2b4288"/>
      <path id="Контур_517" data-name="Контур 517" d="M321.5,368.1l-1.8,4.8c-.2.5-.3,1-.5,1.5a8.8,8.8,0,0,0-1.5-.5c-.6,1.9-1.1,3.7-1.6,5.5-.1.3.2.8.4,1.1,1,1.5,2,3,2.9,4.5-.3-.2-.8-.3-1-.6-1.2-1.7-2.4-3.5-3.5-5.3a2.3,2.3,0,0,1-.2-1.4c.4-1.6.9-3.2,1.4-4.9.5.1,1,.3,1.7.5.8-2.6,1.6-5.2,2.5-8.1A16.309,16.309,0,0,1,321.5,368.1Z" fill="#969698"/>
      <path id="Контур_518" data-name="Контур 518" d="M301.7,354.7c.1-.3.2-1,.4-1,1-.2,2-.2,3-.3a1.268,1.268,0,0,0,.1.6c-1.1.3-2.1.7-3.2,1Z" fill="#959599"/>
      <path id="Контур_519" data-name="Контур 519" d="M245.4,431.7c0,2.2,0,4.3-.1,6.5-.1-.1-.4-.1-.4-.2v-5.6C244.9,432.2,245.2,431.9,245.4,431.7Z" fill="#142b76"/>
    </g>
  </g>
</svg>
