<svg xmlns="http://www.w3.org/2000/svg" width="85.733" height="109.1" viewBox="0 0 85.733 109.1">
  <g id="рено" transform="translate(-261.711 -340.9)">
    <g id="Сгруппировать_16" data-name="Сгруппировать 16">
      <path id="Контур_520" data-name="Контур 520" d="M317.7,340.9v.2h-26v-.2Z" fill="#cacaca"/>
      <path id="Контур_521" data-name="Контур 521" d="M291.9,449.7c-.8-1.3-1.6-2.7-2.3-4-2.5-4.6-5.1-9.1-7.6-13.7-3.5-6.4-7.1-12.7-10.6-19.1-2.5-4.5-5-9-7.6-13.6-.6-1-1.1-2.1-1.8-3.1a1.238,1.238,0,0,1,.1-1.7,2.092,2.092,0,0,0,.4-.6h.5v.5a1.421,1.421,0,0,1-.2.6c-.1.2-.1.3-.2.5a1.445,1.445,0,0,0,.7.2h21.9a1.421,1.421,0,0,0,.6-.2h.3c.1.1.2.2.2.3,1.2,2,2.4,4.1,3.5,6.1,4.4,7.6,8.7,15.2,13,22.9a1.083,1.083,0,0,1,0,1.1c-.7,1.6-1.5,3.2-2.2,4.9-1.6,3.5-3.1,7-4.6,10.5-.4,1-.9,2-1.4,3.1.7,0,1.2.2,1.6-.5l2.4-4.2,9.9-17.4c4.1-7.2,8.2-14.3,12.3-21.5.9-1.6,1.9-3.3,2.9-4.9h22.2c.2,0,.4-.2.6-.3l.3-.3.6-.3c0,.2.1.5,0,.7l-6.6,12c-4.4,7.8-8.7,15.7-13.1,23.5-3.4,6.2-6.9,12.3-10.3,18.4l-.3.3c-.1-.1-.3-.3-.4-.3H292.8C292.5,449.6,292.2,449.7,291.9,449.7Z" fill="#1d1d1b"/>
      <path id="Контур_522" data-name="Контур 522" d="M292.1,342.1c-.3.5-.6,1.1-.9,1.6-.1.2-.2.3-.3.5-.9,1.7-1.8,3.4-2.8,5.2-2.8,5-5.5,9.9-8.3,14.9-3.1,5.5-6.1,11.1-9.2,16.6-.5.8-.9,1.6-1.4,2.4a4.621,4.621,0,0,1-.7.7h0a6.373,6.373,0,0,1-.2-.7c.8-1.4,1.6-2.9,2.4-4.3,3.9-7,7.8-14,11.6-21,2.9-5.2,5.7-10.4,8.6-15.6,0-.1.1-.1.1-.2.1-.2.2-.3.3-.5.1-.1.1-.2.2-.3h.6C292.1,341.7,292.1,341.9,292.1,342.1Z" fill="#292928"/>
      <path id="Контур_523" data-name="Контур 523" d="M328,361.4l-1.5-2.7c-.1-.1-.1-.2-.2-.3,0-.1-.1-.2-.1-.3-.1-.3-.3-.5-.4-.8-.3-.5-.6-1.1-.9-1.6-.1-.1-.1-.2-.2-.3-2.5-4.5-5-9-7.5-13.4v-.5h.4c.1.1.2.1.3.2.4.7.7,1.3,1.1,2a.758.758,0,0,1,.2.4c0,.1.1.2.1.3.1.1.1.2.2.3s.1.2.2.4a.758.758,0,0,1,.2.4c.2.5.5.9.7,1.4.1.1.1.2.2.3.2.3.3.6.5.9a.758.758,0,0,1,.2.4c.4.7.7,1.3,1.1,2a.758.758,0,0,1,.2.4c.5.9.9,1.7,1.4,2.6a.758.758,0,0,1,.2.4c.3.5.5,1,.8,1.5a.758.758,0,0,1,.2.4l.3.6c.1.2.2.3.3.5a9.291,9.291,0,0,1,.5,1,.758.758,0,0,1,.2.4c.4.7.8,1.5,1.2,2.2.1.2.2.3.3.5l.3.6c.1.1.1.2.2.3.3.6.7,1.3,1,1.9,0,.3-.1.7.4.7,0,.1,0,.2.1.2a1.38,1.38,0,0,1,.3.4c.1.3.3.6.4.9.1.1.1.2.2.3h0c.1.2.2.3.3.5.1.1.1.2.2.3s.1.2.2.3.1.2.2.4c.1.1.2.3.3.4,0,.1,0,.1.1.2a.758.758,0,0,1,.2.4c0,.1.1.2.1.3.1.1.1.2.2.3h0c0,.3-.1.6.4.6.3.5.5,1,.8,1.5.1.1.1.2.2.3a2.187,2.187,0,0,0,.3.5c.1.2.2.3.3.5.9,1.7,1.8,3.4,2.8,5.1.2.4.5.8.7,1.2l.3.6c.1.3.3.5.4.8a.758.758,0,0,1,.2.4c0,.1.1.2.1.3.1.1.1.2.2.3,0,.1.1.2.1.3-.3.4,0,.4.3.5,1.5,2.9,3.1,5.7,4.6,8.6l-.3.6c-.4-.6-.8-1.3-1.2-1.9-1-1.7-2-3.5-3-5.2-1.2-2.2-2.5-4.4-3.7-6.7-.7-1.3-1.4-2.7-2.1-4a4.053,4.053,0,0,1-.5-.9c-.2-.5-.5-.9-.7-1.4-.1-.1-.2-.3-.3-.4,0-.1-.1-.2-.1-.3-.1-.1-.1-.2-.2-.3h0c-.1-.2-.2-.3-.2-.5-.3-.5-.6-1.1-.9-1.6-.1-.1-.1-.2-.2-.3,0-.1-.1-.2-.1-.3-.1-.2-.2-.3-.3-.5-.2-.3-.3-.6-.5-.9-.1-.1-.1-.2-.2-.3-.1-.3-.3-.5-.4-.8-.1-.1-.2-.3-.3-.4,0-.1,0-.1-.1-.2a.758.758,0,0,1-.2-.4c0-.1-.1-.2-.1-.3-.1-.1-.1-.2-.2-.3-.1-.3-.3-.5-.4-.8-.1-.1-.1-.2-.2-.3s-.1-.2-.2-.4C328.2,361.6,328.1,361.5,328,361.4Z" fill="#1f1f1d"/>
      <path id="Контур_524" data-name="Контур 524" d="M317.6,341.5H291.5c0-.1.1-.3.1-.4h26c0,.1.1.1.1.2A.31.31,0,0,1,317.6,341.5Z" fill="#070707"/>
      <path id="Контур_525" data-name="Контур 525" d="M291.9,449.7h24.9c.1,0,.3.2.4.3H292.6C292.4,449.9,292.1,449.8,291.9,449.7Z" fill="#010101"/>
      <path id="Контур_526" data-name="Контур 526" d="M265.4,389.8l-1.8,3.3c-.1.1-.3.2-.4.3-.1-.2-.2-.3-.2-.5.4-.7.7-1.4,1.1-2.1.1-.1.2-.1.3-.2.2-.5.5-1.1.7-1.6.1-.1.1-.2.2-.3,0-.1.1-.2.1-.3.1-.1.1-.2.2-.3,0-.1.1-.2.1-.3.1-.1.2-.3.3-.4.3-.5.5-.9.8-1.4.1-.1.1-.2.2-.3,0-.1.1-.2.1-.3.1-.1.2-.3.3-.4,0-.1,0-.1.1-.2s.2-.3.3-.4a4.872,4.872,0,0,0,.3-.7h.3l.1.1h0v.3c-.3.7-.6,1.3-.9,2-.1.1-.2.3-.3.4,0,.1-.1.2-.1.3-.1.1-.1.2-.2.3-.4.7-.7,1.3-1.1,2A4.23,4.23,0,0,1,265.4,389.8Z" fill="#222221"/>
      <path id="Контур_527" data-name="Контур 527" d="M346,393.7c-.3-.6-.9-1-.8-1.8.1-.2.1-.4.2-.6.5.8.9,1.6,1.4,2.4Z" fill="#3b3b39"/>
      <path id="Контур_528" data-name="Контур 528" d="M346,393.7h.7c.2.5.5.9.7,1.4l-.6.3-.6-1.2C346.1,394,346.1,393.8,346,393.7Z" fill="#20201e"/>
      <path id="Контур_529" data-name="Контур 529" d="M345.3,391.3c-.1.2-.1.4-.2.6l-.6-.9.3-.6A4.051,4.051,0,0,1,345.3,391.3Z" fill="#181817"/>
      <path id="Контур_530" data-name="Контур 530" d="M330.5,364.2c-.5,0-.4-.4-.4-.7A4.349,4.349,0,0,0,330.5,364.2Z" fill="#272725"/>
      <path id="Контур_531" data-name="Контур 531" d="M340.2,381.9c-.3,0-.6-.1-.3-.5A1.333,1.333,0,0,1,340.2,381.9Z" fill="#272725"/>
      <path id="Контур_532" data-name="Контур 532" d="M333.5,369.6c-.5,0-.4-.3-.4-.6A2.092,2.092,0,0,0,333.5,369.6Z" fill="#272725"/>
      <path id="Контур_533" data-name="Контур 533" d="M338.8,379.3l-.3-.6Z" fill="#272725"/>
      <path id="Контур_534" data-name="Контур 534" d="M326.4,356.7c-.1-.2-.2-.3-.3-.5A2.186,2.186,0,0,0,326.4,356.7Z" fill="#353533"/>
      <path id="Контур_535" data-name="Контур 535" d="M331.7,366.5c-.1-.2-.2-.3-.3-.5A2.187,2.187,0,0,1,331.7,366.5Z" fill="#272725"/>
      <path id="Контур_536" data-name="Контур 536" d="M335,372.4c-.1-.2-.2-.3-.3-.5A2.185,2.185,0,0,0,335,372.4Z" fill="#272725"/>
      <path id="Контур_537" data-name="Контур 537" d="M291.3,341.7c-.1.2-.2.3-.3.5A2.185,2.185,0,0,0,291.3,341.7Z" fill="#353533"/>
      <path id="Контур_538" data-name="Контур 538" d="M328.6,360.8c-.1-.2-.2-.3-.3-.5C328.4,360.5,328.5,360.6,328.6,360.8Z" fill="#353533"/>
      <path id="Контур_539" data-name="Контур 539" d="M319.3,344a.758.758,0,0,1-.2-.4C319.2,343.7,319.2,343.9,319.3,344Z" fill="#353533"/>
      <path id="Контур_540" data-name="Контур 540" d="M319.6,344.6c-.1-.1-.1-.2-.2-.3C319.5,344.4,319.6,344.5,319.6,344.6Z" fill="#353533"/>
      <path id="Контур_541" data-name="Контур 541" d="M267.7,384.5c-.1.1-.2.3-.3.4A1.38,1.38,0,0,1,267.7,384.5Z" fill="#262624"/>
      <path id="Контур_542" data-name="Контур 542" d="M267.3,385c-.1.1-.2.3-.3.4C267.2,385.3,267.2,385.2,267.3,385Z" fill="#262624"/>
      <path id="Контур_543" data-name="Контур 543" d="M267,385.8c-.1.1-.1.2-.2.3C266.8,385.9,266.9,385.9,267,385.8Z" fill="#262624"/>
      <path id="Контур_544" data-name="Контур 544" d="M320.9,347c-.1-.1-.1-.2-.2-.3C320.8,346.8,320.9,346.9,320.9,347Z" fill="#353533"/>
      <path id="Контур_545" data-name="Контур 545" d="M266,387.4c-.1.1-.2.3-.3.4A1.38,1.38,0,0,0,266,387.4Z" fill="#262624"/>
      <path id="Контур_546" data-name="Контур 546" d="M265.6,388.2c-.1.1-.1.2-.2.3A.768.768,0,0,1,265.6,388.2Z" fill="#262624"/>
      <path id="Контур_547" data-name="Контур 547" d="M265.3,388.7c-.1.1-.1.2-.2.3C265.2,388.9,265.2,388.8,265.3,388.7Z" fill="#262624"/>
      <path id="Контур_548" data-name="Контур 548" d="M321.7,348.3a.758.758,0,0,1-.2-.4A.519.519,0,0,0,321.7,348.3Z" fill="#353533"/>
      <path id="Контур_549" data-name="Контур 549" d="M264.4,390.6c-.1.1-.2.1-.3.2C264.2,390.8,264.3,390.7,264.4,390.6Z" fill="#262624"/>
      <path id="Контур_550" data-name="Контур 550" d="M323,350.7a.758.758,0,0,1-.2-.4C322.9,350.5,322.9,350.6,323,350.7Z" fill="#353533"/>
      <path id="Контур_551" data-name="Контур 551" d="M324.7,353.7a.758.758,0,0,1-.2-.4A.52.52,0,0,0,324.7,353.7Z" fill="#353533"/>
      <path id="Контур_552" data-name="Контур 552" d="M325.7,355.7a.758.758,0,0,1-.2-.4A.519.519,0,0,1,325.7,355.7Z" fill="#353533"/>
      <path id="Контур_553" data-name="Контур 553" d="M327.1,358.1a.758.758,0,0,1-.2-.4C326.9,357.8,327,357.9,327.1,358.1Z" fill="#353533"/>
      <path id="Контур_554" data-name="Контур 554" d="M329.1,361.7c-.1-.1-.1-.2-.2-.3C328.9,361.5,329,361.6,329.1,361.7Z" fill="#272725"/>
      <path id="Контур_555" data-name="Контур 555" d="M330.8,364.8a1.38,1.38,0,0,1-.3-.4A1.38,1.38,0,0,0,330.8,364.8Z" fill="#272725"/>
      <path id="Контур_556" data-name="Контур 556" d="M331.5,366c-.1-.1-.1-.2-.2-.3C331.3,365.8,331.4,365.9,331.5,366Z" fill="#272725"/>
      <path id="Контур_557" data-name="Контур 557" d="M332,367c-.1-.1-.1-.2-.2-.3A1.238,1.238,0,0,0,332,367Z" fill="#272725"/>
      <path id="Контур_558" data-name="Контур 558" d="M332.5,367.8c-.1-.1-.2-.3-.3-.4C332.3,367.5,332.4,367.7,332.5,367.8Z" fill="#272725"/>
      <path id="Контур_559" data-name="Контур 559" d="M339.5,380.5a.758.758,0,0,1-.2-.4A.758.758,0,0,0,339.5,380.5Z" fill="#272725"/>
      <path id="Контур_560" data-name="Контур 560" d="M332.8,368.4a.758.758,0,0,1-.2-.4A.759.759,0,0,0,332.8,368.4Z" fill="#272725"/>
      <path id="Контур_561" data-name="Контур 561" d="M333.1,369c-.1-.1-.1-.2-.2-.3C333,368.8,333,368.9,333.1,369Z" fill="#272725"/>
      <path id="Контур_562" data-name="Контур 562" d="M334.4,371.4c-.1-.1-.1-.2-.2-.3C334.3,371.2,334.4,371.3,334.4,371.4Z" fill="#272725"/>
      <path id="Контур_563" data-name="Контур 563" d="M320,345.4a.758.758,0,0,1-.2-.4A.52.52,0,0,1,320,345.4Z" fill="#353533"/>
      <path id="Контур_564" data-name="Контур 564" d="M339.8,381.1c-.1-.1-.1-.2-.2-.3C339.7,380.9,339.8,381,339.8,381.1Z" fill="#272725"/>
      <path id="Контур_565" data-name="Контур 565" d="M317.6,341.5a.349.349,0,0,1,.1-.2c.1.1.1.3.2.4C317.9,341.6,317.8,341.5,317.6,341.5Z" fill="#353533"/>
      <path id="Контур_566" data-name="Контур 566" d="M323.8,395.5c-.1,0-.1-.1-.2-.1,0-.1.1-.2.1-.3.3.1.5.3.8.3h21.8c.1,0,.1,0,.3-.1a11.734,11.734,0,0,0-.5-1.1l.6,1.2-.3.3h-21A6.959,6.959,0,0,0,323.8,395.5Z" fill="#3b3b39"/>
      <path id="Контур_567" data-name="Контур 567" d="M262.7,394.9c.1.2.2.4.4.4a2.719,2.719,0,0,0,.9,0h20.8a2.2,2.2,0,0,1,.8.1,1.421,1.421,0,0,1-.6.2H263.1a2.544,2.544,0,0,1-.7-.2C262.6,395.2,262.6,395,262.7,394.9Z" fill="#494947"/>
      <path id="Контур_568" data-name="Контур 568" d="M323.8,395.5a9.7,9.7,0,0,0,1.7.1h21c-.2.1-.4.3-.6.3H323.7A.6.6,0,0,0,323.8,395.5Z" fill="#161614"/>
      <path id="Контур_569" data-name="Контур 569" d="M286.4,395.4c-.1.1-.1.2-.2.3-.1-.1-.2-.2-.2-.3l.2-.2Z" fill="#494947"/>
      <path id="Контур_570" data-name="Контур 570" d="M286.4,395.4c-.1-.1-.2-.1-.2-.2,2.2-3.9,4.4-7.8,6.6-11.6,4.4-7.8,8.9-15.7,13.3-23.5,2.5-4.4,5-8.8,7.4-13.1.4-.7,1-.5,1.7-.5-.8,1.8-1.5,3.5-2.2,5.2-1.1,2.4-2.1,4.8-3.2,7.2-.9,2.1-1.8,4.1-2.8,6.2a1.1,1.1,0,0,0,.1,1.1c2.2,3.8,4.4,7.5,6.5,11.3,3.3,5.7,6.5,11.3,9.8,17,.1.2.2.3.3.5.1.1.1.2.2.3,0,.1-.1.2-.1.3-1.4,0-2.7.1-4.1,0-.8,0-1.3.2-1.5.9,0,.1-.1.2-.2.3-.2-.1-.4-.1-.6-.2a1.547,1.547,0,0,0-.1-2.1c0-.1-.1-.1-.1-.2-3.6-6.4-7.1-12.8-10.7-19.2-.5-.8-.9-1.6-1.5-2.6a3.49,3.49,0,0,1-.6.9c-1.3,2.3-2.6,4.6-3.8,6.9-2.8,4.9-5.5,9.9-8.3,14.8a.878.878,0,0,0-.1.7c.7,1.5,1.5,2.9,2.3,4.4,0,.1-.1.2-.1.3-.1.1-.1.2-.2.3-.8-1.5-1.7-2.9-2.5-4.4a1.416,1.416,0,0,0-1.4-.9C288.9,395.4,287.6,395.4,286.4,395.4Z" fill="#20201e"/>
      <path id="Контур_571" data-name="Контур 571" d="M292.1,341.5h25.1v.5a2.353,2.353,0,0,0-.8-.2H292.9a1.91,1.91,0,0,0-.8.3Z" fill="#353533"/>
      <path id="Контур_572" data-name="Контур 572" d="M334.1,372.3a4.053,4.053,0,0,1,.5.9A4.052,4.052,0,0,1,334.1,372.3Z" fill="#272725"/>
      <path id="Контур_573" data-name="Контур 573" d="M325.8,357.3c.1.3.3.5.4.8C326.1,357.8,325.9,357.6,325.8,357.3Z" fill="#353533"/>
      <path id="Контур_574" data-name="Контур 574" d="M265.4,389.8c.1-.2.3-.4.4-.6A2.091,2.091,0,0,1,265.4,389.8Z" fill="#262624"/>
      <path id="Контур_575" data-name="Контур 575" d="M267.2,386.7c.1-.1.2-.3.3-.4A1.379,1.379,0,0,0,267.2,386.7Z" fill="#262624"/>
      <path id="Контур_576" data-name="Контур 576" d="M329.7,364.4c.1.1.2.3.3.4A.536.536,0,0,1,329.7,364.4Z" fill="#272725"/>
      <path id="Контур_577" data-name="Контур 577" d="M331,366.8c.1.2.2.3.3.5A2.185,2.185,0,0,0,331,366.8Z" fill="#272725"/>
      <path id="Контур_578" data-name="Контур 578" d="M323.6,394.7c-.1-.2-.2-.3-.3-.5C323.5,394.4,323.5,394.6,323.6,394.7Z" fill="#3b3b39"/>
      <path id="Контур_579" data-name="Контур 579" d="M332.5,369.4c.1.2.2.3.2.5A1.69,1.69,0,0,0,332.5,369.4Z" fill="#272725"/>
      <path id="Контур_580" data-name="Контур 580" d="M290.9,344.2c.1-.2.2-.3.3-.5C291.1,343.9,291,344,290.9,344.2Z" fill="#353533"/>
      <path id="Контур_581" data-name="Контур 581" d="M268.4,384.2v-.3h0Z" fill="#262624"/>
      <path id="Контур_582" data-name="Контур 582" d="M266.9,387.2c.1-.1.1-.2.2-.3A.769.769,0,0,1,266.9,387.2Z" fill="#262624"/>
      <path id="Контур_583" data-name="Контур 583" d="M324.7,355.4c.1.1.1.2.2.3C324.8,355.6,324.7,355.5,324.7,355.4Z" fill="#353533"/>
      <path id="Контур_584" data-name="Контур 584" d="M326.3,358.4c.1.1.1.2.2.3C326.5,358.6,326.4,358.5,326.3,358.4Z" fill="#353533"/>
      <path id="Контур_585" data-name="Контур 585" d="M328,361.4c.1.1.2.3.3.4A1.38,1.38,0,0,0,328,361.4Z" fill="#272725"/>
      <path id="Контур_586" data-name="Контур 586" d="M328.4,362.1c.1.1.1.2.2.3C328.5,362.3,328.5,362.2,328.4,362.1Z" fill="#272725"/>
      <path id="Контур_587" data-name="Контур 587" d="M329,363.2c.1.1.1.2.2.3C329.1,363.4,329.1,363.3,329,363.2Z" fill="#272725"/>
      <path id="Контур_588" data-name="Контур 588" d="M329.3,363.8a.758.758,0,0,1,.2.4A.52.52,0,0,0,329.3,363.8Z" fill="#272725"/>
      <path id="Контур_589" data-name="Контур 589" d="M330.3,365.6c.1.1.1.2.2.3C330.5,365.8,330.4,365.7,330.3,365.6Z" fill="#272725"/>
      <path id="Контур_590" data-name="Контур 590" d="M331.4,367.5c.1.1.1.2.2.3C331.5,367.7,331.5,367.6,331.4,367.5Z" fill="#272725"/>
      <path id="Контур_591" data-name="Контур 591" d="M332.8,369.9c.1.1.1.2.2.3C332.9,370.1,332.8,370,332.8,369.9Z" fill="#272725"/>
      <path id="Контур_592" data-name="Контур 592" d="M333.1,370.5c.1.1.2.3.3.4A.536.536,0,0,1,333.1,370.5Z" fill="#272725"/>
      <path id="Контур_593" data-name="Контур 593" d="M268.3,383.8c.1,0,.1,0,.2.1h0C268.4,383.9,268.3,383.9,268.3,383.8Z" fill="#262624"/>
      <path id="Контур_594" data-name="Контур 594" d="M302.9,415.4c.6,1,1.2,2,1.9,3.2.6-1.1,1.1-2,1.6-2.8,1-1.8,2-3.7,3.1-5.5.1-.2.4-.3.6-.4v.6c-1.1,2-2.1,3.9-3.2,5.9-.5,1-1.1,2-1.7,3-.1.2-.3.4-.5.7-.8-1.5-1.6-2.9-2.4-4.3A.723.723,0,0,1,302.9,415.4Z" fill="#212120"/>
      <path id="Контур_595" data-name="Контур 595" d="M295.1,401.2c.4.7.7,1.3,1.1,2a.758.758,0,0,1,.2.4c0,.1.1.2.1.3.1.1.1.2.2.3.3.5.5.9.8,1.4a.758.758,0,0,1,.2.4c0,.1.1.2.1.3.1.1.1.2.2.3.4.9.9,1.8,1.3,2.7h-.6c-.2-.3-.3-.6-.5-.9-.1-.2-.3-.5-.4-.7-.4-.8-.9-1.6-1.3-2.4-.1-.1-.1-.2-.2-.3-.8-1.4-1.6-2.9-2.4-4.3.1-.1.1-.2.2-.3l.6.3c0,.1.1.1.1.2Q294.95,400.9,295.1,401.2Z" fill="#20201f"/>
      <path id="Контур_596" data-name="Контур 596" d="M316.7,397.2c.2-.3.3-.6.5-.9.2.1.4.1.6.2-.9,1.5-1.8,3-2.7,4.4v.4c-.2.4-.5.9-.7,1.3-.1.2-.2.3-.3.5h0c-.1-.2-.3-.4-.4-.6v-.1c.1-.1.1-.2.2-.4h0a.367.367,0,0,0,.3-.1l-.2-.2a15.053,15.053,0,0,1,1-1.7c.2-.3.3-.6.5-.9.4-.5.7-1.1,1.1-1.6C317.1,397.7,317,397.5,316.7,397.2Z" fill="#222"/>
      <path id="Контур_597" data-name="Контур 597" d="M298.8,409.3h.6c.7,1.1,1.4,2.2,2.1,3.4a1.884,1.884,0,0,1,.2.8c-.1.1-.2.1-.2.2-.2-.2-.4-.3-.6-.5Q299.85,411.1,298.8,409.3Z" fill="#2a2a28"/>
      <path id="Контур_598" data-name="Контур 598" d="M310.1,410.4v-.6l.6-1.8c.5-1,1.1-1.9,1.6-2.8.2-.1.3-.1.5-.2.1,0,.1.1.2.1C312.2,407,311,408.6,310.1,410.4Z" fill="#1d1d1b"/>
      <path id="Контур_599" data-name="Контур 599" d="M313.7,402.6c.1.2.3.4.4.6-.3.5-.7,1-1,1.5,0-.1-.1-.3-.1-.4h-.3c.2-.4.4-.8.7-1.3C313.5,402.9,313.6,402.7,313.7,402.6Z" fill="#373736"/>
      <path id="Контур_600" data-name="Контур 600" d="M301.8,413.7l.6.9c-.1.2-.3.3-.4.5-.1-.4-.3-.7-.4-1.1C301.7,413.9,301.7,413.8,301.8,413.7Z" fill="#161615"/>
      <path id="Контур_601" data-name="Контур 601" d="M302.9,415.4a1.421,1.421,0,0,1-.6.2c0-.1,0-.1-.1-.2.1-.2.2-.3.3-.5A1,1,0,0,1,302.9,415.4Z" fill="#161615"/>
      <path id="Контур_602" data-name="Контур 602" d="M302.6,414.9c-.1.2-.2.3-.3.5-.1-.1-.2-.2-.2-.3.1-.2.3-.3.4-.5A.367.367,0,0,0,302.6,414.9Z" fill="#212120"/>
      <path id="Контур_603" data-name="Контур 603" d="M297.9,407.6c.1.2.3.5.4.7C298.2,408.1,298,407.8,297.9,407.6Z" fill="#2f2f2e"/>
      <path id="Контур_604" data-name="Контур 604" d="M314.2,403.2c.1-.2.2-.3.3-.5C314.3,402.9,314.2,403,314.2,403.2Z" fill="#373736"/>
      <path id="Контур_605" data-name="Контур 605" d="M301.8,413.7l-.3.3c0-.1-.1-.3-.1-.4.1-.1.2-.1.2-.2C301.8,413.5,301.8,413.6,301.8,413.7Z" fill="#070707"/>
      <path id="Контур_606" data-name="Контур 606" d="M315.1,401.4v0Z" fill="#373736"/>
      <path id="Контур_607" data-name="Контур 607" d="M296.4,404.9c.1.1.1.2.2.3C296.5,405.1,296.4,405,296.4,404.9Z" fill="#2f2f2e"/>
      <path id="Контур_608" data-name="Контур 608" d="M313.1,404.3c0,.1.1.3.1.4A.6.6,0,0,1,313.1,404.3Z" fill="#070707"/>
      <path id="Контур_609" data-name="Контур 609" d="M294.8,400.6l-.6-.3c0-.1.1-.2.1-.3C294.5,400.2,294.6,400.4,294.8,400.6Z" fill="#373736"/>
      <path id="Контур_610" data-name="Контур 610" d="M315.5,399.3c-.2.3-.3.6-.5.9A4.052,4.052,0,0,0,315.5,399.3Z" fill="#373736"/>
      <path id="Контур_611" data-name="Контур 611" d="M316.7,397.2c.2.2.4.5-.2.5A.764.764,0,0,0,316.7,397.2Z" fill="#20201e"/>
      <path id="Контур_612" data-name="Контур 612" d="M295.1,401.2c-.1-.1-.2-.3-.3-.4A1.38,1.38,0,0,1,295.1,401.2Z" fill="#373736"/>
      <path id="Контур_613" data-name="Контур 613" d="M314.1,401.9l.2.2a.367.367,0,0,0-.3.1C314,402.1,314.1,402,314.1,401.9Z" fill="#373736"/>
      <path id="Контур_614" data-name="Контур 614" d="M314,402.1c-.1.1-.1.2-.2.4C313.8,402.4,313.9,402.3,314,402.1Z" fill="#373736"/>
      <path id="Контур_615" data-name="Контур 615" d="M296.4,403.6a.758.758,0,0,1-.2-.4C296.3,403.3,296.3,403.4,296.4,403.6Z" fill="#2f2f2e"/>
      <path id="Контур_616" data-name="Контур 616" d="M297.8,406a.758.758,0,0,1-.2-.4C297.6,405.7,297.7,405.8,297.8,406Z" fill="#2f2f2e"/>
      <path id="Контур_617" data-name="Контур 617" d="M298.1,406.5c-.1-.1-.1-.2-.2-.3C297.9,406.4,298,406.5,298.1,406.5Z" fill="#2f2f2e"/>
      <path id="Контур_618" data-name="Контур 618" d="M296.7,404.1c-.1-.1-.1-.2-.2-.3A1.238,1.238,0,0,0,296.7,404.1Z" fill="#2f2f2e"/>
    </g>
  </g>
</svg>
