<svg xmlns="http://www.w3.org/2000/svg" width="167.346" height="109.097" viewBox="0 0 167.346 109.097">
  <g id="тойота" transform="translate(-221.554 -341)">
    <g id="Сгруппировать_17" data-name="Сгруппировать 17">
      <path id="Контур_619" data-name="Контур 619" d="M297.5,341h15.1a5.273,5.273,0,0,0,1.2.3c6.6,1,13.3,1.6,19.8,3.1,13.9,3.1,26.7,8.6,37.7,17.8,7.8,6.5,13.8,14.4,16.4,24.4.5,1.7.8,3.5,1.2,5.3v7.7a5.359,5.359,0,0,0-.5,1.1c-1.3,3.9-2.1,8-3.8,11.7-4.8,9.9-12.7,17-21.9,22.7-15.5,9.5-32.6,13.8-50.6,14.8a119.712,119.712,0,0,1-43.7-5.4c-13.5-4.4-25.8-10.9-35.4-21.6-6.7-7.4-10.8-16.1-11.4-26.1a34.777,34.777,0,0,1,3-15.6c4.7-10.9,12.9-18.7,22.8-24.9,14.3-8.9,30-13.1,46.6-14.7C295.2,341.5,296.4,341.2,297.5,341Zm69.8,26.8c-.2,6-2.2,9.9-6.7,13.8-6.4,5.4-14,8.5-21.9,10.7-4.3,1.2-8.6,2-13,3.1v1.3a98.875,98.875,0,0,1-2.7,25.4c-2,8.2-4.6,16.1-11,22.1-.1,0,0,.2,0,.4a92.412,92.412,0,0,0,20.9-3.6c12.6-3.7,24-9.6,33.1-19.3C380.9,405.6,381.5,384,367.3,367.8Zm-124.9.8a17.335,17.335,0,0,0-1.5,1.9c-8.3,11.5-10.6,23.9-5.4,37.3,3.5,8.9,9.8,15.7,17.5,21.3,11,8,23.4,12.3,36.7,14.4,2.8.4,5.6.7,8.3,1a81.4,81.4,0,0,1-5.5-8c-5.4-10.1-7.2-21.1-7.8-32.4-.2-2.9,0-5.9,0-8.6-4.9-1.1-9.4-2-13.8-3.2-7.7-2.1-15-5-21.3-10.2C245.6,378.7,242.5,374.6,242.4,368.6Zm43.2,12.6c1-4.1,1.8-8.1,2.9-11.9,1.8-6.1,4.2-11.9,8.8-16.5,4.9-4.9,10.7-4.9,15.6,0,4,4,6.4,9,8.1,14.3,1.5,4.6,2.5,9.3,3.8,14.1-.1,0,0,.1.1,0,7.2-1.2,14.2-2.8,20.7-6.4a22.692,22.692,0,0,0,6-4.7c2.9-3.1,2.8-6.9.1-10.1a18.662,18.662,0,0,0-3.3-3c-5.8-4-12.4-5.9-19.1-7.3a121.69,121.69,0,0,0-34.6-1.9,90.483,90.483,0,0,0-23.7,4.6c-4.6,1.7-9.2,3.6-12.5,7.4-2.9,3.2-2.9,7-.1,10.3a9.88,9.88,0,0,0,2.8,2.6,74.9,74.9,0,0,0,8.9,4.6A56.891,56.891,0,0,0,285.6,381.2Zm32.1,15.2H292.8c-.4,6.8,1.5,17.6,4.3,23.6a23.256,23.256,0,0,0,3.9,5.9c2.4,2.6,5.6,2.5,8.1,0a12.265,12.265,0,0,0,2.3-2.8c3.3-5.4,4.6-11.5,5.4-17.8C317.3,402.3,317.5,399.3,317.7,396.4Zm-24.1-14.2a122.08,122.08,0,0,0,23.4-.1c-1.5-4.5-2.6-8.7-4.3-12.7a19.242,19.242,0,0,0-4.6-6c-1.7-1.7-4-1.6-6-.1a11.535,11.535,0,0,0-2.7,2.7C296,370.7,294.7,376.3,293.6,382.2Z" fill="#e62129"/>
      <path id="Контур_620" data-name="Контур 620" d="M310.6,341h0Z" fill="#eb6b70"/>
    </g>
  </g>
</svg>
