<svg xmlns="http://www.w3.org/2000/svg" width="103.101" height="103.11" viewBox="0 0 103.101 103.11">
  <g id="Волцваген" transform="translate(-253.7 -343.9)">
    <g id="Сгруппировать_1" data-name="Сгруппировать 1">
      <path id="Контур_1" data-name="Контур 1" d="M299.1,343.9h12.1a10.926,10.926,0,0,0,1.7.5,50.192,50.192,0,0,1,28.5,14.3c11.5,11.5,16.5,25.5,15.2,41.7a48.218,48.218,0,0,1-8.5,23.7c-9.7,14.1-23.2,21.7-40.2,22.8a46.209,46.209,0,0,1-22-3.8q-27.3-12-31.7-41.5c-.1-.9-.3-1.8-.5-2.8v-6.6c.1-.3.2-.5.3-.8a49.516,49.516,0,0,1,6.5-21.2c8.4-14.5,21-23.1,37.6-25.8A4.674,4.674,0,0,0,299.1,343.9Zm38.6,84.3h0l.3-.3h0l.8-.8h0a3.508,3.508,0,0,0,.5-.8h0l.5-.5c1.6-2.1,3.2-4.2,4.7-6.3l.3-.6h0a1.38,1.38,0,0,0,.3-.4v-.1c.5-1.1,1.1-2.1,1.6-3.2.2-.3.3-.7.5-1,.1-.1.2-.3.3-.4v-.1a3.049,3.049,0,0,0,1.1-3c0-.2.1-.4.1-.6.7-2.6,1.3-5.2,2-7.8.1-.2.2-.5.3-.7.1-3.2.2-6.3.2-9.5,0-.2-.3-.4-.4-.6v-1.1c-.4-2-.6-4.1-1.2-6.1-.7-2.3-1.7-4.6-2.6-6.8-.2-.4-.5-.7-.7-1.1v-.2c-1.1-2.5-2.1-5.1-4.3-6.9-1.6-1.8-3.2-3.6-4.9-5.3a42.588,42.588,0,0,0-11.4-8.4,46.721,46.721,0,0,0-14.2-4.3,43.057,43.057,0,0,0-31.2,7.5,44.811,44.811,0,0,0-15.9,53.7,42.987,42.987,0,0,0,8.6,13.2c0,.2-.2.6-.1.7,1.3,1.2,2.5,2.3,3.8,3.5.2,0,.3.1.5.1a15.3,15.3,0,0,0,1.8,1.8c1.3.9,2.7,1.7,4,2.6.1.1.2.3.3.4,3.5,1.5,6.9,3.4,10.6,4.5a44.55,44.55,0,0,0,13.6,1.7c4.7-.1,9.2-1.4,13.7-2.5,1.4-.6,2.9-1.2,4.3-1.8a6.116,6.116,0,0,1,1.2-.5c.6-.4,1.1-.7,1.7-1.1h0l.3-.3h.2c.1-.1.3-.2.4-.3h.1a1.38,1.38,0,0,1,.4-.3h0l.6-.3c1.8-1.4,3.7-2.8,5.5-4.2l.3-.3h0a2.187,2.187,0,0,0,.5-.3h0l.5-.5h0l.5-.5h0C337.5,428.3,337.6,428.2,337.7,428.2Z" fill="#05427f"/>
      <path id="Контур_2" data-name="Контур 2" d="M282.6,433.7a46.717,46.717,0,0,0,15.4,5.6c11.9,1.9,22.9-.4,32.8-7.3a43.055,43.055,0,0,0,18.8-30.6A43.692,43.692,0,0,0,346,377a.6.6,0,0,1-.1-.4c.1-.1.2-.3.3-.4v.2c.2.4.5.7.7,1.1.9,2.3,1.9,4.5,2.6,6.8.6,2,.8,4.1,1.2,6.1v1.1c0,2.6,0,5.2-.1,7.9v2.9c-.7,2.6-1.3,5.2-2,7.8a1.268,1.268,0,0,0-.1.6c-.4,1-.7,2-1.1,3v.1c-.1.1-.2.3-.3.4-.2.3-.3.7-.5,1-.5,1.1-1.1,2.1-1.6,3.2v.1a1.38,1.38,0,0,0-.3.4h0l-.3.6c-1.6,2.1-3.2,4.2-4.7,6.3l-.5.5h0a3.508,3.508,0,0,0-.5.8h0l-.8.8h0l-.3.3h0l-.3.3h0l-.5.5h0l-.5.5h0a2.187,2.187,0,0,0-.5.3h0l-.3.3c-1.8,1.4-3.7,2.8-5.5,4.2l-.6.3h0a1.38,1.38,0,0,1-.4.3h-.1c-.1.1-.3.2-.4.3h-.2l-.3.3h0c-.6.4-1.1.7-1.7,1.1a6.116,6.116,0,0,1-1.2.5c-1.4.6-2.9,1.2-4.3,1.8-4.5,1.1-8.9,2.4-13.7,2.5a44.163,44.163,0,0,1-13.6-1.7c-3.6-1.1-7-3-10.6-4.5-.1-.1-.2-.3-.3-.4A3.977,3.977,0,0,0,282.6,433.7Z" fill="#0e314a"/>
      <path id="Контур_3" data-name="Контур 3" d="M346.2,376.2c-.1.1-.2.3-.3.4-1.3-2.4-2.7-4.9-4-7.3C344,371.1,345.1,373.6,346.2,376.2Z" fill="#1e3c54"/>
      <path id="Контур_4" data-name="Контур 4" d="M282.6,433.7c.1.3.1.5.2.8-1.3-.9-2.7-1.7-4-2.6a15.3,15.3,0,0,1-1.8-1.8c.6.3,1.1.6,1.6.9C279.9,431.9,281.3,432.8,282.6,433.7Z" fill="#173650"/>
      <path id="Контур_5" data-name="Контур 5" d="M350.6,402.3v-2.9c0-2.6,0-5.2.1-7.9.2.2.4.4.4.6-.1,3.2-.1,6.3-.2,9.5C350.9,401.8,350.7,402,350.6,402.3Z" fill="#214d70"/>
      <path id="Контур_6" data-name="Контур 6" d="M272.7,425.8c1,1,2,2,3,3.1.3.3.5.8.8,1.1-1.3-1.2-2.6-2.3-3.8-3.5C272.5,426.4,272.7,426,272.7,425.8Z" fill="#3c648a"/>
      <path id="Контур_7" data-name="Контур 7" d="M321,438.7c1.4-.6,2.9-1.2,4.3-1.8C323.9,437.5,322.4,438.1,321,438.7Z" fill="#295682"/>
      <path id="Контур_8" data-name="Контур 8" d="M345.1,418.4c.5-1.1,1.1-2.1,1.6-3.2C346.2,416.3,345.6,417.4,345.1,418.4Z" fill="#295682"/>
      <path id="Контур_9" data-name="Контур 9" d="M347.5,413.7c.4-1,.7-2,1.1-3A3.208,3.208,0,0,1,347.5,413.7Z" fill="#295682"/>
      <path id="Контур_10" data-name="Контур 10" d="M326.5,436.3c.6-.4,1.1-.7,1.7-1.1A16.282,16.282,0,0,1,326.5,436.3Z" fill="#295682"/>
      <path id="Контур_11" data-name="Контур 11" d="M338,427.9l.8-.8A6.035,6.035,0,0,0,338,427.9Z" fill="#295682"/>
      <path id="Контур_12" data-name="Контур 12" d="M346.9,377.5c-.2-.4-.5-.7-.7-1.1A10.538,10.538,0,0,1,346.9,377.5Z" fill="#1e3c54"/>
      <path id="Контур_13" data-name="Контур 13" d="M350.7,391.2v-.8A2.152,2.152,0,0,0,350.7,391.2Z" fill="#214d70"/>
      <path id="Контур_14" data-name="Контур 14" d="M338.7,427.1a3.508,3.508,0,0,0,.5-.8A3.51,3.51,0,0,1,338.7,427.1Z" fill="#295682"/>
      <path id="Контур_15" data-name="Контур 15" d="M336.4,429.5l.5-.5A1.205,1.205,0,0,0,336.4,429.5Z" fill="#295682"/>
      <path id="Контур_16" data-name="Контур 16" d="M336.9,429l.5-.5C337.2,428.6,337.1,428.8,336.9,429Z" fill="#295682"/>
      <path id="Контур_17" data-name="Контур 17" d="M339.3,426.3l.5-.5C339.6,426,339.5,426.2,339.3,426.3Z" fill="#295682"/>
      <path id="Контур_18" data-name="Контур 18" d="M335.8,429.7a2.187,2.187,0,0,0,.5-.3A.55.55,0,0,1,335.8,429.7Z" fill="#295682"/>
      <path id="Контур_19" data-name="Контур 19" d="M329.5,434.5l.6-.3Z" fill="#295682"/>
      <path id="Контур_20" data-name="Контур 20" d="M344.5,419.5l.3-.6Z" fill="#295682"/>
      <path id="Контур_21" data-name="Контур 21" d="M337.7,428.2l.3-.3Z" fill="#295682"/>
      <path id="Контур_22" data-name="Контур 22" d="M337.4,428.4l.3-.3Z" fill="#295682"/>
      <path id="Контур_23" data-name="Контур 23" d="M347.2,414.2c.1-.1.2-.3.3-.4C347.4,413.9,347.3,414.1,347.2,414.2Z" fill="#295682"/>
      <path id="Контур_24" data-name="Контур 24" d="M335.6,430l.3-.3Z" fill="#295682"/>
      <path id="Контур_25" data-name="Контур 25" d="M344.8,418.9a1.38,1.38,0,0,0,.3-.4A1.38,1.38,0,0,1,344.8,418.9Z" fill="#295682"/>
      <path id="Контур_26" data-name="Контур 26" d="M329.1,434.8a1.38,1.38,0,0,1,.4-.3A1.38,1.38,0,0,1,329.1,434.8Z" fill="#295682"/>
      <path id="Контур_27" data-name="Контур 27" d="M328.6,435c.1-.1.3-.2.4-.3A1.381,1.381,0,0,1,328.6,435Z" fill="#295682"/>
      <path id="Контур_28" data-name="Контур 28" d="M328.2,435.3l.3-.3Z" fill="#295682"/>
      <path id="Контур_29" data-name="Контур 29" d="M285.7,396.4h0v-1c-1.3-3-2.6-6-4-9-.3-.5-.5-1.1-.8-1.6v-.2c-.6-1.2-1.2-2.5-1.8-3.7v-.2a2.187,2.187,0,0,0-.3-.5v-.3l-.3-.3v-.3c-.5-1.1-1.1-2.3-1.6-3.4h0v-1.3h0c.4-.5.9-1.1,1.3-1.6h0l.3-.3h0c.1-.2.2-.3.3-.5h0c.2-.2.3-.4.5-.6l4.8-4.5a13.353,13.353,0,0,0,1.8-.7.8.8,0,0,1,1.3.3c.8,1.8,1.6,3.5,2.3,5.3,1,2.4,2,4.7,3,7.1,1.4,3.2,2.9,6.4,4.3,9.6.8,1.9,1.6,3.8,2.5,5.6a1.969,1.969,0,0,0,1.5,1c3,.1,6,0,9,0,.4,0,.8-.2,1.3-.2h.5c1,.4.7-.4.8-.8v-.2c.2-.2.6-.4.7-.7.5-1,1-1.9,1.4-2.9,1.2-2.9,2.4-5.9,3.7-8.8v-.2a5.359,5.359,0,0,0,.5-1.1v-.2l.3-.6h0l.3-.6v-.2a2.187,2.187,0,0,1,.3-.5h0c.4-.6.7-1.2,1.1-1.9h0a9.829,9.829,0,0,0,.5-1.6h0a2.187,2.187,0,0,1,.3-.5h0l.3-.6v-.2c.3-.4.5-.9.8-1.3.2-.5.4-1.1.6-1.6l.5-.5h0a12.091,12.091,0,0,0,.5-1.8h0a1,1,0,0,0,.5-.4c1.1-1.8,1.3-1.9,2.9-.6,1.4,1.1,2.7,2.4,4.1,3.5a11.782,11.782,0,0,0,1.9,1.1h0c.4,1.4,1.3,2.7.8,4.3h0a6.886,6.886,0,0,0-1.1,1.3,31.823,31.823,0,0,0-1.6,3.2,9.365,9.365,0,0,0-.4-1.6,1.43,1.43,0,0,1,.3-1.9c1-1,.7-2.9-.2-3.3-.5-1.1-.9-2-1.2-2.8a3.624,3.624,0,0,0-4.9-1.9c-.6.3-.8.6-.4,1.2.2.4.3.8.6,1.6-1.5-.9-1.7-.7-2,.4a31.912,31.912,0,0,1-1.3,4.4,12.539,12.539,0,0,1-1.6,2.4c.4.3.9.5,1,.8a.9.9,0,0,1,0,1,4.188,4.188,0,0,1-1.6,1.1,1.278,1.278,0,0,0-1.1,1.2,3.08,3.08,0,0,1-.5,1.2c-.5,1.4-1.5,2.7-.6,4.3a4.033,4.033,0,0,1,0,1.1,3.751,3.751,0,0,0-1-.1c-1.2-.2-1.6.3-1.2,1.4a3.328,3.328,0,0,0,.6,1,5.922,5.922,0,0,1,.4,1.5c-.8-.4-1.2-.7-1.8-1a16.739,16.739,0,0,0-1.1,3.4,4.17,4.17,0,0,0,.6,2.7c.4.6,1.5.8,2.2,1.2a1.47,1.47,0,0,1,.5.6,2.117,2.117,0,0,1-.7.3,5.637,5.637,0,0,1-1.2.4c.2.4.3,1,.6,1.2s.9,0,1.2,0c.5.4,1,1.1,1.3,1.1a6.136,6.136,0,0,0,2.3-1.1c.5-.4.7-1.3,1.1-1.8a1.647,1.647,0,0,0,.4-2,1.986,1.986,0,0,1,.1-1.5c.5-1.4,1.3-2.7,1.1-4.2a1.445,1.445,0,0,1,.2-.7c.3-.3.8-.6,1.1-.5,1.7.4,1.7.4,1.8-1.3a.6.6,0,0,1,.1-.4c.9-.9.6-1.9.2-2.9a9.653,9.653,0,0,1-.3-1.8h.4c.3.6.6,1.1.9,1.7.1,0,.2-.1.3-.1v-3.5c1.5,1.1,1.7.4,1.7-.9,0-.9.6-1.4,1.6-1.4-1,2.5-1.9,5-3,7.4-1.4,3.1-2.9,6.1-4.3,9.2-1.6,3.5-3,7-4.6,10.5a9.547,9.547,0,0,1-1.2,1.6,8.016,8.016,0,0,1-1.3-1.9c-1.4-3.1-2.8-6.2-4.1-9.3-.8-2-1.9-2.9-4.2-2.5a65.664,65.664,0,0,1-7.7.1,1.836,1.836,0,0,0-1.9,1.3c-.8,1.9-1.6,3.9-2.5,5.8-.9,2-1.7,3.9-2.6,5.9-.2.3-.6.7-.9.7-.2,0-.5-.5-.8-.8-.2-.2-.2-.5-.3-.7-.5-1-1-1.9-1.5-2.9h0c-.4-1-.9-2.1-1.3-3.1-.1-.3-.2-.5-.3-.8-.3-.4-.5-.9-.8-1.3-.4-1.3-.5-2.7-2-3.3V397C285.8,396.7,285.7,396.6,285.7,396.4Zm33.1,10.2.5-.5c-.3-.3-.6-.5-.9-.8l-.4.4A6.473,6.473,0,0,0,318.8,406.6Zm-2.2-1.9c-.2.2-.4.3-.4.4s.2.4.2.3c.2,0,.3-.2.5-.3C316.9,405,316.8,404.9,316.6,404.7Zm6.3-7c.1-.1.2-.2.2-.3a.349.349,0,0,0-.1-.2c-.1,0-.2.1-.3.1C322.7,397.4,322.8,397.5,322.9,397.7Zm1.3-3.7c0,.1-.1.1-.1.2l.1.1c.1,0,.1-.1.2-.1C324.3,394.1,324.3,394,324.2,394Z" fill="#014180"/>
      <path id="Контур_30" data-name="Контур 30" d="M341.1,387.8a28.907,28.907,0,0,1,.8,5,56.131,56.131,0,0,1-.2,7.1,34.993,34.993,0,0,1-6.2,16.5,36.257,36.257,0,0,1-10.1,9.8c-.5.4-1.1.6-1.7,1a5.428,5.428,0,0,1,0-1.8c.9-2.3,2-4.6,3-6.8.5-1.2,1.1-2.3,1.7-3.5.1-.3.2-.5.3-.8h0c.6-1.3,1.2-2.7,1.8-4v-.2l.3-.6c.1-.3.2-.5.3-.8.4-.8.9-1.6,1.3-2.4v-.2l.3-.6c.8-1.8,1.6-3.5,2.3-5.3l.3-.6v-.2c.6-1.3,1.2-2.6,1.9-4,1-2.4,2-4.9,3-7.3C340.4,387.7,340.5,387.1,341.1,387.8Z" fill="#06427e"/>
      <path id="Контур_31" data-name="Контур 31" d="M288,427.7c-.2-.1-.4-.1-.5-.2-.1-.2-.1-.5-.2-.6-2.7-2.2-5.5-4.5-8.2-6.7-.5-.6-1.1-1.2-1.6-1.8h0l-.3-.3h0l-.3-.3h0c0-.8-.2-1.4-1.1-1.6h0c-.4-.7-.9-1.4-1.3-2.1v-.2l-.3-.3v-.2l-.3-.3v-.2c-.3-.5-.7-1.1-1-1.6v-.2c-.2-.4-.3-.7-.5-1.1a12.091,12.091,0,0,1-.5-1.8c-.3-1.3-.5-2.5-.9-3.8a10.092,10.092,0,0,0-.7-1.5,41.6,41.6,0,0,1,0-12.7c.2-.6.5-1.3.8-2.2.5.9.9,1.6,1.2,2.3,1,2.2,2,4.4,2.9,6.6l7.2,16.2c1.9,4.3,3.7,8.6,5.7,12.9A1.244,1.244,0,0,1,288,427.7Z" fill="#02407f"/>
      <path id="Контур_32" data-name="Контур 32" d="M311,371.2v.2a1.576,1.576,0,0,0-.7.7c-.9,2-1.8,4.1-2.7,6.1-.6,1.4-1.3,2.7-1.9,4.1h-.5c-.4-.9-.7-1.8-1.1-2.6-.6-1.1-1.2-2.1-1.8-3.2v-.2c-.1-.2-.2-.3-.3-.5-.8-1.9-1.6-3.9-2.5-6.1-.1.6-.2.8-.2,1-.1-.3-.3-.6-.4-.9.6-.9.3-1.4-.5-1.9a9.129,9.129,0,0,1-.8-1.3h0a3.088,3.088,0,0,0-1.4-2.9h0l-.3-.6h0c.1-.8-.4-1.9.8-2.1a57.707,57.707,0,0,1,5.8-.8h2.2c1.5-.1,2.9-.2,4.4-.2l2.4.3c1.1.4,2.1.9,3.3,1.4-.1.2-.2.5-.3.7-.5,1.4-1,2.9-1.4,4.3v.2a2.42,2.42,0,0,0-1.2,2.6v.1A7.577,7.577,0,0,0,311,371.2Z" fill="#03417f"/>
      <path id="Контур_33" data-name="Контур 33" d="M307.8,432c-.4,0-.9.1-1.3.1-1.7-.1-3.4-.1-5-.2H301c-.9-.2-1.8-.5-2.6-.7h-1.3l-.1-.1c.2-1.1.3-2.1.5-3.2v-.2l.3-.6v-.2a5.359,5.359,0,0,0,.5-1.1v-.2a5.359,5.359,0,0,0,.5-1.1v-.2c.3-.4.5-.7.8-1.1V423l.3-.3v-.2l.3-.6v-.2l.3-.6h0l.3-.6v-.2l.3-.6v-.2c.3-.5.7-1.1,1-1.6v-.2l.3-.6v-.2l.3-.6v-.2l.3-.3v-.2c.6-1.3,1.2-2.7,1.8-4h0l.3-.6v-.2a2.187,2.187,0,0,1,.3-.5h0c.7-.6,1.1-.4,1.4.4,1.7,3.9,3.4,7.7,5.1,11.6.2.4.6.6.9.9h0c.3.9.4,1.9.8,2.8.6,1.5,1.3,2.9,2,4.5-1.3.3-2.2.5-3.2.7C310.8,431.4,309.3,431.7,307.8,432Z" fill="#02417f"/>
      <path id="Контур_34" data-name="Контур 34" d="M341.1,387.8c-.6-.7-.8-.1-.9.3-1,2.4-2,4.9-3,7.3-.6,1.3-1.2,2.6-1.9,4v.2l-.3.6c-.8,1.8-1.6,3.5-2.3,5.3l-.3.6v.2c-.4.8-.9,1.6-1.3,2.4-.1.3-.2.5-.3.8l-.3.6v.2c-.6,1.3-1.2,2.7-1.8,4h0c-.1.3-.2.5-.3.8-.6,1.2-1.2,2.3-1.7,3.5-1,2.3-2.1,4.5-3,6.8a5.428,5.428,0,0,0,0,1.8,22.607,22.607,0,0,0-2.6,1.6c-.1-.1-.1-.2-.2-.3,6.5-14.6,13-29.1,19.4-43.7h.3C340.8,385.8,340.9,386.8,341.1,387.8Z" fill="#0d3049"/>
      <path id="Контур_35" data-name="Контур 35" d="M331.4,380.6c.5-1.1,1-2.1,1.6-3.2a6.885,6.885,0,0,1,1.1-1.3c-1.4,3.3-2.9,6.6-4.3,10-3.6,8.2-7.3,16.4-10.9,24.6-.2.4-.4.7-.9,1.5-1.1-2.3-2.1-4.3-3-6.3-1.3-2.8-2.5-5.6-3.7-8.4a1.3,1.3,0,0,0-1.6-1c-2.9.1-5.8,0-8.7,0a1.5,1.5,0,0,0-1.6,1c-2.1,4.9-4.3,9.7-6.7,15-.8-1.8-1.4-3.3-2-4.8-.2-.8-.4-1.6-.5-2.3.5,1,1,1.9,1.5,2.9.1.2.2.5.3.7.2.3.5.8.8.8a1.272,1.272,0,0,0,.9-.7c.9-1.9,1.8-3.9,2.6-5.9.8-1.9,1.7-3.8,2.5-5.8a1.836,1.836,0,0,1,1.9-1.3,39.525,39.525,0,0,0,7.7-.1c2.3-.3,3.4.5,4.2,2.5,1.3,3.2,2.7,6.2,4.1,9.3a12.734,12.734,0,0,0,1.3,1.9,9.551,9.551,0,0,0,1.2-1.6c1.6-3.5,3-7,4.6-10.5,1.4-3.1,3-6.1,4.3-9.2,1.1-2.4,2-4.9,3-7.4C331.2,381,331.3,380.8,331.4,380.6Z" fill="#1b4975"/>
      <path id="Контур_36" data-name="Контур 36" d="M312.3,394.1v.2a6.033,6.033,0,0,1-.8.8H311a6.752,6.752,0,0,0-1.4-.2h-8.3c-.5,0-1-.5-1.4-.7,3.2,0,6.3-.1,9.5,0a1.9,1.9,0,0,0,2.1-1.4c4-9.2,8.1-18.4,12.2-27.6.2-.4.4-.8.7-1.3.7.6,1.3,1.2,2,1.8-.7-.2-1.4-.3-1.7.6a17.237,17.237,0,0,0-.7,2.1h0a12.091,12.091,0,0,0-.5,1.8h0l-.5.5c-.2.5-.4,1.1-.6,1.6-.3.4-.5.9-.8,1.3v.2l-.3.6h0a2.187,2.187,0,0,1-.3.5h0a9.829,9.829,0,0,0-.5,1.6h0c-.4.6-.7,1.2-1.1,1.9h0a2.187,2.187,0,0,1-.3.5v.2l-.3.6h0l-.3.6v.2a5.359,5.359,0,0,0-.5,1.1v.2a3.915,3.915,0,0,0-.8,1c-.5,1-.9,2.1-1.4,3.1C314.8,388.5,313.6,391.3,312.3,394.1Z" fill="#0c2f48"/>
      <path id="Контур_37" data-name="Контур 37" d="M270.4,390.1a41.6,41.6,0,0,0,0,12.7c.5,1.8,1,3.5,1.6,5.3a12.091,12.091,0,0,1,.5,1.8c.2.4.3.7.5,1.1v.2c.3.5.7,1.1,1,1.6v.2l.3.3v.2l.3.3v.2c.4.7.9,1.4,1.3,2.1h0c.4.5.7,1.1,1.1,1.6h0l.3.3h0l.3.3h0v.8a35.79,35.79,0,0,1-8.2-17.2,33.6,33.6,0,0,1,1.2-17.2c.2.7.5,1.3.7,2A21.366,21.366,0,0,0,270.4,390.1Z" fill="#0f314b"/>
      <path id="Контур_38" data-name="Контур 38" d="M300.2,421.6v.2l-.3.6v.2l-.3.3v.2c-.3.4-.5.7-.8,1.1v.2a5.359,5.359,0,0,0-.5,1.1v.2a5.359,5.359,0,0,0-.5,1.1v.2l-.3.6v.2c-.4,1-.9,2-1.3,3-.5-.1-.9-.2-1.5-.3,3.6-8,7.1-15.9,10.7-24,.3.7.5,1.2.7,1.8-.3.6-.6,1.3-.9,1.9h0a2.187,2.187,0,0,1-.3.5v.2l-.3.6h0c-.6,1.3-1.2,2.7-1.8,4v.2l-.3.3v.2l-.3.6v.2l-.3.6v.2c-.3.5-.7,1.1-1,1.6v.2l-.3.6v.2l-.3.6h0A.662.662,0,0,1,300.2,421.6Z" fill="#0e3148"/>
      <path id="Контур_39" data-name="Контур 39" d="M270.4,390.1c.3-1.1.5-2.3.8-3.4,1.7,3.6,3.4,7.2,5,10.9,4.4,9.8,8.7,19.6,13.1,29.4.2.4.3.9.5,1.4l-.1.1c-.5-.3-1.1-.5-1.6-.8.5-.5.5-1,.2-1.8-2-4.3-3.8-8.6-5.7-12.9l-7.2-16.2c-1-2.2-1.9-4.4-2.9-6.6-.3-.7-.7-1.4-1.2-2.3C270.9,388.9,270.6,389.5,270.4,390.1Z" fill="#295179"/>
      <path id="Контур_40" data-name="Контур 40" d="M299.9,394.2a3.653,3.653,0,0,0,1.4.7c2.8.1,5.5,0,8.3,0,.5,0,.9.2,1.4.2a5.066,5.066,0,0,1-1.3.2c-3,0-6,.1-9,0a2.523,2.523,0,0,1-1.5-1c-.9-1.8-1.7-3.7-2.5-5.6-1.4-3.2-2.9-6.4-4.3-9.6-1-2.3-2-4.7-3-7.1-.8-1.8-1.5-3.5-2.3-5.3-.3-.6-.6-.7-1.3-.3a9.627,9.627,0,0,1-1.8.7c.9-.6,1.9-1.2,2.8-1.8,2.5,5.6,5,11.1,7.5,16.7C296.3,386.1,298.1,390.1,299.9,394.2Z" fill="#1b4975"/>
      <path id="Контур_41" data-name="Контур 41" d="M302.6,360c-1.9.3-3.9.5-5.8.8-1.2.2-.7,1.3-.8,2.1-.4-.8-.8-1.7-1.4-2.9,2.8-.5,5.4-1.1,8-1.3a35.6,35.6,0,0,1,12.6,1.2c.6.2.9.3.4.9-1.4-.3-2.7-.6-4.1-.9l-2.4-.3c-1.1,0-2.2-.1-3.3,0A16.48,16.48,0,0,1,302.6,360Z" fill="#0c2f49"/>
      <path id="Контур_42" data-name="Контур 42" d="M287,365.3c-.9.6-1.9,1.2-2.8,1.8l-4.8,4.5c-.2.2-.3.4-.5.6h0c-.1.2-.2.3-.3.5h0l-.3.3h0c-.4.5-.9,1.1-1.3,1.6h0c-.2.3-.3.7-.5,1v.1a2.12,2.12,0,0,1,.1-3.1,37.23,37.23,0,0,1,9.9-8.6A5.021,5.021,0,0,0,287,365.3Z" fill="#0f3149"/>
      <path id="Контур_43" data-name="Контур 43" d="M302.3,376.4c.6,1.1,1.3,2.1,1.8,3.2.4.8.7,1.7,1.1,2.6h.5c.6-1.4,1.3-2.7,1.9-4.1.9-2,1.8-4.1,2.7-6.1.1-.3.5-.5.7-.7-1.8,4.1-3.6,8.3-5.4,12.4-.1,0-.3.1-.4.1-1-2.4-2-4.8-3.1-7.2A.215.215,0,0,0,302.3,376.4Z" fill="#234e77"/>
      <path id="Контур_44" data-name="Контур 44" d="M305.2,410.2c.3-.6.6-1.3.9-1.9,1.7,3.7,3.4,7.5,5.1,11.2l1.5,3.6a7.636,7.636,0,0,1-.9-.9c-1.7-3.8-3.4-7.7-5.1-11.6C306.3,409.8,305.9,409.6,305.2,410.2Z" fill="#2b5278"/>
      <path id="Контур_45" data-name="Контур 45" d="M324,368.2a17.232,17.232,0,0,1,.7-2.1c.3-.9,1-.7,1.7-.6a27.58,27.58,0,0,1,6.9,6.3c-.6-.4-1.3-.7-1.9-1.1-1.4-1.1-2.7-2.4-4.1-3.5-1.6-1.3-1.8-1.2-2.9.6C324.4,368,324.1,368.1,324,368.2Z" fill="#1b4975"/>
      <path id="Контур_46" data-name="Контур 46" d="M307.8,432c1.5-.3,2.9-.6,4.4-.9,1-.2,1.9-.4,3.2-.7-.7-1.6-1.5-3-2-4.5-.4-.9-.5-1.9-.8-2.8,1.1,2.4,2.3,4.8,3.4,7.4A25.812,25.812,0,0,1,307.8,432Z" fill="#2b5278"/>
      <path id="Контур_47" data-name="Контур 47" d="M279.1,420.2c2.7,2.2,5.5,4.4,8.2,6.7a1.072,1.072,0,0,1,.2.6,31.524,31.524,0,0,1-8.4-6.5c0-.3,0-.5,0-.8Z" fill="#244e74"/>
      <path id="Контур_48" data-name="Контур 48" d="M285.7,396v.4c-1.5-3.4-3-6.7-4.5-10.1l.1-.1c.2.1.3.2.5.3,1.3,3,2.6,6,4,9A.749.749,0,0,0,285.7,396Z" fill="#23445e"/>
      <path id="Контур_49" data-name="Контур 49" d="M311.6,360.1c1.4.3,2.7.6,4.1.9-.8,1.8-1.7,3.7-2.5,5.5.5-1.4,1-2.9,1.4-4.3a2.391,2.391,0,0,1,.3-.7C313.7,361,312.6,360.5,311.6,360.1Z" fill="#234e77"/>
      <path id="Контур_50" data-name="Контур 50" d="M302.3,376.4c-.1.1-.1.2-.2.3-.9-2-1.9-4.1-2.8-6.1,0-.2.1-.4.2-1,.9,2.2,1.7,4.2,2.5,6.1.1.2.2.3.3.5Z" fill="#2a4b68"/>
      <path id="Контур_51" data-name="Контур 51" d="M285.8,396.9c1.4.6,1.6,2,2,3.3.1.4.2.9.3,1.3l-.2.2Z" fill="#2a4b68"/>
      <path id="Контур_52" data-name="Контур 52" d="M334,376.2c.5-1.6-.4-2.9-.8-4.3C335.3,373.7,335.3,374,334,376.2Z" fill="#1b4975"/>
      <path id="Контур_53" data-name="Контур 53" d="M290.2,405.5c.2.8.4,1.6.5,2.3-.7-1.4-1.4-2.9-2-4.3.1,0,.1-.1.2-.1.4.6.8,1.4,1.3,2.1Z" fill="#2a4b68"/>
      <path id="Контур_54" data-name="Контур 54" d="M277,375.9c.5,1.1,1.1,2.3,1.6,3.4-.2-.1-.4-.1-.6-.2h0a2.187,2.187,0,0,0-.3-.5h0a1.421,1.421,0,0,1-.2-.6h0a1.421,1.421,0,0,1-.2-.6h0l-.3-.6v-.1A1.1,1.1,0,0,1,277,375.9Z" fill="#1e486f"/>
      <path id="Контур_55" data-name="Контур 55" d="M301.5,431.9c1.7.1,3.4.1,5,.2C304.9,432,303.2,431.9,301.5,431.9Z" fill="#2b5278"/>
      <path id="Контур_56" data-name="Контур 56" d="M296.2,430.9c.4-1,.9-2,1.3-3-.2,1.1-.3,2.1-.5,3.2A1.884,1.884,0,0,0,296.2,430.9Z" fill="#1b4975"/>
      <path id="Контур_57" data-name="Контур 57" d="M277.5,419.2v-.8c.5.6,1.1,1.2,1.6,1.8h0c-.1.1-.3.1-.4.2l-.9-.9q-.3-.15-.3-.3Z" fill="#244e74"/>
      <path id="Контур_58" data-name="Контур 58" d="M296.2,363.5a3.7,3.7,0,0,1,1.4,2.9C297.1,365.4,296.6,364.5,296.2,363.5Z" fill="#0c2f49"/>
      <path id="Контур_59" data-name="Контур 59" d="M311.9,369.2a2.489,2.489,0,0,1,1.2-2.6C312.7,367.5,312.3,368.4,311.9,369.2Z" fill="#234e77"/>
      <path id="Контур_60" data-name="Контур 60" d="M298.4,431.1c.9.2,1.8.5,2.6.7-.9-.2-1.8-.3-2.7-.5C298.4,431.3,298.4,431.2,298.4,431.1Z" fill="#2b5278"/>
      <path id="Контур_61" data-name="Контур 61" d="M298.4,367.7c.8.5,1.1,1,.5,1.9l-.3-.6.1-.1a.1.1,0,0,1-.1-.1c-.1-.3-.3-.6-.4-.9Z" fill="#2a4b68"/>
      <path id="Контур_62" data-name="Контур 62" d="M288.5,401.5c.1.3.2.5.3.8v1c-.1,0-.1.1-.2.1-.3-.6-.5-1.2-.8-1.8l.2-.2A1.087,1.087,0,0,0,288.5,401.5Z" fill="#2a4b68"/>
      <path id="Контур_63" data-name="Контур 63" d="M277.9,379.1c.2.1.4.1.6.2v.3l.3.3v.3a2.187,2.187,0,0,0,.3.5v.7l-.1.1C278.6,380.7,278.3,379.9,277.9,379.1Z" fill="#23445e"/>
      <path id="Контур_64" data-name="Контур 64" d="M311,371.2c.3-.6.6-1.3.9-1.9C311.6,369.9,311.3,370.6,311,371.2Z" fill="#234e77"/>
      <path id="Контур_65" data-name="Контур 65" d="M280.9,384.6v.2c.1.4.2.9.3,1.3l-.1.1a14.168,14.168,0,0,1-.8-1.8l.1-.1A2.185,2.185,0,0,1,280.9,384.6Z" fill="#23445e"/>
      <path id="Контур_66" data-name="Контур 66" d="M298.4,367.7c-.1.1-.1.2-.2.3-.2-.5-.4-1-.6-1.6A9.134,9.134,0,0,0,298.4,367.7Z" fill="#0c2f49"/>
      <path id="Контур_67" data-name="Контур 67" d="M279.8,383.4c-.2-.4-.4-.8-.6-1.3.1,0,.1-.1.2-.1a6.943,6.943,0,0,1,.5,1.3C279.8,383.3,279.8,383.3,279.8,383.4Z" fill="#23445e"/>
      <path id="Контур_68" data-name="Контур 68" d="M277,375.9v1c-.2-.4-.3-.8-.5-1.2v-.1a2.185,2.185,0,0,0,.5.3Z" fill="#23445e"/>
      <path id="Контур_69" data-name="Контур 69" d="M298.4,431.1v.3l-1.2-.3Z" fill="#1b4975"/>
      <path id="Контур_70" data-name="Контур 70" d="M278.6,420.5c.1-.1.3-.1.4-.2v.7A1,1,0,0,0,278.6,420.5Z" fill="#0f314b"/>
      <path id="Контур_71" data-name="Контур 71" d="M296,362.9l.3.6A.864.864,0,0,1,296,362.9Z" fill="#0c2f49"/>
      <path id="Контур_72" data-name="Контур 72" d="M280.3,384.5a2.187,2.187,0,0,0-.3-.5l.1-.1a2.187,2.187,0,0,0,.3.5A.1.1,0,0,0,280.3,384.5Z" fill="#23445e"/>
      <path id="Контур_73" data-name="Контур 73" d="M276.9,376.9l.3.6Z" fill="#23445e"/>
      <path id="Контур_74" data-name="Контур 74" d="M277.2,377.5a1.421,1.421,0,0,1,.2.6A1.422,1.422,0,0,0,277.2,377.5Z" fill="#23445e"/>
      <path id="Контур_75" data-name="Контур 75" d="M279.2,382.1a1.421,1.421,0,0,1-.2-.6l.1-.1a2.187,2.187,0,0,0,.3.5C279.3,382,279.2,382,279.2,382.1Z" fill="#23445e"/>
      <path id="Контур_76" data-name="Контур 76" d="M277.4,378a1.421,1.421,0,0,1,.2.6A1.421,1.421,0,0,0,277.4,378Z" fill="#23445e"/>
      <path id="Контур_77" data-name="Контур 77" d="M277.6,378.6a2.187,2.187,0,0,0,.3.5A2.186,2.186,0,0,1,277.6,378.6Z" fill="#23445e"/>
      <path id="Контур_78" data-name="Контур 78" d="M280,383.9a1.421,1.421,0,0,1-.2-.6l.1-.1a2.187,2.187,0,0,0,.3.5C280.1,383.8,280.1,383.9,280,383.9Z" fill="#23445e"/>
      <path id="Контур_79" data-name="Контур 79" d="M289.7,428.4c0,.1.1.2.1.3,0-.1-.1-.2-.1-.3Z" fill="#295179"/>
      <path id="Контур_80" data-name="Контур 80" d="M285.7,396.4c0,.1.1.3.1.4C285.8,396.7,285.7,396.6,285.7,396.4Z" fill="#2a4b68"/>
      <path id="Контур_81" data-name="Контур 81" d="M277.4,419.2a1.38,1.38,0,0,1,.3.4A1.379,1.379,0,0,0,277.4,419.2Z" fill="#0f314b"/>
      <path id="Контур_82" data-name="Контур 82" d="M298.5,368.8a.1.1,0,0,1,.1.1l-.1.1Z" fill="#03417f"/>
      <path id="Контур_83" data-name="Контур 83" d="M331.4,380.6c-.1.2-.2.3-.3.5a1.477,1.477,0,0,0-1.6,1.4c0,1.3-.2,2.1-1.7.9v3.5c-.1,0-.2.1-.3.1-.3-.6-.6-1.1-.9-1.7h-.4a5.663,5.663,0,0,0,.3,1.8c.4,1,.7,2-.2,2.9-.1.1-.1.2-.1.4-.2,1.7-.1,1.7-1.8,1.3-.3-.1-.8.3-1.1.5a.618.618,0,0,0-.2.7c.2,1.6-.7,2.8-1.1,4.2a2.62,2.62,0,0,0-.1,1.5,1.647,1.647,0,0,1-.4,2c-.4.5-.6,1.4-1.1,1.8a6.136,6.136,0,0,1-2.3,1.1c-.3.1-.8-.6-1.3-1.1-.3,0-.8.2-1.2,0-.3-.2-.4-.8-.6-1.2.4-.1.8-.3,1.2-.4a4.88,4.88,0,0,0,.7-.3c-.2-.2-.3-.5-.5-.6-.7-.4-1.8-.6-2.2-1.2a4.17,4.17,0,0,1-.6-2.7,19.3,19.3,0,0,1,1.1-3.4,18.021,18.021,0,0,1,1.8,1c-.2-.7-.3-1.1-.4-1.5-.2-.4-.5-.6-.6-1-.4-1.2,0-1.6,1.2-1.4a3.083,3.083,0,0,0,1,.1,4.033,4.033,0,0,0,0-1.1c-.9-1.6.1-2.9.6-4.3.1-.4.4-.8.5-1.2a1.278,1.278,0,0,1,1.1-1.2,4.188,4.188,0,0,0,1.6-1.1c.2-.2.1-.7,0-1a4.363,4.363,0,0,0-1-.8c.5-.8,1.2-1.6,1.6-2.4a22.26,22.26,0,0,0,1.3-4.4c.3-1.2.5-1.3,2-.4-.3-.7-.4-1.2-.6-1.6-.3-.6-.2-1,.4-1.2a3.624,3.624,0,0,1,4.9,1.9c.4.8.7,1.7,1.2,2.8.8.4,1.2,2.2.2,3.3-.7.7-.5,1.2-.3,1.9A4.145,4.145,0,0,0,331.4,380.6Z" fill="#014180"/>
      <path id="Контур_84" data-name="Контур 84" d="M312.3,394.1l3.6-8.4c.5-1,.9-2.1,1.4-3.1a7.008,7.008,0,0,1,.8-1c-1.2,2.9-2.4,5.9-3.7,8.8a25.907,25.907,0,0,1-1.4,2.9A1.387,1.387,0,0,1,312.3,394.1Z" fill="#1b4975"/>
      <path id="Контур_85" data-name="Контур 85" d="M280.1,383.8a2.187,2.187,0,0,0-.3-.5,6.943,6.943,0,0,1-.5-1.3,2.187,2.187,0,0,0-.3-.5V381c.6,1.2,1.2,2.5,1.8,3.7-.2-.1-.3-.2-.5-.3A1.422,1.422,0,0,0,280.1,383.8Z" fill="#1e486f"/>
      <path id="Контур_86" data-name="Контур 86" d="M288.9,403.3v-1c.4,1.1.9,2.1,1.3,3.2A25.3,25.3,0,0,1,288.9,403.3Z" fill="#1b4975"/>
      <path id="Контур_87" data-name="Контур 87" d="M318.8,406.6a6.469,6.469,0,0,1-.8-.9l.4-.4a6.471,6.471,0,0,1,.9.8C319.1,406.3,318.9,406.4,318.8,406.6Z" fill="#014180"/>
      <path id="Контур_88" data-name="Контур 88" d="M277,374.6c.4-.5.9-1.1,1.3-1.6A10.1,10.1,0,0,0,277,374.6Z" fill="#1e486f"/>
      <path id="Контур_89" data-name="Контур 89" d="M319.5,378.3c.4-.6.7-1.2,1.1-1.9A11.782,11.782,0,0,0,319.5,378.3Z" fill="#1b4975"/>
      <path id="Контур_90" data-name="Контур 90" d="M316.6,404.7c.1.2.2.3.3.5-.2.1-.3.2-.5.3-.1,0-.3-.2-.2-.3A.7.7,0,0,1,316.6,404.7Z" fill="#014180"/>
      <path id="Контур_91" data-name="Контур 91" d="M321.6,373.5c.3-.4.5-.9.8-1.3A9.129,9.129,0,0,0,321.6,373.5Z" fill="#1b4975"/>
      <path id="Контур_92" data-name="Контур 92" d="M323.4,370.1a12.091,12.091,0,0,0,.5-1.8A16.691,16.691,0,0,1,323.4,370.1Z" fill="#1b4975"/>
      <path id="Контур_93" data-name="Контур 93" d="M320.5,376.4a9.829,9.829,0,0,0,.5-1.6A7.494,7.494,0,0,1,320.5,376.4Z" fill="#1b4975"/>
      <path id="Контур_94" data-name="Контур 94" d="M281.2,386.2c-.1-.4-.2-.9-.3-1.3.3.5.5,1.1.8,1.6C281.5,386.4,281.4,386.3,281.2,386.2Z" fill="#1e486f"/>
      <path id="Контур_95" data-name="Контур 95" d="M277,375.9c-.2-.1-.3-.2-.5-.3.2-.3.3-.7.5-1Z" fill="#1e486f"/>
      <path id="Контур_96" data-name="Контур 96" d="M311.6,395.2a6.033,6.033,0,0,1,.8-.8C312.2,394.8,312.5,395.5,311.6,395.2Z" fill="#1b4975"/>
      <path id="Контур_97" data-name="Контур 97" d="M318.1,381.5a5.359,5.359,0,0,0,.5-1.1A9.746,9.746,0,0,1,318.1,381.5Z" fill="#1b4975"/>
      <path id="Контур_98" data-name="Контур 98" d="M288.5,401.5H288c-.1-.4-.2-.9-.3-1.3A9.131,9.131,0,0,1,288.5,401.5Z" fill="#1b4975"/>
      <path id="Контур_99" data-name="Контур 99" d="M322.9,397.7a.756.756,0,0,1-.1-.4c0-.1.2-.1.3-.1a.349.349,0,0,1,.1.2Z" fill="#014180"/>
      <path id="Контур_100" data-name="Контур 100" d="M278.8,372.2c.2-.2.3-.4.5-.6A2.651,2.651,0,0,1,278.8,372.2Z" fill="#1e486f"/>
      <path id="Контур_101" data-name="Контур 101" d="M322.9,370.6l.5-.5Z" fill="#1b4975"/>
      <path id="Контур_102" data-name="Контур 102" d="M324.2,394a.1.1,0,0,0,.1.1c-.1,0-.1.1-.2.1l-.1-.1A.349.349,0,0,0,324.2,394Z" fill="#014180"/>
      <path id="Контур_103" data-name="Контур 103" d="M278.5,372.7c.1-.2.2-.3.3-.5C278.7,372.4,278.6,372.5,278.5,372.7Z" fill="#1e486f"/>
      <path id="Контур_104" data-name="Контур 104" d="M321.3,374.3l.3-.6Z" fill="#1b4975"/>
      <path id="Контур_105" data-name="Контур 105" d="M321.1,374.8a2.187,2.187,0,0,1,.3-.5A.914.914,0,0,0,321.1,374.8Z" fill="#1b4975"/>
      <path id="Контур_106" data-name="Контур 106" d="M319.2,378.8a2.187,2.187,0,0,1,.3-.5A2.185,2.185,0,0,0,319.2,378.8Z" fill="#1b4975"/>
      <path id="Контур_107" data-name="Контур 107" d="M318.9,379.6l.3-.6Z" fill="#1b4975"/>
      <path id="Контур_108" data-name="Контур 108" d="M285.7,396v0Z" fill="#2a4b68"/>
      <path id="Контур_109" data-name="Контур 109" d="M279.1,380.6a2.187,2.187,0,0,0-.3-.5A2.185,2.185,0,0,0,279.1,380.6Z" fill="#1e486f"/>
      <path id="Контур_110" data-name="Контур 110" d="M318.7,380.1l.3-.6A3.332,3.332,0,0,1,318.7,380.1Z" fill="#1b4975"/>
      <path id="Контур_111" data-name="Контур 111" d="M278.3,373l.3-.3Z" fill="#1e486f"/>
      <path id="Контур_112" data-name="Контур 112" d="M278.8,379.9l-.3-.3Z" fill="#1e486f"/>
      <path id="Контур_113" data-name="Контур 113" d="M328.7,414.2c.6-1.3,1.2-2.7,1.8-4C329.9,411.5,329.3,412.8,328.7,414.2Z" fill="#1b4975"/>
      <path id="Контур_114" data-name="Контур 114" d="M335.3,399.4c.6-1.3,1.2-2.6,1.9-4C336.6,396.7,335.9,398.1,335.3,399.4Z" fill="#1a4b77"/>
      <path id="Контур_115" data-name="Контур 115" d="M331.1,408.6c.4-.8.9-1.6,1.3-2.4C332,407,331.5,407.8,331.1,408.6Z" fill="#1b4975"/>
      <path id="Контур_116" data-name="Контур 116" d="M328.4,415c.1-.3.2-.5.3-.8A6.9,6.9,0,0,0,328.4,415Z" fill="#1b4975"/>
      <path id="Контур_117" data-name="Контур 117" d="M335,400.2l.3-.6Z" fill="#1a4b77"/>
      <path id="Контур_118" data-name="Контур 118" d="M330.6,410l.3-.6A.864.864,0,0,0,330.6,410Z" fill="#1b4975"/>
      <path id="Контур_119" data-name="Контур 119" d="M332.4,406l.3-.6Z" fill="#1b4975"/>
      <path id="Контур_120" data-name="Контур 120" d="M271.9,408.1c-.5-1.8-1-3.5-1.6-5.3a10.092,10.092,0,0,1,.7,1.5A29.635,29.635,0,0,1,271.9,408.1Z" fill="#1b4975"/>
      <path id="Контур_121" data-name="Контур 121" d="M275.9,416.3c-.4-.7-.9-1.4-1.3-2.1C275,414.9,275.5,415.6,275.9,416.3Z" fill="#244e74"/>
      <path id="Контур_122" data-name="Контур 122" d="M277,417.9c-.4-.5-.7-1.1-1.1-1.6C276.8,416.4,277,417.1,277,417.9Z" fill="#244e74"/>
      <path id="Контур_123" data-name="Контур 123" d="M274,412.9c-.3-.5-.7-1.1-1-1.6C273.3,411.8,273.7,412.3,274,412.9Z" fill="#244e74"/>
      <path id="Контур_124" data-name="Контур 124" d="M273,411c-.2-.4-.3-.7-.5-1.1A11.731,11.731,0,0,0,273,411Z" fill="#244e74"/>
      <path id="Контур_125" data-name="Контур 125" d="M274.6,413.9l-.3-.3Z" fill="#244e74"/>
      <path id="Контур_126" data-name="Контур 126" d="M277.2,418.1l-.3-.3Z" fill="#244e74"/>
      <path id="Контур_127" data-name="Контур 127" d="M277.5,418.4l-.3-.3Z" fill="#244e74"/>
      <path id="Контур_128" data-name="Контур 128" d="M274.3,413.4l-.3-.3Z" fill="#244e74"/>
      <path id="Контур_129" data-name="Контур 129" d="M302.6,360l3.3-.3h3.3c-1.5.1-2.9.2-4.4.2A8.13,8.13,0,0,1,302.6,360Z" fill="#295682"/>
      <path id="Контур_130" data-name="Контур 130" d="M302.3,376.1c-.1-.2-.2-.3-.3-.5A2.188,2.188,0,0,0,302.3,376.1Z" fill="#234e77"/>
      <path id="Контур_131" data-name="Контур 131" d="M302.8,415.5c.6-1.3,1.2-2.7,1.8-4A28.742,28.742,0,0,1,302.8,415.5Z" fill="#1a4b77"/>
      <path id="Контур_132" data-name="Контур 132" d="M301,419.5c.3-.5.7-1.1,1-1.6C301.7,418.4,301.4,418.9,301,419.5Z" fill="#1a4b77"/>
      <path id="Контур_133" data-name="Контур 133" d="M298.9,424.2c.3-.4.5-.7.8-1.1C299.4,423.5,299.2,423.8,298.9,424.2Z" fill="#1a4b77"/>
      <path id="Контур_134" data-name="Контур 134" d="M298.3,425.5a5.359,5.359,0,0,0,.5-1.1A3.7,3.7,0,0,1,298.3,425.5Z" fill="#1a4b77"/>
      <path id="Контур_135" data-name="Контур 135" d="M297.8,426.9a5.359,5.359,0,0,0,.5-1.1A9.735,9.735,0,0,1,297.8,426.9Z" fill="#1b4975"/>
      <path id="Контур_136" data-name="Контур 136" d="M302.3,416.8l.3-.6A3.326,3.326,0,0,1,302.3,416.8Z" fill="#1a4b77"/>
      <path id="Контур_137" data-name="Контур 137" d="M302,417.6l.3-.6Z" fill="#1a4b77"/>
      <path id="Контур_138" data-name="Контур 138" d="M300.7,420.3l.3-.6Z" fill="#1a4b77"/>
      <path id="Контур_139" data-name="Контур 139" d="M300.5,421l.3-.6C300.6,420.7,300.5,420.8,300.5,421Z" fill="#1a4b77"/>
      <path id="Контур_140" data-name="Контур 140" d="M300.2,421.6l.3-.6Z" fill="#1a4b77"/>
      <path id="Контур_141" data-name="Контур 141" d="M299.9,422.4l.3-.6Z" fill="#1a4b77"/>
      <path id="Контур_142" data-name="Контур 142" d="M297.5,427.7l.3-.6Z" fill="#1b4975"/>
      <path id="Контур_143" data-name="Контур 143" d="M305,410.8a2.187,2.187,0,0,1,.3-.5A.55.55,0,0,0,305,410.8Z" fill="#1a4b77"/>
      <path id="Контур_144" data-name="Контур 144" d="M304.7,411.5l.3-.6A3.331,3.331,0,0,1,304.7,411.5Z" fill="#1a4b77"/>
      <path id="Контур_145" data-name="Контур 145" d="M299.7,422.9l.3-.3C299.8,422.7,299.8,422.8,299.7,422.9Z" fill="#1a4b77"/>
      <path id="Контур_146" data-name="Контур 146" d="M302.6,416l.3-.3Z" fill="#1a4b77"/>
    </g>
  </g>
</svg>
